<svg id="Layer_1" data-name="Layer 1" xmlns="http://www.w3.org/2000/svg" width="50" height="50" viewBox="0 0 50 50"><defs><style>.cls-1{fill:#14a2dc;}</style></defs><title>SAP_Logos_Replacement</title><path class="cls-1" d="M13.3,27.8a2.4,2.4,0,0,1-1.7-.7c-.6-.6-.7-1.3-.7-2.6a3.5,3.5,0,0,1,.7-2.6,2.4,2.4,0,0,1,1.7-.6,2.4,2.4,0,0,1,2.4,2H14.4a1.1,1.1,0,0,0-1.1-.9,1.1,1.1,0,0,0-.8.3c-.2.3-.3.6-.3,1.8s.1,1.6.3,1.8a1.2,1.2,0,0,0,.8.4,1.1,1.1,0,0,0,1.1-.9h1.3A2.4,2.4,0,0,1,13.3,27.8Z"/><path class="cls-1" d="M19.9,27.2a2.1,2.1,0,0,1-1.5.6,1.8,1.8,0,0,1-1.4-.6,2.4,2.4,0,0,1-.5-1.8,2.3,2.3,0,0,1,.5-1.8,1.8,1.8,0,0,1,1.4-.6,2.1,2.1,0,0,1,1.5.6,2.3,2.3,0,0,1,.5,1.8A2.4,2.4,0,0,1,19.9,27.2Zm-.9-3a1.1,1.1,0,0,0-.6-.2l-.5.2a1.6,1.6,0,0,0-.3,1.2c0,.5,0,.9.3,1.1s.3.2.5.2.4,0,.6-.2a1.6,1.6,0,0,0,.3-1.1A2.1,2.1,0,0,0,19,24.2Z"/><path class="cls-1" d="M24.3,27.7V24.9a.8.8,0,1,0-1.6,0v2.8H21.5V23h1.2v.5a1.7,1.7,0,0,1,2.3-.1,2,2,0,0,1,.4,1.3v3Z"/><path class="cls-1" d="M28.6,27.8c-1,0-2.1-.5-2.1-2.4S27.6,23,28.6,23a2,2,0,0,1,1.5.6l-.8.8a1,1,0,0,0-.7-.4.9.9,0,0,0-.7.3,1.8,1.8,0,0,0-.3,1.1,1.3,1.3,0,0,0,.3,1,1,1,0,0,0,1.4,0l.8.7A1.8,1.8,0,0,1,28.6,27.8Z"/><path class="cls-1" d="M33.7,27.7v-.4a1.7,1.7,0,0,1-1.2.5,2.1,2.1,0,0,1-1.1-.4A2.1,2.1,0,0,1,31,26V23h1.1v2.9a.8.8,0,1,0,1.6,0V23h1.2v4.7Z"/><path class="cls-1" d="M38.7,24.3a.7.7,0,0,0-.6-.3.8.8,0,0,0-.8.9v2.8H36.2V23h1.1v.5a1.5,1.5,0,0,1,1.2-.5,1.4,1.4,0,0,1,1.1.4Z"/></svg>