<svg width="58" height="58" viewBox="-3 -3 64 64" fill="none" xmlns="http://www.w3.org/2000/svg">
<path d="M29 58C45.0163 58 58 45.0163 58 29C58 12.9837 45.0163 0 29 0C12.9837 0 0 12.9837 0 29C0 45.0163 12.9837 58 29 58Z" fill="#5F67FA"/>
<path d="M40.0519 19.6045L35.3884 14.9572C34.845 14.4156 33.8466 14 33.0756 14H32.052H28.804H19.8436C18.2764 14 17 15.272 17 16.8338V41.1662C17 42.728 18.2764 44 19.8436 44H38.1562C39.7233 44 40.9997 42.728 40.9997 41.1662V29V22.9169V21.9093C41.0124 21.1411 40.5953 20.1461 40.0519 19.6045ZM38.232 20.0831C38.2067 20.0831 38.1814 20.0831 38.1562 20.0831H36.1214C35.4516 20.0831 34.8955 19.5416 34.8955 18.8615V16.8338C34.8955 16.8086 34.8955 16.7834 34.8955 16.7582L38.232 20.0831ZM39.382 41.1788C39.382 41.8463 38.8386 42.4005 38.1562 42.4005H19.8436C19.1738 42.4005 18.6177 41.8589 18.6177 41.1788V16.8338C18.6177 16.1662 19.1611 15.6121 19.8436 15.6121H28.7913H32.052C32.7218 15.6121 33.2779 16.1537 33.2779 16.8338V18.8615C33.2779 20.4232 34.5543 21.6952 36.1214 21.6952H38.1562C38.826 21.6952 39.382 22.2368 39.382 22.9169V29V41.1788Z" fill="white"/>
<path d="M26.8639 36C26.0612 35.7962 25.4558 35.46 25.0476 34.9913C24.644 34.5267 24.4422 33.9114 24.4422 33.1452V31.9287C24.4422 30.9384 23.9615 30.4432 23 30.4432V29.5568C23.9615 29.5568 24.4422 29.0637 24.4422 28.0774V26.8059C24.4512 26.0601 24.6531 25.459 25.0476 25.0025C25.4467 24.542 26.0522 24.2078 26.8639 24L27.1224 24.703C26.1746 24.9761 25.7007 25.6872 25.7007 26.8365V28.0713C25.7007 28.9964 25.322 29.6403 24.5646 30.0031C25.322 30.3698 25.7007 31.0199 25.7007 31.9531V33.2124C25.7143 34.3332 26.1882 35.028 27.1224 35.297L26.8639 36Z" fill="white"/>
<path d="M30.8707 35.297C31.7914 35.0321 32.2676 34.3576 32.2993 33.2736V31.9287C32.2993 30.9873 32.7098 30.3454 33.5306 30.0031C32.7098 29.6689 32.2993 29.027 32.2993 28.0774V26.8365C32.2993 25.6872 31.8254 24.9761 30.8776 24.703L31.1361 24C31.9388 24.2038 32.542 24.5359 32.9456 24.9964C33.3492 25.4529 33.5533 26.0581 33.5578 26.812V28.0958C33.5578 29.0698 34.0385 29.5568 35 29.5568V30.4432C34.0385 30.4432 33.5578 30.9384 33.5578 31.9287V33.1635C33.5578 33.9297 33.3515 34.543 32.9388 35.0036C32.5306 35.4641 31.9297 35.7962 31.1361 36L30.8707 35.297Z" fill="white"/>
</svg>
