<?xml version="1.0" encoding="utf-8"?>
<!-- Generator: Adobe Illustrator 21.1.0, SVG Export Plug-In . SVG Version: 6.00 Build 0)  -->
<svg version="1.1" id="Layer_1" xmlns="http://www.w3.org/2000/svg" xmlns:xlink="http://www.w3.org/1999/xlink" x="0px" y="0px"
	 viewBox="0 0 50 50" style="enable-background:new 0 0 50 50;" xml:space="preserve">
<g id="Layer_3">
</g>
<g id="Layer_2">
</g>
<g>
	<path d="M4.7,28.9v-7.7h4.9v1H5.9v2.2h3.2v1H5.9v2.3h3.8v1H4.7z"/>
	<path d="M16.1,27.9c-0.5,0.7-1.2,1-2.2,1h-2.7v-7.7H14c1,0,1.6,0.3,2.2,1c0.6,0.7,0.6,1.6,0.6,2.9S16.7,27.2,16.1,27.9z M15.2,22.7
		c-0.3-0.4-0.8-0.5-1.3-0.5h-1.4v5.6h1.4c0.6,0,1-0.2,1.3-0.5c0.4-0.4,0.4-1.1,0.4-2.3S15.5,23.1,15.2,22.7z"/>
	<path d="M18.5,28.9v-7.7h1.2v7.7H18.5z"/>
	<path d="M22.8,22.2v2.3H26v1h-3.2v3.3h-1.2v-7.7h4.9v1H22.8z"/>
	<path d="M31.7,28.9l-0.5-1.5h-3l-0.5,1.5h-1.2l2.8-7.7h0.9l2.8,7.7H31.7z M29.7,22.9l-1.2,3.4h2.4L29.7,22.9z"/>
	<path d="M36.4,28.9c-0.8,0-1.5-0.3-2-0.8c-0.7-0.8-0.8-1.5-0.8-3.1c0-1.6,0-2.4,0.8-3.1c0.5-0.5,1.1-0.8,2-0.8
		c1.4,0,2.5,0.8,2.7,2.4H38c-0.2-0.8-0.7-1.3-1.6-1.3c-0.5,0-0.9,0.2-1.1,0.5c-0.4,0.4-0.5,0.9-0.5,2.4s0.1,2,0.5,2.4
		c0.3,0.3,0.7,0.5,1.1,0.5c0.9,0,1.4-0.5,1.6-1.3h1.2C38.9,28.1,37.9,28.9,36.4,28.9z"/>
	<path d="M43.1,22.2v6.7H42v-6.7h-2.1v-1h5.4v1H43.1z"/>
</g>
</svg>

