<svg id="Layer_1" data-name="Layer 1" xmlns="http://www.w3.org/2000/svg" width="50" height="50" viewBox="0 0 50 50"><defs><style>.cls-1{fill:#14a2dc;}</style></defs><title>SAP_Logos_Replacement</title><path class="cls-1" d="M11.1,22.9A3.2,3.2,0,0,1,8.8,22l.8-.8a2.2,2.2,0,0,0,1.6.5c.7,0,1.1-.3,1.1-.8a.8.8,0,0,0-.2-.5.8.8,0,0,0-.6-.2h-.7a2.3,2.3,0,0,1-1.3-.6,1.6,1.6,0,0,1-.4-1.2,2,2,0,0,1,2.2-2,3,3,0,0,1,2.1.8l-.8.8a1.9,1.9,0,0,0-1.4-.5.8.8,0,0,0-.9.8.7.7,0,0,0,.1.5l.6.2.8.2a1.5,1.5,0,0,1,1.2.5,1.4,1.4,0,0,1,.5,1.3C13.5,22.2,12.5,22.9,11.1,22.9Z"/><path class="cls-1" d="M17.3,22.8v-.4a1.7,1.7,0,0,1-1.2.5,1.6,1.6,0,0,1-1.1-.5,1.8,1.8,0,0,1-.4-1.3v-3h1.1v2.8c0,.7.4.9.8.9s.8-.2.8-.9V18.1h1.2v4.7Z"/><path class="cls-1" d="M21.6,22.9c-.9,0-2.1-.6-2.1-2.5s1.2-2.3,2.1-2.3a2.1,2.1,0,0,1,1.6.6l-.8.8a1,1,0,0,0-.8-.4.6.6,0,0,0-.6.3,1.5,1.5,0,0,0-.3,1,1.6,1.6,0,0,0,.3,1.1.6.6,0,0,0,.6.3,1,1,0,0,0,.8-.4l.8.8A2.2,2.2,0,0,1,21.6,22.9Z"/><path class="cls-1" d="M25.8,22.9c-.9,0-2.1-.6-2.1-2.5s1.2-2.3,2.1-2.3a2.3,2.3,0,0,1,1.6.6l-.8.8a1,1,0,0,0-.8-.4.9.9,0,0,0-.7.3,2.5,2.5,0,0,0-.2,1,2.7,2.7,0,0,0,.2,1.1.9.9,0,0,0,.7.3,1,1,0,0,0,.8-.4l.8.8A2.4,2.4,0,0,1,25.8,22.9Z"/><path class="cls-1" d="M29.1,20.8a1,1,0,0,0,1,1.1,1.2,1.2,0,0,0,1-.5l.8.7a2.3,2.3,0,0,1-1.8.8c-1.1,0-2.2-.6-2.2-2.5s.8-2.3,2-2.3A2,2,0,0,1,32,20.3v.5Zm1.6-1.3a.8.8,0,0,0-.8-.5.7.7,0,0,0-.7.5.9.9,0,0,0-.1.5h1.7A.9.9,0,0,0,30.7,19.5Z"/><path class="cls-1" d="M34.6,22.9a2.6,2.6,0,0,1-2-.7l.8-.8a1.6,1.6,0,0,0,1.2.5c.4,0,.9-.2.9-.5s-.2-.4-.5-.5h-.8c-.8-.1-1.4-.5-1.4-1.4s.9-1.4,1.9-1.4a2.3,2.3,0,0,1,1.7.5l-.7.7a1.6,1.6,0,0,0-1.1-.3c-.4,0-.6.2-.6.5s.1.3.5.4h.7a1.4,1.4,0,0,1,1.4,1.4C36.6,22.4,35.7,22.9,34.6,22.9Z"/><path class="cls-1" d="M39.1,22.9a2.5,2.5,0,0,1-2-.7l.7-.8a1.8,1.8,0,0,0,1.3.5c.4,0,.8-.2.8-.5s-.1-.4-.5-.5h-.7c-.9-.1-1.4-.5-1.4-1.4s.9-1.4,1.8-1.4a2.4,2.4,0,0,1,1.8.5l-.7.7a2,2,0,0,0-1.1-.3c-.5,0-.7.2-.7.5s.2.3.5.4h.8a1.4,1.4,0,0,1,1.4,1.4C41.1,22.4,40.2,22.9,39.1,22.9Z"/><path class="cls-1" d="M11.7,27.5v1.6h2.5v1.1H11.7v2.6H10.4V26.4h4.2v1.1Z"/><path class="cls-1" d="M17.8,32.8v-.4a1.7,1.7,0,0,1-1.2.4,1.6,1.6,0,0,1-1.2-.4,1.5,1.5,0,0,1-.4-1c0-.8.5-1.4,1.6-1.4h1.1v-.2c0-.5-.2-.8-.8-.8a.9.9,0,0,0-.9.5l-.8-.8a2,2,0,0,1,1.7-.6c1.3,0,2,.5,2,1.6v3.1Zm-.1-2h-.9c-.4,0-.7.2-.7.6s.3.5.8.5a1,1,0,0,0,.7-.2,1.1,1.1,0,0,0,.1-.6Z"/><path class="cls-1" d="M22,32.9c-.9,0-2.1-.6-2.1-2.5s1.2-2.3,2.1-2.3a2.1,2.1,0,0,1,1.6.6l-.8.8a1,1,0,0,0-.8-.4.6.6,0,0,0-.6.3,1.5,1.5,0,0,0-.3,1,1.6,1.6,0,0,0,.3,1.1.6.6,0,0,0,.6.3,1,1,0,0,0,.8-.4l.8.8A2.2,2.2,0,0,1,22,32.9Z"/><path class="cls-1" d="M26,32.8a1.3,1.3,0,0,1-1.4-1.3V29.1h-.5v-.9h.5V26.9h1.2v1.3h.8v.9h-.8v2.3c0,.3.1.4.4.4h.4v1Z"/><path class="cls-1" d="M30.8,32.3a1.8,1.8,0,0,1-1.4.6,2.1,2.1,0,0,1-1.5-.6,2.7,2.7,0,0,1-.5-1.9,2.6,2.6,0,0,1,.5-1.8,2.1,2.1,0,0,1,1.5-.5,1.8,1.8,0,0,1,1.4.5,2.2,2.2,0,0,1,.6,1.8A2.3,2.3,0,0,1,30.8,32.3Zm-.9-3-.5-.2-.6.2c-.2.2-.2.7-.2,1.1s0,1,.2,1.2l.6.2.5-.2c.3-.2.3-.7.3-1.2S30.2,29.5,29.9,29.3Z"/><path class="cls-1" d="M35,29.4a.6.6,0,0,0-.6-.3.8.8,0,0,0-.7.9v2.8H32.5V28.1h1.1v.5a1.7,1.7,0,0,1,1.2-.5,1.4,1.4,0,0,1,1.1.4Z"/><path class="cls-1" d="M38,32.9a2.6,2.6,0,0,1-2-.7l.8-.8a1.8,1.8,0,0,0,1.3.5c.4,0,.8-.2.8-.5s-.1-.4-.5-.5h-.8a1.3,1.3,0,0,1-1.3-1.4c0-.9.8-1.4,1.8-1.4a2.7,2.7,0,0,1,1.8.5l-.7.7a2,2,0,0,0-1.1-.3c-.5,0-.7.2-.7.5s.1.3.5.4h.7c1,.1,1.4.6,1.4,1.4S39.1,32.9,38,32.9Z"/></svg>