<?xml version="1.0" encoding="utf-8"?>
<!-- Generator: Adobe Illustrator 21.1.0, SVG Export Plug-In . SVG Version: 6.00 Build 0)  -->
<svg version="1.1" id="Layer_1" xmlns="http://www.w3.org/2000/svg" xmlns:xlink="http://www.w3.org/1999/xlink" x="0px" y="0px"
	 viewBox="0 0 50 50" style="enable-background:new 0 0 50 50;" xml:space="preserve">
<style type="text/css">
	.st0{fill:#D7D8D9;}
	.st1{fill:#008CDB;}
</style>
<g id="Layer_3">
</g>
<path class="st0" d="M35.2,3.3C35.2,3.3,35.1,3.2,35.2,3.3C35.1,3.2,35.2,3.3,35.2,3.3L35.2,3.3z"/>
<g id="Layer_2_1_">
</g>
<g>
	<path class="st1" d="M28.7,26.6c-1,0-1.8,0.6-2.3,1.5H11.9c-2.4,0-4.4-2.1-4.4-4.5s2-4.5,4.4-4.5H14c0-0.5,0.2-1,0.4-1.5
		c0.1-0.1,0.1-0.4,0.2-0.5c1-1.8,2.9-3.1,5.1-3.1c2,0,3.7,1,4.8,2.4c0.6-0.2,1.2-0.5,2-0.6c-1.3-2.3-3.8-3.8-6.7-3.8
		c-3.3,0-6.1,2.1-7.3,5H12c-3.5,0-6.5,2.9-6.5,6.6s2.9,6.5,6.5,6.5h14.5c0.4,0.9,1.2,1.5,2.3,1.5c1.3,0,2.4-1.1,2.4-2.6
		S30.1,26.6,28.7,26.6z M36.7,21.6c-1.5-2.9-4.5-5-7.9-5c-4.3,0-7.8,3.1-8.7,7.1c-2.1,0.2-3.9,1.3-5,2.9h10.6c0.7-1,1.8-1.5,3.1-1.5
		c2.2,0,3.9,1.8,3.9,4s-1.8,4-3.9,4c-1.2,0-2.3-0.6-3.1-1.5H13.9c0.5,3.4,3.4,6.1,6.8,6.1h15.9c4.4,0,7.9-3.5,7.9-8.1
		S41,21.8,36.7,21.6z"/>
</g>
</svg>
