<?xml version="1.0" encoding="utf-8"?>
<!-- Generator: Adobe Illustrator 21.1.0, SVG Export Plug-In . SVG Version: 6.00 Build 0)  -->
<svg version="1.1" id="Layer_1" xmlns="http://www.w3.org/2000/svg"  x="0px" y="0px"
	 viewBox="0 0 50 50" style="enable-background:new 0 0 50 50;" xml:space="preserve">
<g>
	<path d="M31.8,27.1c-1.5,0-2.8,0.7-3.8,1.7l-2.4-1.7c0.2-0.7,0.4-1.4,0.4-2.2c0-0.8-0.1-1.5-0.4-2.2l2.3-1.6c0.9,1,2.3,1.7,3.7,1.7
		c2.8,0,5-2.2,5-5s-2.2-5-5-5s-5,2.2-5,5c0,0.5,0.1,1,0.2,1.4l-2.3,1.6c-1-1.2-2.4-2.1-4-2.3v-2.8c2.3-0.5,4-2.5,4-4.9
		c0-2.8-2.2-5-5-5s-5,2.2-5,5c0,2.4,1.7,4.4,3.9,4.9v2.9c-3,0.5-5.3,3.2-5.3,6.4c0,3.2,2.3,5.9,5.4,6.4v3c-2.2,0.5-3.9,2.5-3.9,4.9
		c0,2.8,2.2,5,5,5s5-2.2,5-5c0-2.4-1.7-4.4-3.9-4.9v-3c1.6-0.3,3-1.1,3.9-2.3l2.4,1.7c-0.1,0.4-0.2,0.9-0.2,1.4c0,2.8,2.2,5,5,5
		s5-2.2,5-5S34.6,27.1,31.8,27.1L31.8,27.1z M31.8,15.4c1.3,0,2.4,1.1,2.4,2.4c0,1.3-1.1,2.4-2.4,2.4s-2.4-1.1-2.4-2.4
		C29.4,16.5,30.5,15.4,31.8,15.4L31.8,15.4z M17.2,10.8c0-1.3,1.1-2.4,2.4-2.4s2.4,1.1,2.4,2.4s-1.1,2.4-2.4,2.4
		S17.2,12.1,17.2,10.8L17.2,10.8z M22.1,39.2c0,1.3-1.1,2.4-2.4,2.4s-2.4-1.1-2.4-2.4s1.1-2.4,2.4-2.4S22.1,37.9,22.1,39.2
		L22.1,39.2z M19.6,28.3c-1.9,0-3.4-1.5-3.4-3.4c0-1.9,1.5-3.4,3.4-3.4c1.9,0,3.4,1.5,3.4,3.4C23,26.8,21.5,28.3,19.6,28.3
		L19.6,28.3z M31.8,34.5c-1.3,0-2.4-1.1-2.4-2.4s1.1-2.4,2.4-2.4s2.4,1.1,2.4,2.4S33.2,34.5,31.8,34.5L31.8,34.5z"/>
</g>
</svg>
