<?xml version="1.0" encoding="utf-8"?>
<!-- Generator: Adobe Illustrator 21.1.0, SVG Export Plug-In . SVG Version: 6.00 Build 0)  -->
<svg version="1.1" id="Layer_1" xmlns="http://www.w3.org/2000/svg" xmlns:xlink="http://www.w3.org/1999/xlink" x="0px" y="0px"
	 viewBox="0 0 50 50" style="enable-background:new 0 0 50 50;" xml:space="preserve">
<style type="text/css">
	.st0{opacity:0.1;fill:#231F20;}
	.st1{fill:#99999A;}
	.st2{fill:#D6D5D5;}
</style>
<g>
	<g>
		<ellipse class="st0" cx="25" cy="29.4" rx="13" ry="2.1"/>
		<g>
			<g>
				<rect x="14.2" y="12.7" class="st1" width="21.2" height="14.7"/>
				<path class="st2" d="M14.2,25.4c1.7,0.7,6.6,1,10.6,1c4,0,8.9-0.3,10.7-1c0.4,0.2,0.6,0.5,0.6,0.9v2.1c0,1.7-6.4,2.4-11.3,2.4
					S13.6,30,13.6,28.4v-2.1C13.6,25.8,13.8,25.5,14.2,25.4z"/>
				<path class="st2" d="M24.8,25.2c4.9,0,11.3-0.5,11.3-1.5v-2.6c0-0.3-0.5-0.6-1.2-0.6H14.8c-0.6,0-1.2,0.3-1.2,0.6v2.6
					C13.6,24.7,19.9,25.2,24.8,25.2z"/>
				<path class="st2" d="M24.9,9.4c4.9,0,11.2,0.8,11.2,2.4v2.1c0,0.4-0.3,0.7-0.6,0.9c-1.7-0.7-6.6-1-10.6-1c-4,0-8.9,0.3-10.7,1
					c-0.4-0.2-0.6-0.5-0.6-0.9v-2.1C13.6,10.1,20,9.4,24.9,9.4z"/>
				<path class="st2" d="M24.9,15c-4.9,0-11.3,0.5-11.3,1.5V19c0,0.3,0.5,0.6,1.2,0.6h20.2c0.6,0,1.2-0.3,1.2-0.6v-2.6
					C36.1,15.4,29.8,15,24.9,15z"/>
				<path class="st0" d="M18,9.8c-1.9,0-1.9,20.5,0,20.5c-2.5-0.4-4.4-1-4.4-2v-2.1c0-0.4,0.3-0.7,0.6-0.9v-1.1
					c-0.4-0.2-0.6-0.3-0.6-0.5v-2.6c0-0.2,0.3-0.4,0.6-0.5v-1c-0.4-0.1-0.6-0.3-0.6-0.5v-2.6c0-0.2,0.2-0.4,0.6-0.5v-1.1
					c0,0,0,0,0,0c-0.4-0.2-0.6-0.5-0.6-0.9v-2.1C13.6,10.9,15.5,10.2,18,9.8z"/>
				<path class="st0" d="M31.7,9.8c1.9,0,1.9,20.5,0,20.5c2.5-0.4,4.4-1,4.4-2v-2.1c0-0.4-0.3-0.7-0.6-0.9v-1.1
					c0.4-0.2,0.6-0.3,0.6-0.5v-2.6c0-0.2-0.3-0.4-0.6-0.5v-1c0.4-0.1,0.6-0.3,0.6-0.5v-2.6c0-0.2-0.2-0.4-0.6-0.5v-1.1c0,0,0,0,0,0
					c0.4-0.2,0.6-0.5,0.6-0.9v-2.1C36.1,10.9,34.2,10.2,31.7,9.8z"/>
			</g>
		</g>
	</g>
</g>
<g>
	<path d="M13.9,40.5c-0.8,0-1.3-0.2-1.9-0.7l0.8-0.8c0.3,0.3,0.5,0.5,1.1,0.5c0.9,0,1.4-0.5,1.4-1.5v-5.2h1.2V38
		C16.5,39.6,15.3,40.5,13.9,40.5z"/>
	<path d="M23.3,39.5c-0.5,0.7-1.2,1-2.2,1h-2.7v-7.7h2.7c1,0,1.6,0.3,2.2,1c0.6,0.7,0.6,1.6,0.6,2.9S23.8,38.8,23.3,39.5z
		 M22.3,34.3c-0.3-0.4-0.8-0.5-1.3-0.5h-1.4v5.6h1.4c0.6,0,1-0.2,1.3-0.5c0.4-0.4,0.4-1.1,0.4-2.3S22.6,34.7,22.3,34.3z"/>
	<path d="M28.7,40.4h-3.1v-7.7h3c1.4,0,2.3,0.8,2.3,2.1c0,0.8-0.5,1.4-1,1.6c0.6,0.2,1.2,0.8,1.2,1.8C31,39.7,30,40.4,28.7,40.4z
		 M28.5,33.8h-1.7V36h1.7c0.7,0,1.3-0.4,1.3-1.1S29.2,33.8,28.5,33.8z M28.6,37h-1.8v2.3h1.8c0.8,0,1.3-0.5,1.3-1.2S29.4,37,28.6,37
		z"/>
	<path d="M35.2,40.5c-0.8,0-1.5-0.3-2-0.8c-0.7-0.8-0.8-1.5-0.8-3.1c0-1.6,0-2.4,0.8-3.1c0.5-0.5,1.1-0.8,2-0.8
		c1.4,0,2.5,0.8,2.7,2.4h-1.2c-0.2-0.8-0.7-1.3-1.6-1.3c-0.5,0-0.9,0.2-1.1,0.5c-0.4,0.4-0.5,0.9-0.5,2.4s0.1,2,0.5,2.4
		c0.3,0.3,0.7,0.5,1.1,0.5c0.9,0,1.4-0.5,1.6-1.3H38C37.7,39.7,36.6,40.5,35.2,40.5z"/>
</g>
</svg>
