<?xml version="1.0" encoding="utf-8"?>
<!-- Generator: Adobe Illustrator 21.1.0, SVG Export Plug-In . SVG Version: 6.00 Build 0)  -->
<svg version="1.1" id="Layer_1" xmlns="http://www.w3.org/2000/svg" xmlns:xlink="http://www.w3.org/1999/xlink" x="0px" y="0px"
	 viewBox="0 0 50 50" style="enable-background:new 0 0 50 50;" xml:space="preserve">
<g>
	<path d="M17.8,32.3l-3.1-5.5l-3.1,5.5H9l4.5-7.4l-4.2-7h2.5l2.8,5.2l2.9-5.2H20l-4.2,7l4.5,7.4H17.8z"/>
	<path d="M25.6,32.3V20.1l-2.8,2.5v-2.3l2.8-2.4h2.1v14.4H25.6z"/>
	<path d="M32.6,32.3v-1.8l5.5-6.7c0.5-0.7,0.8-1.2,0.8-1.9c0-1.3-0.8-2.2-2.1-2.2c-1.1,0-2.1,0.6-2.1,2.2h-2.1
		c0-2.4,1.7-4.1,4.2-4.1c2.5,0,4.2,1.6,4.2,4c0,1.3-0.5,2-1.4,3.1l-4.5,5.5H41v1.8H32.6z"/>
</g>
</svg>
