<?xml version="1.0" encoding="utf-8"?>
<!-- Generator: Adobe Illustrator 21.1.0, SVG Export Plug-In . SVG Version: 6.00 Build 0)  -->
<svg version="1.1" id="Layer_1" xmlns="http://www.w3.org/2000/svg" xmlns:xlink="http://www.w3.org/1999/xlink" x="0px" y="0px"
	 viewBox="0 0 50 50" style="enable-background:new 0 0 50 50;" xml:space="preserve">
<style type="text/css">
	.st0{fill-rule:evenodd;clip-rule:evenodd;fill:#004685;}
</style>
<g id="Layer_3">
</g>
<g id="Layer_2">
</g>
<path class="st0" d="M8.9,34.9C13,35.6,17.5,36,21.8,36c9.3,0,17.5-2,17.5-7.1c0-3-2.9-5.1-13.5-6.3c-4.8-0.5-6-1.3-6-2
	c0-1.4,2-2.3,7.1-2.3c2.2,0,6,0.3,8.8,0.9l3.1-3.8c-4.2-0.9-8.6-1.4-13.3-1.4c-7.9,0-16.9,2-16.9,6.5c0,4.1,4.9,5.4,9.9,6
	c4.8,0.8,9.8,0.9,9.8,2.8c0,2-3.6,2.3-7,2.3c-3,0-7.1-0.5-9.6-0.9L8.9,34.9z"/>
</svg>
