<?xml version="1.0" encoding="utf-8"?>
<!-- Generator: Adobe Illustrator 21.1.0, SVG Export Plug-In . SVG Version: 6.00 Build 0)  -->
<svg version="1.1" id="Layer_1" xmlns="http://www.w3.org/2000/svg" xmlns:xlink="http://www.w3.org/1999/xlink" x="0px" y="0px"
	 viewBox="0 0 50 50" style="enable-background:new 0 0 50 50;" xml:space="preserve">
<style type="text/css">
	.st0{fill:#2671BE;}
	.st1{fill:#FDFDFE;}
	.st2{fill:#FCFDFD;}
</style>
<g id="Layer_3">
</g>
<g id="Layer_2">
</g>
<g>
	<path class="st0" d="M22.4,36.2c-3.5,0-7.1,0-10.6,0c-1.8,0-2.1-0.4-1.7-2.2c1.4-6,2.8-11.9,4.1-17.9c0.4-1.6,1.1-2.3,2.8-2.3
		c7.1,0.1,14.2,0,21.3,0c1.8,0,2.1,0.4,1.7,2.2c-1.3,5.8-2.6,11.7-3.9,17.5c-0.5,2.2-1.1,2.6-3.4,2.6C29.2,36.2,25.8,36.2,22.4,36.2
		z"/>
	<path class="st1" d="M25.4,24.5c-0.2-0.3-0.5-0.6-0.8-0.9c-1.6-1.7-3.1-3.5-4.7-5.2c-0.7-0.8-1-1.5-0.1-2.3
		c0.9-0.8,1.7-0.7,2.5,0.2c2.2,2.5,4.4,4.9,6.7,7.3c0.8,0.9,0.6,1.5-0.3,2.2c-3.5,2.6-7.1,5.2-10.6,7.8c-0.8,0.6-1.5,0.7-2.2-0.1
		c-0.7-1-0.1-1.5,0.7-2.1c2.6-1.9,5.2-3.8,7.8-5.8C24.8,25.3,25.3,25.2,25.4,24.5z"/>
	<path class="st2" d="M26.5,33.7c-1,0-1.9,0-2.9,0c-0.8,0-1.2-0.5-1.2-1.3c0-0.8,0.4-1.3,1.1-1.3c2.1-0.1,4.2,0,6.3,0
		c0.7,0,1.2,0.4,1.1,1.1c0,0.8-0.4,1.4-1.3,1.5C28.7,33.8,27.6,33.7,26.5,33.7C26.5,33.7,26.5,33.7,26.5,33.7z"/>
</g>
</svg>
