<?xml version="1.0" encoding="utf-8"?>
<!-- Generator: Adobe Illustrator 21.1.0, SVG Export Plug-In . SVG Version: 6.00 Build 0)  -->
<svg version="1.1" id="Layer_1" xmlns="http://www.w3.org/2000/svg" xmlns:xlink="http://www.w3.org/1999/xlink" x="0px" y="0px"
	 viewBox="0 0 50 50" style="enable-background:new 0 0 50 50;" xml:space="preserve">
<style type="text/css">
	.st0{fill:#58595A;}
</style>
<g id="Layer_3">
</g>
<g id="Layer_2">
</g>
<g>
	<polygon class="st0" points="32.4,17.9 31.1,17.9 31.1,24.1 23.7,24.1 23.7,25.3 32.3,25.3 32.3,25.2 32.4,25.2 	"/>
	<polygon class="st0" points="23.7,8.6 16.3,8.6 16.3,8.6 15.1,8.6 15.1,16 16.3,16 16.3,9.8 23.7,9.8 	"/>
	<rect x="31.1" y="15.5" class="st0" width="1.2" height="1.2"/>
	<rect x="15.1" y="17.2" class="st0" width="1.2" height="1.2"/>
	<path class="st0" d="M18.8,19.7h-7.4v0.1h0v6.1v1.2h1.2H20V27h0v-6.1v-1.2H18.8z M18.8,25.9h-6.2v-5h6.2V25.9z"/>
	<path class="st0" d="M34.8,6.8h-7.4v0.1h0V13v1.2h1.2H36v-0.1h0V8V6.8H34.8z M34.8,13h-6.2V8h6.2V13z"/>
</g>
<g>
	<path d="M19.4,39.1l-1.6-3.2h-1.5v3.2h-1.2v-7.7h3c1.5,0,2.4,0.9,2.4,2.3c0,1.1-0.7,1.8-1.5,2l1.8,3.4H19.4z M18.1,32.5h-1.7v2.4
		h1.7c0.8,0,1.3-0.4,1.3-1.2C19.4,32.9,18.9,32.5,18.1,32.5z"/>
	<path d="M27.9,39.1V34l-1.8,3.8h-0.9L23.4,34v5.1h-1.2v-7.7h1.2l2.2,4.8l2.2-4.8h1.2v7.7H27.9z"/>
	<path d="M31,39.1v-7.7h1.2v7.7H31z"/>
</g>
</svg>
