<svg width="58" height="58" viewBox="0 0 58 58" fill="none" xmlns="http://www.w3.org/2000/svg">
<path d="M29 58C45.0163 58 58 45.0163 58 29C58 12.9837 45.0163 0 29 0C12.9837 0 0 12.9837 0 29C0 45.0163 12.9837 58 29 58Z" fill="#5F67FA"/>
<path fill-rule="evenodd" clip-rule="evenodd" d="M37.1538 37.9231V21.9231V18.2308H22.3846V17H37.1538H37.1539H37.7692H38.3846V17.0441C40.4651 17.345 42.0769 19.1473 42.0769 21.3077V21.9231H38.3846V37.9231V37.9231C38.3846 37.9349 38.3786 41.6154 34.6923 41.6154L34.6923 41.6154H18.2821C16.4693 41.6154 15 40.238 15 38.5385C15 36.839 16.4693 35.4615 18.2821 35.4615H18.6923V20.6923H19.923V35.4615H34.6923C32.8795 35.4615 31.4103 36.839 31.4103 38.5385C31.4103 39.2312 31.6544 39.8704 32.0663 40.3846H34.6923H34.6923C34.7019 40.3846 37.1538 40.3798 37.1538 37.9231ZM22.3846 18.2308C22.3846 18.2308 19.923 18.2308 19.923 20.6923H18.6923C18.6923 20.6923 18.6923 17 22.3846 17V18.2308ZM28.3821 26.4234C28.5905 26.656 28.5905 27.0363 28.3821 27.2689L24.5254 31.5938C24.4226 31.7108 24.2872 31.7698 24.1492 31.7698C24.0139 31.7698 23.8759 31.7108 23.7717 31.5938C23.5633 31.3612 23.5633 30.9809 23.7717 30.7483L27.2535 26.8468L23.7717 22.944C23.5633 22.7101 23.5633 22.3323 23.7717 22.0984C23.9801 21.8646 24.3184 21.8646 24.5254 22.0984L28.3821 26.4234ZM29.0308 31.7692H32.9692C33.241 31.7692 33.4615 31.4935 33.4615 31.1538C33.4615 30.8141 33.241 30.5385 32.9692 30.5385H29.0308C28.759 30.5385 28.5385 30.8141 28.5385 31.1538C28.5385 31.4935 28.759 31.7692 29.0308 31.7692Z" fill="white"/>
</svg>
