<?xml version="1.0" encoding="utf-8"?>
<!-- Generator: Adobe Illustrator 21.1.0, SVG Export Plug-In . SVG Version: 6.00 Build 0)  -->
<svg version="1.1" id="Layer_1" xmlns="http://www.w3.org/2000/svg" xmlns:xlink="http://www.w3.org/1999/xlink" x="0px" y="0px"
	 viewBox="0 0 50 50" style="enable-background:new 0 0 50 50;" xml:space="preserve">
<style type="text/css">
	.st0{fill:#3A4C74;}
	.st1{fill:#EEEEF2;}
	.st2{fill:#99A9C1;}
</style>
<path class="st0" d="M38,30c0.5,0,0.8-0.4,0.8-1c0-2.9-1.3-8-8.1-8c-6.8,0-8.1,5.2-8.1,8c0,0.5,0.3,1,0.8,1"/>
<circle class="st0" cx="30.6" cy="16.5" r="6.5"/>
<circle class="st1" cx="30.6" cy="16.5" r="5.1"/>
<path class="st2" d="M24.9,28.6c-0.5,0-0.7-0.2-0.7-0.7c0.1-2.4,1.5-4.2,3.7-5.1c0.1-0.1,0.3-0.1,0.4,0c1.5,0.6,3.1,0.6,4.7,0
	c0.2-0.1,0.4,0,0.6,0.1c1.3,0.6,2.4,1.4,3.1,2.7c0.4,0.8,0.5,1.6,0.5,2.5c0,0.3-0.4,0.5-0.8,0.5C35.7,28.6,28.1,28.6,24.9,28.6z"/>
<path class="st0" d="M26.6,35.7c0.5,0,0.8-0.4,0.8-1c0-2.9-1.3-8-8.1-8c-6.8,0-8.1,5.2-8.1,8c0,0.5,0.3,1,0.8,1"/>
<circle class="st0" cx="19.2" cy="22.1" r="6.5"/>
<circle class="st1" cx="19.2" cy="22.1" r="5.1"/>
<path class="st2" d="M13.5,34.3c-0.5,0-0.7-0.2-0.7-0.7c0.1-2.4,1.5-4.2,3.7-5.1c0.1-0.1,0.3-0.1,0.4,0c1.5,0.6,3.1,0.6,4.7,0
	c0.2-0.1,0.4,0,0.6,0.1c1.3,0.6,2.4,1.4,3.1,2.7c0.4,0.8,0.5,1.6,0.5,2.5c0,0.3-0.4,0.5-0.8,0.5C24.3,34.3,16.7,34.3,13.5,34.3z"/>
</svg>
