<?xml version="1.0" encoding="utf-8"?>
<!-- Generator: Adobe Illustrator 21.1.0, SVG Export Plug-In . SVG Version: 6.00 Build 0)  -->
<svg version="1.1" id="Layer_1" xmlns="http://www.w3.org/2000/svg" xmlns:xlink="http://www.w3.org/1999/xlink" x="0px" y="0px"
	 viewBox="0 0 50 50" style="enable-background:new 0 0 50 50;" xml:space="preserve">
<style type="text/css">
	.st0{fill:#668B66;}
	.st1{fill:#FFFFFF;}
</style>
<g>
	<path class="st0" d="M25,7.4c10.3,0,18.7,7.7,18.7,17.5c0,9.8-8.6,17.8-19.2,17.6C14.7,42.3,6.3,34.7,6.3,25
		C6.3,15.3,14.7,7.4,25,7.4z M22.2,9.8c-0.1,0-0.1,0-0.2,0.1c-1,0.8-2,1.6-2.8,2.6c-0.2,0.2-0.6,0.4-0.5,0.6
		c0.1,0.2,0.5,0.2,0.8,0.2c0.2,0,0.3,0.1,0.4-0.1C20.7,12,21.5,10.9,22.2,9.8C22.3,9.8,22.3,9.8,22.2,9.8
		C22.3,9.8,22.3,9.8,22.2,9.8z M27.6,9.1C27.5,9,27.5,8.9,27.4,9c0,0,0,0.1,0.1,0.2c1,1,1.9,1.9,2.8,2.9c0.5,0.5,0.5,0.5,1.2,0.2
		c0.1,0,0.1-0.1,0.2-0.1c0.3-0.1,0.2-0.2,0-0.4c-0.4-0.3-0.8-0.6-1.2-0.9C29.6,10.3,28.7,9.6,27.6,9.1z M22.7,8.3
		c-0.9,0.3-1.6,0.8-2.4,1.2c-1.4,0.7-2.6,1.6-3.9,2.5c-0.2,0.2-0.3,0.3,0,0.4c0.3,0.1,0.7,0.2,1,0.4c0.2,0.1,0.4,0,0.6-0.2
		c0.5-0.6,1.1-1.2,1.7-1.8C20.7,10,21.8,9.2,22.7,8.3c0.1,0,0.1,0,0.1,0C22.8,8.3,22.8,8.3,22.7,8.3z M24.1,24.4c-0.7,0-1.2,0-1.7,0
		c-0.2,0-0.3,0.1-0.3,0.3c0,0.3,0,0.6,0,0.9c0,1.3,0.2,2.5,0.3,3.8c0,0.3,0.1,0.3,0.4,0.3c0.8,0,1.5,0,2.3,0c0.8,0,1.6-0.1,2.3-0.2
		c0.2,0,0.3-0.1,0.3-0.3c-0.2-1.5-0.3-3-0.4-4.5c0-0.3-0.1-0.3-0.4-0.3C26,24.3,25,24.3,24.1,24.4z M28,33.6L28,33.6
		c0-1.1-0.1-2.2-0.2-3.3c0-0.2-0.1-0.3-0.3-0.2c-0.1,0-0.3,0-0.4,0c-1.2,0.1-2.4,0.2-3.6,0.2c-0.9,0-1,0-0.8,0.8
		c0.2,1.3,0.4,2.7,0.6,4c0,0.2,0.1,0.3,0.3,0.3c1.4,0,2.8-0.1,4.2-0.3c0.3,0,0.3-0.1,0.3-0.4C28,34.5,28,34.1,28,33.6z M22.1,35.5
		c0.3,0,0.5,0,0.4-0.3c-0.3-1.5-0.5-3-0.7-4.6c0-0.2-0.1-0.3-0.3-0.3c-1.4-0.1-2.9-0.3-4.3-0.6c-0.3-0.1-0.3,0-0.3,0.3
		c0.2,1.5,0.4,3,0.8,4.5c0,0.2,0.1,0.3,0.3,0.3C19.4,35.1,20.8,35.3,22.1,35.5z M21.2,29.5c0.2,0,0.5,0.1,0.4-0.3
		c-0.2-1.5-0.3-3.1-0.3-4.6c0-0.2,0-0.3-0.2-0.3c-1.2-0.1-2.4-0.2-3.6-0.4c-0.4-0.1-0.5,0.1-0.5,0.4c-0.1,1.4-0.2,2.8-0.1,4.2
		c0,0.2,0.1,0.3,0.3,0.3C18.5,29.2,19.9,29.4,21.2,29.5z M33.2,27.9c-0.2-1.4-0.4-2.8-0.7-4.2c-0.1-0.3-0.2-0.4-0.5-0.3
		c-1.2,0.3-2.3,0.5-3.5,0.6c-0.4,0-0.5,0.2-0.5,0.6c0.2,1.4,0.3,2.9,0.4,4.3c0,0.2,0.1,0.3,0.3,0.3c1.4-0.2,2.8-0.6,4.2-1
		C33.2,28.1,33.3,28,33.2,27.9z M33.2,29.3c0-0.3,0-0.3-0.3-0.2c-1.2,0.4-2.3,0.6-3.5,0.8c-0.8,0.1-0.8,0.2-0.8,1c0,0.1,0,0.2,0,0.2
		c0.1,1.2,0.1,2.4,0.2,3.6c0,0.3,0.1,0.3,0.4,0.3c1.3-0.3,2.6-0.7,3.9-1.2c0.2-0.1,0.3-0.2,0.3-0.4C33.3,32.7,33.2,29.9,33.2,29.3z
		 M24,23.7c0.9,0,1.8-0.1,2.8-0.1c0.3,0,0.4-0.1,0.3-0.4c-0.1-1.1-0.3-2.2-0.4-3.3c0-0.2-0.1-0.3-0.4-0.3c-1.3,0.1-2.6,0.2-3.9,0.1
		c-0.2,0-0.3,0-0.3,0.2c0,1.2-0.1,2.4-0.1,3.6c0,0.2,0.1,0.3,0.4,0.3C22.9,23.6,23.4,23.7,24,23.7z M38.2,30.3c0-1-0.2-1.9-0.3-2.8
		c-0.1-0.5-0.1-0.5-0.5-0.3c-0.9,0.5-1.8,0.9-2.8,1.2c-0.6,0.2-0.6,0.2-0.5,0.8c0.1,1.2,0.1,2.5,0,3.7c0,0.1-0.1,0.2,0,0.3
		c0.1,0.1,0.2,0,0.3-0.1c1.2-0.6,2.3-1.2,3.3-2C38.1,31,38.3,30.7,38.2,30.3z M24.4,14.3C24.4,14.3,24.4,14.3,24.4,14.3
		c-0.4,0-0.8,0.1-1.2,0c-0.2,0-0.3,0-0.3,0.2c-0.2,1.2-0.4,2.3-0.5,3.5c-0.1,0.8-0.1,0.8,0.8,0.8c1,0,2.1,0,3.1-0.1
		c0.3,0,0.5-0.1,0.4-0.4c-0.1-0.3-0.1-0.5-0.1-0.8c-0.2-1-0.3-2-0.5-3c0-0.2-0.1-0.3-0.3-0.2C25.2,14.3,24.8,14.3,24.4,14.3z
		 M12.7,28.6c0.1,1.4,0.3,2.8,0.6,4.1c0,0.2,0.1,0.3,0.3,0.4c1,0.5,2,0.9,3.1,1.3c0.3,0.1,0.3,0,0.3-0.2c-0.4-1.5-0.6-2.9-0.7-4.4
		c0-0.2-0.1-0.3-0.3-0.4c-1-0.2-1.9-0.6-2.8-0.9C12.8,28.3,12.6,28.3,12.7,28.6z M27.5,19.7c0.1,1.2,0.3,2.4,0.4,3.5
		c0,0.2,0.1,0.2,0.3,0.2c1.2-0.2,2.5-0.4,3.7-0.7c0.3-0.1,0.3-0.2,0.2-0.4c-0.3-1.1-0.7-2.2-1.1-3.2c-0.1-0.2-0.2-0.3-0.5-0.2
		c-1,0.2-1.9,0.4-2.9,0.5C27.5,19.4,27.4,19.5,27.5,19.7z M21.4,20.1c0-0.6,0-0.6-0.6-0.7c-0.8-0.1-1.6-0.2-2.4-0.3
		c-0.3-0.1-0.3,0-0.4,0.2c-0.3,1.1-0.6,2.2-0.8,3.4c-0.1,0.4,0,0.5,0.4,0.5c1.1,0.1,2.3,0.3,3.4,0.4c0.3,0,0.4,0,0.4-0.3
		C21.3,22.3,21.3,21.2,21.4,20.1z M33.2,23.3C33.2,23.3,33.2,23.3,33.2,23.3c0.3,1.5,0.6,2.9,0.8,4.3c0,0.2,0.2,0.1,0.3,0.1
		c1.1-0.4,2.1-0.9,3.2-1.4c0.2-0.1,0.2-0.2,0.2-0.3c-0.3-1.2-0.7-2.4-1.2-3.5c-0.1-0.2-0.2-0.2-0.4-0.2c-0.8,0.3-1.7,0.6-2.5,0.8
		C33.3,23.1,33.1,23.1,33.2,23.3z M12.7,26.6c0,0.1,0,0.2,0,0.3c-0.1,0.4,0.1,0.6,0.5,0.8c0.8,0.3,1.6,0.6,2.4,0.8
		c0.5,0.1,0.5,0.1,0.5-0.4c-0.1-1.3,0-2.7,0.1-4c0-0.3,0-0.4-0.3-0.4c-0.8-0.2-1.6-0.3-2.4-0.6c-0.3-0.1-0.4,0-0.4,0.2
		C12.9,24.4,12.7,25.5,12.7,26.6z M8.6,24.7c0,0.2,0.1,0.2,0.1,0.3c0.9,0.7,1.9,1.4,3,1.9c0.2,0.1,0.3,0.1,0.3-0.2
		c0-1.3,0.2-2.6,0.5-3.8c0-0.1,0-0.2-0.1-0.3c-1-0.4-1.9-0.7-2.8-1.2c-0.1-0.1-0.2,0-0.3,0.1C8.9,22.6,8.7,23.6,8.6,24.7z M12,16.6
		c-0.1,0-0.2,0.1-0.3,0.2c-0.8,1.1-1.5,2.3-2,3.6c-0.1,0.2-0.1,0.3,0.1,0.4c0.8,0.4,1.7,0.8,2.6,1.1c0.2,0.1,0.3,0,0.4-0.2
		c0.4-1.2,0.8-2.4,1.4-3.6c0.1-0.2,0.1-0.3-0.2-0.4c-0.7-0.3-1.3-0.6-1.9-1C12.1,16.7,12,16.7,12,16.6z M8.5,25.9
		c0,1.2,0,2.2,0.1,3.3c0,0.2,0.1,0.4,0.3,0.6c0.6,0.6,1.3,1.2,2,1.7c0.5,0.3,0.9,0.7,1.5,0.9c0.1-0.2,0-0.3,0-0.4
		c-0.2-1-0.4-2.1-0.4-3.1c0-0.7-0.2-1.2-1-1.4c-0.1,0-0.1-0.1-0.2-0.1C10,27,9.3,26.4,8.5,25.9z M28.1,37.5
		C28.1,37.5,28.1,37.5,28.1,37.5c0-0.4,0-0.8,0-1.1c0-0.3-0.1-0.4-0.4-0.3c-1.3,0.2-2.6,0.3-3.9,0.3c-0.3,0-0.3,0.1-0.3,0.3
		c0.2,0.8,0.3,1.6,0.5,2.3c0,0.2,0.1,0.3,0.4,0.3c1.2,0,2.3-0.1,3.5-0.3c0.3,0,0.3-0.1,0.3-0.4C28.1,38.2,28.1,37.9,28.1,37.5z
		 M22.5,39.2c0.8,0,0.8,0,0.7-0.6c-0.1-0.6-0.3-1.3-0.4-1.9c0-0.4-0.2-0.5-0.6-0.5c-1.3-0.1-2.5-0.3-3.7-0.5c-0.4-0.1-0.4,0-0.3,0.3
		c0.3,0.9,0.6,1.7,0.9,2.5c0.1,0.2,0.2,0.3,0.4,0.3C20.5,39,21.6,39.2,22.5,39.2z M27.5,18.7c1-0.1,2-0.3,3-0.5
		c0.2,0,0.1-0.1,0.1-0.2c-0.6-1.3-1.1-2.6-1.8-3.8c-0.1-0.2-0.2-0.2-0.3-0.1c-0.5,0.1-1,0.2-1.5,0.2c-0.2,0-0.2,0.1-0.2,0.3
		c0.2,1.3,0.4,2.7,0.6,4C27.3,18.6,27.4,18.7,27.5,18.7z M16.2,23c0.2,0,0.2-0.1,0.2-0.2c0.2-1.2,0.5-2.5,0.9-3.7
		c0-0.2,0-0.2-0.2-0.3c-0.6-0.2-1.3-0.3-1.9-0.6c-0.2-0.1-0.3,0-0.4,0.1c-0.6,1.2-1.1,2.4-1.4,3.6c0,0.1-0.1,0.2,0.1,0.3
		C14.4,22.6,15.3,22.8,16.2,23z M28.9,37.3C28.9,37.3,28.9,37.3,28.9,37.3c0,0.4,0,0.8,0,1.2c0,0.2,0,0.3,0.3,0.3
		c1.1-0.2,2.2-0.6,3.3-1c0.1-0.1,0.2-0.1,0.2-0.3c0.2-0.8,0.3-1.7,0.4-2.5c0-0.3-0.1-0.3-0.3-0.2c-1.2,0.4-2.4,0.8-3.7,1
		c-0.2,0-0.3,0.1-0.3,0.3C28.9,36.5,28.9,36.9,28.9,37.3z M38.2,32c-0.1,0-0.2,0-0.2,0c-1.2,0.8-2.4,1.6-3.8,2.1
		c-0.2,0.1-0.2,0.2-0.2,0.4c-0.1,0.8-0.2,1.5-0.3,2.3c0,0.1-0.1,0.3,0,0.3c0.1,0.1,0.3,0,0.4-0.1c1.3-0.6,2.5-1.3,3.7-2.2
		c0.1-0.1,0.2-0.1,0.2-0.2C38.1,33.8,38.2,32.9,38.2,32z M21,18.8c0.3,0,0.5,0.2,0.5-0.2c0.1-1.4,0.3-2.7,0.6-4c0-0.2,0-0.3-0.2-0.3
		c-0.5,0-0.9-0.1-1.4-0.1c-0.2,0-0.2,0-0.3,0.2c-0.7,1.2-1.3,2.5-1.7,3.8c-0.1,0.2,0,0.3,0.2,0.4C19.4,18.6,20.2,18.7,21,18.8z
		 M40.7,23.8C40.7,23.8,40.7,23.8,40.7,23.8c-0.3-1.1-0.7-2-1.2-3c-0.1-0.2-0.2-0.2-0.3-0.1c-0.7,0.4-1.4,0.7-2.1,1
		c-0.2,0.1-0.3,0.2-0.2,0.4c0.5,1.1,0.9,2.2,1.2,3.3c0.1,0.2,0.1,0.3,0.4,0.2c0.7-0.5,1.4-1,2-1.5C40.6,24,40.7,23.9,40.7,23.8z
		 M35.8,21.5c0-0.1,0-0.1-0.1-0.2c-0.5-1.1-1.1-2.2-1.8-3.2c-0.1-0.2-0.2-0.2-0.4-0.1c-0.5,0.2-1.1,0.4-1.6,0.5
		c-0.2,0.1-0.2,0.2-0.2,0.3c0.4,1.1,0.8,2.2,1.1,3.4c0,0.2,0.1,0.3,0.4,0.2c0.8-0.2,1.6-0.5,2.4-0.8C35.7,21.6,35.8,21.6,35.8,21.5z
		 M39,20C39,19.9,39,19.9,39,20c-0.7-1.2-1.4-2.2-2.3-3.3c-0.1-0.1-0.2-0.1-0.3,0c-0.5,0.3-1.1,0.6-1.6,0.8
		c-0.2,0.1-0.2,0.1-0.1,0.3c0.7,1.1,1.3,2.1,1.8,3.3c0.1,0.2,0.2,0.2,0.3,0.1c0.7-0.3,1.4-0.6,2.1-1C38.9,20.1,39,20.1,39,20z
		 M13.8,36.9c0-0.2,0-0.3-0.1-0.4c-0.3-0.8-0.6-1.7-0.8-2.5c-0.1-0.2-0.2-0.4-0.4-0.5c-1.1-0.6-2.2-1.3-3.1-2.2
		c-0.1-0.1-0.2-0.2-0.4-0.2c0.2,1.1,0.5,2.1,0.9,3.1c0.1,0.1,0.2,0.3,0.3,0.4C11.2,35.4,12.4,36.2,13.8,36.9z M17.2,13.5
		c0-0.1-0.1-0.1-0.2-0.2c-0.4-0.2-0.9-0.3-1.3-0.5c-0.2-0.1-0.3,0-0.4,0.1c-1,0.9-1.9,1.8-2.8,2.8c-0.2,0.2-0.1,0.3,0.1,0.5
		c0.6,0.3,1.1,0.7,1.7,0.9c0.2,0.1,0.4,0.1,0.5-0.1c0.7-1.2,1.4-2.3,2.3-3.3C17.2,13.6,17.2,13.6,17.2,13.5z M13.7,34.1
		c0,0.1,0,0.1,0,0.2c0.3,1,0.7,2,1.1,3c0.1,0.2,0.2,0.2,0.3,0.3c0.8,0.3,1.7,0.6,2.5,0.9c0.2,0.1,0.4,0.2,0.6,0.1c-0.4-1-0.7-2-1-3
		c0-0.1-0.1-0.1-0.2-0.2C16,35,14.9,34.6,13.7,34.1z M38.9,30.2c0.1-0.1,0.2-0.1,0.2-0.1c0.8-0.7,1.5-1.5,2.1-2.3
		c0.1-0.1,0.1-0.2,0.1-0.2c0-0.9-0.2-1.8-0.4-2.7c-0.8,0.7-1.6,1.2-2.4,1.7c-0.1,0.1-0.1,0.2-0.1,0.3C38.7,27.9,38.9,29,38.9,30.2z
		 M17.4,18.2c0.2,0.1,0.2-0.1,0.2-0.2c0.4-1.3,1-2.5,1.6-3.6c0.1-0.2,0.1-0.3-0.2-0.4c-1.1-0.2-1.1-0.2-1.7,0.6c0,0,0,0,0,0
		c-0.7,0.9-1.3,1.8-1.9,2.7c-0.1,0.1-0.2,0.3,0,0.4C16.2,17.8,16.8,18,17.4,18.2z M34.2,16.9c0.1,0,0.1,0,0.2-0.1
		c0.4-0.2,0.9-0.4,1.3-0.6c0.3-0.1,0.3-0.3,0.1-0.5c-0.8-0.8-1.6-1.6-2.4-2.4c-0.8-0.7-0.8-0.7-1.8-0.3c0,0,0,0-0.1,0
		c-0.2,0.1-0.2,0.2-0.1,0.3c0.9,1.1,1.8,2.2,2.5,3.4C34.1,16.9,34.1,16.9,34.2,16.9z M24.9,8.6c-0.9,1.5-1.4,3.1-1.8,4.8
		c-0.1,0.2,0.1,0.3,0.3,0.3c0.7,0,1.4,0,2,0c0.4,0,0.4-0.1,0.4-0.4c-0.2-0.9-0.3-1.7-0.5-2.6C25.1,9.9,25,9.3,24.9,8.6z M33.4,17.2
		c-0.1-0.1-0.1-0.2-0.2-0.3c-0.7-1-1.4-1.9-2.1-2.9c-0.5-0.7-0.5-0.7-1.4-0.4c-0.2,0.1-0.2,0.2-0.1,0.3c0.7,1.2,1.2,2.4,1.8,3.7
		c0.1,0.2,0.2,0.2,0.3,0.2c0.5-0.2,1-0.3,1.5-0.5C33.3,17.3,33.4,17.3,33.4,17.2z M28.1,40.7c0-0.2,0-0.4,0-0.6
		c0-0.3-0.1-0.4-0.4-0.3c-1.1,0.2-2.2,0.3-3.3,0.3c-0.2,0-0.3,0.1-0.2,0.3c0.1,0.4,0.2,0.8,0.3,1.3c0,0.3,0.2,0.4,0.4,0.3
		c0.7-0.1,1.4-0.1,2.1-0.1C28.1,41.6,28.1,41.6,28.1,40.7z M41,18.8c-0.1-0.1-0.1-0.2-0.1-0.3c-0.5-0.9-1.1-1.7-1.8-2.5
		c-0.6-0.7-0.6-0.7-1.3-0.2c-0.1,0.1-0.2,0.1-0.3,0.2c-0.2,0.1-0.2,0.2-0.1,0.4c0.8,1,1.6,2,2.2,3.1c0.1,0.1,0.1,0.2,0.3,0.1
		c0.3-0.2,0.7-0.5,1-0.7C40.9,18.9,40.9,18.8,41,18.8z M23.6,41.8c0.3,0.1,0.3-0.1,0.2-0.3c0-0.1-0.1-0.2-0.1-0.3
		c-0.1-0.3-0.1-0.8-0.3-1c-0.2-0.3-0.7-0.1-1.1-0.1c0,0-0.1,0-0.1,0c-0.8-0.1-1.6-0.2-2.4-0.3c-0.1,0-0.3-0.1-0.3,0.1
		c0.2,0.5,0.4,1,0.7,1.4c0,0.1,0.1,0.1,0.2,0.1C21.5,41.6,22.5,41.7,23.6,41.8z M37.5,36.1c-0.1,0-0.1,0-0.1,0
		c-1.2,0.8-2.5,1.5-3.9,2.1c-0.1,0-0.2,0.1-0.2,0.1c-0.2,0.6-0.3,1.2-0.5,1.8c0.2-0.1,0.4-0.2,0.5-0.2c1.1-0.5,2-1.2,3-1.8
		C37.1,37.6,37.4,36.9,37.5,36.1z M32.5,38.6c-1.2,0.4-2.3,0.7-3.4,0.9c-0.2,0-0.2,0.1-0.2,0.3c0,0.4,0,0.9,0,1.3
		c0,0.3,0.1,0.3,0.3,0.3c0.9-0.2,1.7-0.5,2.5-0.8c0.1,0,0.2-0.1,0.3-0.2C32.2,39.8,32.3,39.3,32.5,38.6z M10.5,15.3
		c-0.2,0-0.3,0.2-0.3,0.3c-0.8,1-1.4,2.2-1.9,3.3c-0.4,0.9-0.4,0.6,0.4,1.2c0.3,0.2,0.3,0.1,0.5-0.1c0.5-1.1,1.1-2.2,1.8-3.2
		c0.5-0.7,0.5-0.4-0.1-1.1C10.7,15.5,10.6,15.4,10.5,15.3z M34,11.6c-0.2,0.1-0.3,0.3-0.5,0.4c-0.2,0.1-0.2,0.2,0,0.4
		c0.9,0.8,1.8,1.6,2.6,2.5c0.7,0.8,0.7,0.8,1.6,0.1c0.2-0.2,0.2-0.3,0-0.5c-1.1-1-2.2-1.9-3.4-2.7C34.2,11.7,34.1,11.7,34,11.6z
		 M41.3,29c-0.8,0.8-1.5,1.6-2.3,2.2C39,31.3,39,31.3,39,31.4c0,0.8-0.1,1.7-0.2,2.5c0.2,0,0.3-0.1,0.4-0.2c0.5-0.4,0.9-0.9,1.4-1.4
		c0.4-0.4,0.6-0.9,0.7-1.5C41.3,30.2,41.4,29.7,41.3,29z M14.8,12.4c0-0.1-0.1-0.1-0.1-0.1c-0.1-0.1-0.3-0.2-0.4-0.3
		c-0.2-0.2-0.4-0.2-0.7,0c-0.8,0.6-1.5,1.3-2.2,2c-0.7,0.8-0.7,0.5,0,1.3c0.2,0.3,0.4,0.3,0.6,0c0.8-0.9,1.6-1.8,2.6-2.6
		C14.7,12.5,14.7,12.5,14.8,12.4z M41.4,23.3c0.4-0.3,0.6-0.7,0.9-1c0.1-0.1,0.1-0.2,0-0.4c-0.2-0.7-0.5-1.5-0.9-2.2
		c-0.1-0.2-0.2-0.2-0.4-0.1c-0.3,0.2-0.5,0.4-0.8,0.5c-0.2,0.1-0.2,0.2-0.1,0.4c0.4,0.7,0.7,1.4,1,2.2
		C41.2,22.9,41.2,23.1,41.4,23.3z M25.9,9.6c-0.1,0.1,0,0.1,0,0.2c0.2,1,0.4,2,0.5,3c0.1,0.7,0.1,0.7,0.8,0.6c0.2,0,0.5-0.1,0.7-0.1
		c0.3,0,0.3-0.1,0.2-0.4c-0.6-1-1.3-2.1-2-3.1C26.1,9.8,26,9.6,25.9,9.6z M15.4,38.5c0,0.3,0.3,0.5,0.2,0.7c-0.2,0.3,0,0.3,0.1,0.3
		c0.7,0.4,1.5,0.8,2.3,1.1c0.4,0.1,0.8,0.3,1.3,0.4c-0.2-0.5-0.4-1-0.6-1.4c0-0.1-0.1-0.1-0.2-0.2C17.5,39.2,16.5,38.8,15.4,38.5z
		 M23.4,9.8c-0.4,0.2-0.6,0.6-0.9,0.9c-0.6,0.8-1.2,1.6-1.7,2.5c-0.1,0.2-0.1,0.3,0.2,0.3c0.3,0,0.7,0,1,0.1c0.2,0,0.3-0.1,0.4-0.3
		c0.1-0.5,0.3-1.1,0.4-1.6C23,11.1,23.2,10.4,23.4,9.8z M19.8,8.9c-0.4,0-0.7,0.1-1,0.2c-1.4,0.5-2.8,1.1-4,1.9
		c-0.1,0.1-0.3,0.1-0.2,0.2c0.1,0.3,0.8,0.5,1.1,0.4c1.1-0.8,2.2-1.6,3.3-2.3C19.3,9.3,19.5,9.1,19.8,8.9z M7.8,24.1
		c0.1-0.1,0.1-0.2,0.1-0.3c0.1-0.7,0.3-1.5,0.5-2.2c0.2-0.7,0.2-0.7-0.5-1.2c-0.2-0.1-0.3-0.1-0.3,0.1c-0.2,0.7-0.3,1.4-0.5,2.1
		C7,23.4,7.3,23.8,7.8,24.1z M42,26.5c0.9-0.9,1.1-2.2,0.6-3.3c-0.3,0.3-0.6,0.6-0.9,0.9c-0.1,0.1-0.1,0.2-0.1,0.3
		C41.8,25.1,41.9,25.8,42,26.5z M29,9c0.4,0.2,0.7,0.5,1,0.7c0.8,0.6,1.6,1.2,2.4,1.8c0.3,0.2,0.6,0.1,0.8-0.2
		c0.2-0.3-0.2-0.3-0.3-0.4c-1.1-0.7-2.4-1.3-3.6-1.9C29.2,9,29.1,8.9,29,9z M27.1,9.9c0,0.1,0.1,0.2,0.1,0.3c0.5,0.8,1,1.6,1.5,2.4
		c0.4,0.7,0.2,0.5,1,0.4c0.2-0.1,0.3-0.1,0.1-0.4c-0.8-0.9-1.6-1.8-2.5-2.6C27.3,9.9,27.2,9.9,27.1,9.9z M34.8,10.9
		c-0.1,0-0.2,0.1-0.2,0.2c-0.1,0.2,0.1,0.2,0.2,0.3c0.9,0.6,1.7,1.2,2.5,1.9c0.3,0.3,0.7,0.6,1,0.9c0.1,0.1,0.2,0.2,0.3,0.1
		c0.1-0.1,0.1-0.2,0-0.3c-0.1-0.1-0.1-0.1-0.2-0.2c-1-1-2.1-1.9-3.3-2.7C34.9,10.9,34.9,10.9,34.8,10.9z M7.1,24.7
		C7,24.8,7,24.9,7,25c0,0.9,0.1,1.8,0.2,2.7c0,0.2,0.2,0.4,0.5,0.6c-0.1-0.9-0.1-1.7,0-2.5C7.7,25.3,7.5,24.9,7.1,24.7z M38.4,36.2
		c0.7-0.7,1.4-1.5,1.9-2.3c-0.5,0.3-0.9,0.7-1.3,1.1C38.4,35.3,38.4,35.8,38.4,36.2z M42.8,27.1c-0.3,0.4-0.7,0.7-0.6,1.2
		c0,0.5,0,1.1,0,1.7C42.5,29.1,42.7,28.1,42.8,27.1z M14.6,38.7c-0.2-1-1.1-1-1.7-1.4C13.4,37.9,13.9,38.3,14.6,38.7z M31.9,9.5
		c0.6,0.4,1.2,0.7,1.9,1.1c0.1,0.1,0.2,0,0.2-0.1c0.1-0.1,0-0.2-0.1-0.2c-0.2-0.1-0.5-0.3-0.7-0.4C32.8,9.8,32.4,9.6,31.9,9.5z
		 M40.4,16.6c0.1-0.1,0.1-0.2,0-0.3c-0.3-0.5-0.7-1-1.1-1.5c-0.1-0.1-0.1-0.2-0.3-0.1c-0.1,0.1,0,0.2,0,0.3
		C39.5,15.5,40,16,40.4,16.6z"/>
</g>
<g>
	<rect x="12.2" y="19" width="25.6" height="11.9"/>
	<g>
		<path class="st1" d="M17.9,21.9v7.4h-1.4v-7.4h-2.5v-1.2h6.3v1.2H17.9z"/>
		<path class="st1" d="M24.6,29.3c-1,0-1.7-0.3-2.3-0.9c-0.9-0.8-0.9-1.7-0.9-3.5c0-1.8,0-2.6,0.9-3.5c0.6-0.6,1.3-0.9,2.3-0.9
			c1.7,0,2.9,0.9,3.2,2.6h-1.4c-0.2-0.9-0.8-1.5-1.8-1.5c-0.5,0-1,0.2-1.3,0.5c-0.5,0.5-0.5,1-0.5,2.7s0.1,2.2,0.5,2.7
			c0.3,0.3,0.8,0.5,1.3,0.5c1,0,1.6-0.6,1.8-1.5h1.4C27.5,28.4,26.2,29.3,24.6,29.3z"/>
		<path class="st1" d="M33,25.9h-2v3.4h-1.4v-8.5H33c1.8,0,2.9,1.1,2.9,2.6C35.9,24.8,34.8,25.9,33,25.9z M32.9,21.9h-2v2.8h2
			c1,0,1.6-0.5,1.6-1.4C34.5,22.4,33.9,21.9,32.9,21.9z"/>
	</g>
</g>
</svg>
