<?xml version="1.0" standalone="no"?>
<!DOCTYPE svg PUBLIC "-//W3C//DTD SVG 20010904//EN"
 "http://www.w3.org/TR/2001/REC-SVG-20010904/DTD/svg10.dtd">
<svg version="1.0" xmlns="http://www.w3.org/2000/svg"
 width="1360.000000pt" height="680.000000pt" viewBox="0 0 1360.000000 680.000000"
 preserveAspectRatio="xMidYMid meet">

<g transform="translate(0.000000,680.000000) scale(0.100000,-0.100000)"
fill="#000000" stroke="none">
<path d="M1526 5274 c-14 -14 -16 -131 -16 -1135 0 -1008 2 -1120 16 -1126 11
-4 106 85 327 304 324 322 395 380 497 410 109 32 260 -1 631 -138 226 -84
249 -89 249 -63 0 12 -105 124 -260 279 l-260 260 -128 -1 c-218 -3 -435 -53
-604 -141 -40 -21 -76 -39 -80 -41 -5 -2 -8 291 -8 651 0 610 -1 655 -17 669
-15 13 -291 88 -322 88 -5 0 -17 -7 -25 -16z"/>
<path d="M4475 5252 c-77 -21 -146 -41 -152 -45 -18 -12 -19 -3667 -1 -3685 8
-8 61 -12 174 -12 134 0 165 3 178 16 14 14 16 198 16 1874 0 1676 -2 1860
-16 1874 -21 22 -38 20 -199 -22z"/>
<path d="M11873 5252 c-78 -21 -147 -42 -152 -47 -7 -7 -12 -188 -13 -525 l-3
-515 -395 -6 c-437 -7 -512 -15 -680 -72 -307 -105 -504 -328 -589 -667 -46
-183 -54 -287 -49 -650 4 -285 7 -338 27 -433 50 -243 129 -405 265 -545 144
-148 350 -239 616 -272 125 -15 1162 -14 1178 2 17 17 17 3739 0 3756 -18 18
-49 14 -205 -26z m-168 -2417 l0 -960 -395 0 c-449 0 -487 5 -630 76 -173 87
-268 259 -299 543 -14 123 -14 565 0 681 47 396 208 574 558 615 36 4 224 7
416 6 l350 -1 0 -960z"/>
<path d="M5960 4154 c-527 -46 -749 -228 -837 -687 -16 -80 -18 -152 -18 -542
0 -395 2 -462 18 -550 54 -290 169 -507 342 -648 81 -65 239 -142 356 -171
151 -39 261 -46 678 -46 341 0 392 2 405 16 9 8 16 21 16 27 0 29 -74 284 -87
299 -13 15 -56 17 -416 21 -446 4 -482 8 -612 71 -38 18 -89 50 -112 70 -122
107 -199 322 -206 581 l-2 90 838 5 c730 4 839 7 848 20 17 25 5 636 -15 748
-37 211 -104 358 -212 466 -109 110 -266 180 -473 212 -93 14 -420 26 -511 18z
m444 -378 c266 -59 380 -233 388 -596 l3 -125 -655 0 -655 0 2 130 c5 388 138
560 468 604 96 13 365 5 449 -13z"/>
<path d="M7598 4150 c-17 -10 -18 -84 -18 -1313 0 -1000 3 -1306 12 -1315 15
-15 325 -17 348 -2 13 8 16 150 20 1142 l5 1133 405 -1 c446 0 492 -5 616 -63
115 -54 183 -149 220 -311 16 -68 18 -164 21 -980 3 -621 7 -908 15 -917 16
-20 341 -18 357 1 9 11 11 246 8 943 -3 816 -5 939 -20 1019 -76 410 -249 580
-667 651 -79 13 -199 17 -700 20 -416 2 -610 0 -622 -7z"/>
<path d="M2877 4053 c-4 -3 -7 -13 -7 -22 0 -8 123 -139 274 -291 160 -161
289 -299 310 -333 67 -105 88 -177 94 -312 6 -175 -27 -339 -139 -682 -59
-180 -65 -218 -34 -211 17 3 499 464 510 488 14 30 22 217 14 331 -31 411
-250 748 -606 928 -135 68 -389 132 -416 104z"/>
<path d="M1758 3099 l-248 -252 0 -96 c0 -209 32 -440 79 -575 43 -123 157
-287 271 -389 154 -139 366 -235 588 -267 86 -13 112 -10 112 13 0 8 -75 85
-167 170 -282 261 -451 468 -508 620 -57 155 -19 435 120 865 25 78 43 147 40
152 -3 6 -14 10 -23 10 -9 1 -128 -113 -264 -251z"/>
<path d="M3625 2309 c-517 -519 -552 -535 -924 -422 -63 19 -195 64 -293 100
-126 47 -182 63 -189 56 -7 -7 -8 -17 -3 -25 5 -7 125 -125 267 -262 l258
-249 122 7 c251 15 460 69 611 157 96 57 229 192 283 289 52 92 96 225 117
349 20 117 21 241 3 241 -6 0 -120 -108 -252 -241z"/>
</g>
</svg>
