<?xml version="1.0" encoding="utf-8"?>
<!-- Generator: Adobe Illustrator 21.1.0, SVG Export Plug-In . SVG Version: 6.00 Build 0)  -->
<svg version="1.1" xmlns="http://www.w3.org/2000/svg" xmlns:xlink="http://www.w3.org/1999/xlink" x="0px" y="0px"
	 viewBox="0 0 50 50" style="enable-background:new 0 0 50 50;" xml:space="preserve">
<style type="text/css">
	.st0{fill:#D7D8D9;}
</style>
<g id="Layer_3">
</g>
<g id="Layer_1">
	<path class="st0" d="M35.2,3.3C35.2,3.3,35.1,3.2,35.2,3.3C35.1,3.2,35.2,3.3,35.2,3.3L35.2,3.3z"/>
	<g>
		<path d="M16.9,31.8l-1.1-3.1H9.8l-1.1,3.1H6.2l5.7-15.4h1.9l5.7,15.4H16.9z M12.9,19.8l-2.4,6.9h4.7L12.9,19.8z"/>
		<path d="M25.7,31.9c-2.3,0-4-0.5-5.5-2l1.5-1.5c1.1,1.1,2.4,1.5,4,1.5c2,0,3.2-0.9,3.2-2.4c0-0.7-0.2-1.2-0.6-1.6
			c-0.4-0.3-0.9-0.5-1.7-0.7l-1.8-0.3c-1.3-0.2-2.2-0.6-2.9-1.2c-0.8-0.7-1.1-1.7-1.1-3c0-2.7,2-4.5,5.2-4.5c2.1,0,3.5,0.5,4.8,1.8
			l-1.5,1.5c-1-0.9-2.1-1.2-3.4-1.2c-1.8,0-2.8,1-2.8,2.4c0,0.6,0.2,1.1,0.6,1.4c0.4,0.3,0.8,0.6,1.7,0.7l1.8,0.3
			c1.4,0.2,2.2,0.5,2.9,1.1c0.8,0.8,1.3,1.8,1.3,3.2C31.3,30.2,29,31.9,25.7,31.9z"/>
		<path d="M33.8,31.8v-2l5.9-7.2c0.6-0.7,0.8-1.3,0.8-2.1c0-1.4-0.8-2.3-2.3-2.3c-1.2,0-2.3,0.7-2.3,2.4h-2.2c0-2.6,1.9-4.4,4.5-4.4
			c2.6,0,4.5,1.7,4.5,4.3c0,1.4-0.5,2.2-1.5,3.3l-4.8,5.9h6.3v2H33.8z"/>
	</g>
</g>
<g id="Layer_2">
</g>
</svg>
