<?xml version="1.0" encoding="utf-8"?>
<!-- Generator: Adobe Illustrator 21.1.0, SVG Export Plug-In . SVG Version: 6.00 Build 0)  -->
<svg version="1.1" id="Layer_1" xmlns="http://www.w3.org/2000/svg"  x="0px" y="0px"
	 viewBox="0 0 50 50" style="enable-background:new 0 0 50 50;" xml:space="preserve">
<style type="text/css">
	.st0{fill-rule:evenodd;clip-rule:evenodd;}
</style>
<path class="st0" d="M12.6,10.4c0,0-0.1,0-0.2,0l-0.1,0l-0.1,0l-0.1,0l-0.2,0.1l-0.1,0.1l-0.1,0l-0.1,0.1l-0.1,0l0,0.1l-0.1,0.1
	l0,0.1L11.4,11l-0.1,0.2l0,0.1l0,0.1l0,0.1l0,0.2V23h0v0.2h0v0.1h0v0.1h0v0.1h0v0.1h0v0.1h0v0.1h0v0.1h0l0,0v0.1h0l0.1,0.1V24h0.1
	l0.1,0.1l0.1,0l0,0l0.2,0.1l0.1,0l0.2,0.1l7.9,0v0l0.1-0.1l0-0.1l0,0l0-2.2l0,0h0v-0.1l0,0l-0.1-0.1l-0.1,0l-5.6,0l-0.1,0l-0.1-0.1
	l0,0l-0.1,0h-0.1v-0.1l-0.1-0.1h0v-0.1l0,0h0v-0.1h0v-0.1h0v-0.2h0v-7.2l0-0.2l0-0.1l0.1-0.1l0-0.1l0.1-0.1l0-0.1l0.1,0l0.1-0.1
	l0.1,0l0.1-0.1l0.1,0l0.2,0h7.2l0.2,0l0.1,0.1l0,0l0.1,0l0.2,0.2v0.1h0l0,0v0.1h0v0.1h0v0.1h0v5.6h0v0.1h0v0.1h0v0.1h0l0,0l0.1,0.1
	l2.1,0v0l0.1-0.1l0,0l0.1-0.1l0-8h0v-0.1h0v-0.1h0v-0.1h0V11h0V11h0v-0.1l0,0h0v-0.1l-0.2-0.2l-0.1,0l0,0l-0.1-0.1l-0.2-0.1l-0.1,0
	c-0.1,0-0.1,0-0.2,0C19.7,10.4,12.6,10.4,12.6,10.4z"/>
<path class="st0" d="M23,21.8C23,21.8,23,21.8,23,21.8l-0.2,0.1l0,0l0,0.1l0,0l0,0.1l0,0.1V24l0,0l0,0l0,0l0,0l0,0l0,0l0,0l0.1,0.1
	l0.1,0l2.1,0l0,0l0,0l0,0l0,0l0,0l0,0l0-0.1l0-2.1l0,0l0,0l0,0l0,0l0,0l-0.1,0l0,0l-0.1,0c0,0-0.1,0-0.1,0
	C24.1,21.8,23,21.8,23,21.8z"/>
<path class="st0" d="M28.9,15.6c0,0-0.2,0-0.3,0l-0.1,0l-0.2,0.1l-0.1,0l0,0l-0.1,0.1l0,0l-0.1,0L27.9,16l-0.1,0l0,0.1l-0.1,0.1
	l0,0.1l0,0l-0.1,0.2l-0.1,0.2l0,0.1l0,0.2v2.3h0v0.1h0v0.1h0v0.1h0l0,0l0.1,0.1l1.9,0v0l0.1-0.1l0,0l0.1-0.1l0-1l0-0.1l0-0.1
	l0.1-0.1l0.1-0.1l0.1,0l0,0l0.1,0l0,0l0.1,0l0.2,0h2.9l0.2,0l0.1,0l0.1,0l0,0l0.1,0l0.1,0.1v0.1h0l0,0v0.1h0v0.1h0l0,3L34,21.6l0,0
	l0,0.1l-0.1,0.1l-0.1,0l0,0l-0.1,0l-0.1,0l-1.1,0l-0.1,0l-0.1,0l-0.1,0.1l-0.1,0.1l0,0.1v1.8h0v0.1h0v0.1h0l0.1,0.1l0.1,0l2.7,0v0
	l0.1,0l0.2-0.1l0.1,0l0,0l0.1-0.1l0,0l0.1,0l0.3-0.3l0.1-0.2l0.1-0.2l0-0.1l0-6.4h0v-0.1h0v-0.1h0v-0.1h0v-0.1h0v-0.1h0v-0.1h0v-0.1
	l0,0h0v-0.1l-0.3-0.3l-0.1,0l0,0l-0.2-0.1L35,15.6c-0.1,0-0.2,0-0.3,0C32.8,15.6,28.9,15.6,28.9,15.6z"/>
<path class="st0" d="M14.2,26.6c0,0-0.2,0-0.3,0l-0.1,0l-0.2,0.1l-0.1,0l0,0l-0.1,0.1l0,0l-0.1,0L13.3,27l-0.1,0l0,0.1l-0.1,0.1
	l0,0.1l-0.1,0.1l-0.1,0.2l0,0.1l0,0.1l0,0.1l0,0.2v9.6h0v0.2h0V38h0v0.1h0v0.1h0v0.1h0v0.1h0v0.1h0v0.1h0l0,0v0.1h0l0.1,0.1v0.1h0.1
	l0.1,0.1l0.1,0l0,0l0.1,0.1l0,0l0.1,0l0.2,0.1l0.1,0l10.2,0v0l0.3-0.1l0.2-0.1l0,0l0.1,0l0.2-0.2l0-0.1l0.1-0.1l0.1-0.1l0-0.1l0-0.1
	l0-0.1l0.1-0.2l0-6.2h0v-0.1h0v-0.1l0,0l-0.1,0l0,0l-0.1,0l-0.1,0H23l-0.1,0l-0.1,0.1l-0.1,0.1l-0.1,0.1l0,0.1l0,4.2l0,0.1l-0.1,0.1
	l-0.2,0.2l-0.1,0.1l-0.1,0l-6.1,0v0l-0.1,0l-0.1,0l-0.1-0.1h-0.1v-0.1l-0.1-0.1h0v-0.1h0v-0.1h0v-0.1h0v-0.2h0v-5.9l0.1-0.3l0-0.1
	l0.1-0.1l0-0.1l0.1,0l0.1-0.1l0.1,0l0.1-0.1l0.1,0l0.2,0l4.3,0l0.1,0l0.1-0.1l0-0.1l0-2.1h0v-0.1h0v-0.1l-0.1-0.1l-0.1-0.1
	c0,0-0.1,0-0.1,0C18.3,26.6,14.2,26.6,14.2,26.6z"/>
<path class="st0" d="M32.5,26.6C32.5,26.6,32.4,26.6,32.5,26.6l-0.2,0.1l-0.1,0.1l-0.1,0.1l0,0.1v2h0V29h0l0.1,0.1l2.6,0l0.1,0
	l0.2,0.1l0,0l0.1,0l0,0l0.1,0l0,0v0.1h0l0,0v0.1h0l0,0v0.1h0v0.1h0l0,4.6l0,0.1l0,0.1l0,0l-0.1,0.1l-0.1,0.1l-0.1,0l0,0l-0.1,0.1
	l-0.1,0l-4.3,0v0l-0.1,0l-0.1,0l0,0l-0.1,0l0,0h-0.1v-0.1h0v-0.1l0,0h0v-0.1h0v-0.1h0v-0.1h0v-0.1h0v-2.6h0v-0.1h0v-0.1l-0.1-0.1
	l-0.1-0.1l-0.1,0h-1.9l-0.1,0l-0.1,0.1l-0.1,0.1l-0.1,0.1l0,0.1v4h0v0.2h0v0.1h0v0.1h0v0.1h0v0.1h0v0.1h0v0.1h0v0.1h0l0,0v0.1h0
	l0.1,0.1v0.1h0.1l0.1,0.1l0.1,0l0,0l0.1,0.1l0,0l0.1,0l0.2,0.1l0.1,0l8.1,0v0l0.1,0L37,37l0.1,0l0,0l0.1-0.1l0,0l0.1,0l0.2-0.2
	l0-0.1l0,0l0.1-0.1l0,0l0-0.1l0.1-0.2l0-0.1l0-8.3h0v-0.1h0v-0.1h0v-0.1h0v-0.1h0v-0.1h0v-0.1l0,0h0v-0.1l-0.3-0.3l-0.1,0l0,0
	l-0.1,0l0,0l-0.2-0.1l-0.2-0.1l-0.1,0c-0.1,0-0.1,0-0.2,0C34.7,26.6,32.5,26.6,32.5,26.6z"/>
<path class="st0" d="M27.8,22C27.8,22,27.7,22,27.8,22L27.6,22l0,0l0,0.1l0,0l0,0.1l0,0.1v1.9l0,0l0,0l0,0l0,0l0,0l0,0l0,0l0.1,0.1
	l0.1,0l2.1,0l0,0l0,0l0,0l0,0l0,0l0,0l0-0.1l0-2.1l0,0l0,0l0,0l0,0l0,0l-0.1,0l0,0l-0.1,0c0,0-0.1,0-0.1,0
	C28.8,21.9,27.8,22,27.8,22z"/>
<path class="st0" d="M22.9,26.6C22.9,26.6,22.8,26.6,22.9,26.6l-0.2,0.1l0,0l0,0.1l0,0l0,0.1l0,0.1v1.9l0,0l0,0l0,0l0,0l0,0l0,0l0,0
	l0.1,0.1l0.1,0l2.1,0l0,0l0,0l0,0l0,0l0,0l0,0l0-0.1l0-2.1l0,0l0,0l0,0l0,0l0,0l-0.1,0l0,0l-0.1,0c0,0-0.1,0-0.1,0
	C23.9,26.6,22.9,26.6,22.9,26.6z"/>
<path class="st0" d="M27.8,26.6C27.8,26.6,27.7,26.6,27.8,26.6l-0.2,0.1l0,0l0,0.1l0,0l0,0.1l0,0.1v1.9l0,0l0,0l0,0l0,0l0,0l0,0l0,0
	l0.1,0.1l0.1,0l2.1,0l0,0l0,0l0,0l0,0l0,0l0,0l0-0.1l0-2.1l0,0l0,0l0,0l0,0l0,0l-0.1,0l0,0l-0.1,0c0,0-0.1,0-0.1,0
	C28.8,26.6,27.8,26.6,27.8,26.6z"/>
</svg>
