<svg id="9b28edce-d5d1-4264-93df-8e8aac1a4576" data-name="Layer 1" xmlns="http://www.w3.org/2000/svg" viewBox="0 0 50 50"><title>microsoft-dynamics-365-operations-connector</title><g id="fa07653d-8f12-4681-9465-6e06e7af86fb" data-name="1bF6w4.tif"><path d="M14.41491,18.01025a4.20734,4.20734,0,0,1,.44964.22617q3.27262,2.15172,6.53983,4.31166c.37073.245.39159.32182.26861.67564q-.96535,2.77732-1.928,5.55559-1.03047,2.95986-2.06664,5.91774-1.04346,2.98957-2.08587,5.9795c-.28424.81329-.574,1.62465-.8589,2.43772a.9405.9405,0,0,0-.02563.17759c.04321-.005.06881-.00007.078-.01012q1.00432-1.10271,2.00587-2.20794c.05825-.06424.11012-.13439.16965-.19735q1.20741-1.27689,2.41627-2.55242c.80558-.85077,1.61379-1.69907,2.41564-2.55334.50412-.53708.99683-1.08484,1.49786-1.62484q1.7248-1.85891,3.45257-3.71506c.54568-.58745,1.08853-1.17753,1.635-1.76426.63539-.68223,1.27489-1.36062,1.90962-2.04346.50147-.53949.99659-1.08487,1.49773-1.62467q1.7476-1.88241,3.498-3.76223.774-.83342,1.54259-1.67188c.19584-.21348.38523-.43288.60288-.6781.15419.58085.20671,8.19647.098,11.83791-.16808.11159-.35528.25315-.55778.36761q-2.653,1.4995-5.31114,2.98976c-1.2262.68644-2.46082,1.35785-3.68588,2.0463-1.63883.921-3.2693,1.85681-4.90858,2.777-1.22528.68779-2.46042,1.358-3.68825,2.04126q-2.18111,1.21376-4.35518,2.44011a1.04041,1.04041,0,0,0-.21393.23144h-.39195Z" style="fill:#002050"/><path d="M14.41491,6.38245c.70162.33286,1.40483.66244,2.10383,1.00073.19363.09371.37143.2196.5621.32007q2.81632,1.48408,5.63423,2.96514c1.282.677,2.55917,1.36311,3.83965,2.043q2.237,1.18774,4.47583,2.37189c1.37673.72995,2.7549,1.4572,4.12835,2.19326.43565.23347.85816.49147,1.34951.77442l-6.97327,5.723c-2.00429-.98818-3.96546-1.95749-5.92879-2.92241q-2.85855-1.40491-5.72121-2.80145c-1.05124-.51167-2.10869-1.01061-3.165-1.51175a2.239,2.239,0,0,0-.3052-.09591Z" style="fill:#002050"/></g></svg>