<?xml version="1.0" encoding="utf-8"?>
<!-- Generator: Adobe Illustrator 21.1.0, SVG Export Plug-In . SVG Version: 6.00 Build 0)  -->
<svg version="1.1" id="Layer_1" xmlns="http://www.w3.org/2000/svg" xmlns:xlink="http://www.w3.org/1999/xlink" x="0px" y="0px"
	 viewBox="0 0 50 50" style="enable-background:new 0 0 50 50;" xml:space="preserve">
<g>
	<path d="M11.4,26.2H8.8v4.4H7.1V19.4h4.2c2.2,0,3.6,1.4,3.6,3.4C14.9,24.8,13.5,26.2,11.4,26.2z M11.3,21H8.8v3.7h2.4
		c1.2,0,2-0.7,2-1.9C13.2,21.6,12.4,21,11.3,21z"/>
	<path d="M23.4,29.5c-0.7,0.7-1.7,1.1-2.9,1.1s-2.2-0.4-2.9-1.1c-1.1-1.1-1.1-2.2-1.1-4.5c0-2.3,0-3.4,1.1-4.5
		c0.7-0.7,1.7-1.1,2.9-1.1s2.2,0.4,2.9,1.1c1.1,1.1,1.1,2.2,1.1,4.5C24.5,27.3,24.5,28.4,23.4,29.5z M22.2,21.5
		c-0.4-0.4-1-0.7-1.7-0.7c-0.7,0-1.2,0.3-1.7,0.7c-0.5,0.6-0.7,1.3-0.7,3.5c0,2.2,0.1,2.9,0.7,3.5c0.4,0.4,1,0.7,1.7,0.7
		c0.7,0,1.2-0.3,1.7-0.7c0.6-0.6,0.7-1.2,0.7-3.5C22.9,22.8,22.8,22.1,22.2,21.5z"/>
	<path d="M31.3,26.2h-2.5v4.4H27V19.4h4.2c2.2,0,3.6,1.4,3.6,3.4C34.8,24.8,33.4,26.2,31.3,26.2z M31.2,21h-2.4v3.7h2.4
		c1.2,0,2-0.7,2-1.9C33.1,21.6,32.3,21,31.2,21z"/>
	<path d="M39.5,30.7c-1.8,0-3.3-1-3.4-3.1h1.6c0.1,1.2,0.9,1.7,1.8,1.7c1,0,1.8-0.7,1.8-1.8c0-1.1-0.6-1.8-1.9-1.8h-0.3v-1.4h0.3
		c1.2,0,1.7-0.7,1.7-1.7c0-1.1-0.7-1.7-1.6-1.7c-1,0-1.6,0.6-1.7,1.6h-1.6c0.1-1.9,1.5-3,3.3-3c1.9,0,3.2,1.3,3.2,3.1
		c0,1.2-0.5,2-1.4,2.4c1,0.4,1.6,1.3,1.6,2.6C42.9,29.6,41.3,30.7,39.5,30.7z"/>
</g>
</svg>
