<?xml version="1.0" encoding="utf-8"?>
<!-- Generator: Adobe Illustrator 21.1.0, SVG Export Plug-In . SVG Version: 6.00 Build 0)  -->
<svg version="1.1" id="Layer_1" xmlns="http://www.w3.org/2000/svg" xmlns:xlink="http://www.w3.org/1999/xlink" x="0px" y="0px"
	 viewBox="0 0 50 50" style="enable-background:new 0 0 50 50;" xml:space="preserve">
<style type="text/css">
	.st0{fill:url(#SVGID_1_);}
	.st1{fill:url(#SVGID_2_);}
	.st2{fill:#14559A;}
	.st3{fill:url(#SVGID_3_);}
	.st4{fill:#3092C4;}
	.st5{fill:#1969BC;}
	.st6{fill:url(#SVGID_4_);}
	.st7{fill:url(#SVGID_5_);}
	.st8{fill:url(#SVGID_6_);}
	.st9{fill:#2B74B1;}
	.st10{fill:#125A9E;}
	.st11{fill:url(#SVGID_7_);}
	.st12{fill:url(#SVGID_8_);}
	.st13{fill:#0D82CA;}
	.st14{fill:url(#SVGID_9_);}
	.st15{fill:#127BCA;}
	.st16{fill:url(#SVGID_10_);}
	.st17{fill:url(#SVGID_11_);}
	.st18{fill:#05A1E6;}
	.st19{fill:url(#SVGID_12_);}
	.st20{fill:url(#SVGID_13_);}
	.st21{fill:url(#SVGID_14_);}
	.st22{fill:#079AE1;}
	.st23{fill:#1E5CB3;}
	.st24{fill:#1D60B5;}
	.st25{fill:#175FAB;}
	.st26{fill:url(#SVGID_15_);}
	.st27{fill:#7DCBEC;}
	.st28{fill:#5EC5ED;}
	.st29{fill:url(#SVGID_16_);}
	.st30{fill:url(#SVGID_17_);}
	.st31{fill:url(#SVGID_18_);}
</style>
<g>
	
		<linearGradient id="SVGID_1_" gradientUnits="userSpaceOnUse" x1="-267.5004" y1="441.0208" x2="-267.5004" y2="440.7906" gradientTransform="matrix(45.6076 0 0 -81.335 12222.5801 35887.8398)">
		<stop  offset="0" style="stop-color:#0994DC"/>
		<stop  offset="0.35" style="stop-color:#66CEF5"/>
		<stop  offset="0.35" style="stop-color:#66CEF5"/>
		<stop  offset="0.8462" style="stop-color:#127BCA"/>
		<stop  offset="0.8462" style="stop-color:#127BCA"/>
		<stop  offset="1" style="stop-color:#127BCA"/>
	</linearGradient>
	<path class="st0" d="M19,20.4c1.4,4.3,2,12,6.1,12l0,0c0.3,0,0.6,0,1-0.1l0,0c-3.8-0.9-4.2-8.5-6.5-12.5l0,0
		C19.4,20,19.2,20.2,19,20.4"/>
	
		<linearGradient id="SVGID_2_" gradientUnits="userSpaceOnUse" x1="-267.771" y1="441.1155" x2="-267.771" y2="440.8853" gradientTransform="matrix(47.8692 0 0 -83.4083 12841.2148 36809.625)">
		<stop  offset="0" style="stop-color:#0E76BC"/>
		<stop  offset="0.36" style="stop-color:#36AEE8"/>
		<stop  offset="0.36" style="stop-color:#36AEE8"/>
		<stop  offset="0.8462" style="stop-color:#00ADEF"/>
		<stop  offset="0.8462" style="stop-color:#00ADEF"/>
		<stop  offset="1" style="stop-color:#00ADEF"/>
	</linearGradient>
	<path class="st1" d="M19.5,19.9c2.3,4,2.7,11.6,6.5,12.5l0,0c0.3-0.1,0.6-0.1,0.9-0.2l0,0c-3.4-1.7-4.3-9.1-6.9-12.6l0,0
		C19.9,19.6,19.7,19.7,19.5,19.9"/>
	<path class="st2" d="M22.9,17.5c-0.3,0-0.6,0-1,0.1c-0.8,0.2-1.7,0.5-2.5,1.1c0.2,0.2,0.5,0.5,0.7,0.8c0.9-0.7,1.7-1.3,2.6-1.6
		c0.3-0.1,0.6-0.2,1-0.3C23.4,17.5,23.1,17.5,22.9,17.5"/>
	
		<linearGradient id="SVGID_3_" gradientUnits="userSpaceOnUse" x1="-268.0379" y1="440.851" x2="-268.0379" y2="441.0318" gradientTransform="matrix(45.4522 0 0 -84.5 12210.0195 37283.8984)">
		<stop  offset="0" style="stop-color:#1C63B7"/>
		<stop  offset="0.5" style="stop-color:#33BDF2"/>
		<stop  offset="1" style="stop-color:#33BDF2;stop-opacity:0.4196"/>
	</linearGradient>
	<path class="st3" d="M29.6,30.6c0.3-0.3,0.7-0.6,1-0.9c-1.4-4.3-2-12.1-6.1-12.1c-0.3,0-0.6,0-0.9,0.1
		C27.4,18.5,27.9,26.8,29.6,30.6"/>
	<path class="st4" d="M23.6,17.6c-0.2-0.1-0.5-0.1-0.7-0.1l1.6,0C24.2,17.5,23.9,17.5,23.6,17.6"/>
	<path class="st5" d="M29.5,31.5c-0.2-0.2-0.3-0.3-0.5-0.5c-0.7,0.5-1.4,0.9-2.1,1.1c0.2,0.1,0.5,0.2,0.8,0.3c0.2,0,0.4,0.1,0.7,0.1
		c0.8,0,1.4-0.1,1.9-0.3C30,31.9,29.7,31.7,29.5,31.5"/>
	
		<linearGradient id="SVGID_4_" gradientUnits="userSpaceOnUse" x1="-267.8817" y1="441.1755" x2="-267.8817" y2="440.9453" gradientTransform="matrix(45.0105 0 0 -86.5982 12083.5947 38220.0156)">
		<stop  offset="0" style="stop-color:#166AB8"/>
		<stop  offset="0.4" style="stop-color:#36AEE8"/>
		<stop  offset="0.4" style="stop-color:#36AEE8"/>
		<stop  offset="0.8462" style="stop-color:#0798DD"/>
		<stop  offset="0.8462" style="stop-color:#0798DD"/>
		<stop  offset="1" style="stop-color:#0798DD"/>
	</linearGradient>
	<path class="st6" d="M22.6,17.9C26,19.7,26.3,27.7,29,31l0,0c0.2-0.1,0.4-0.3,0.5-0.4l0,0c-1.7-3.8-2.2-12-6-13l0,0
		C23.3,17.7,22.9,17.8,22.6,17.9"/>
	
		<linearGradient id="SVGID_5_" gradientUnits="userSpaceOnUse" x1="-268.5614" y1="441.4742" x2="-268.5614" y2="441.244" gradientTransform="matrix(58.3509 0 0 -92.0822 15695.3242 40667.0273)">
		<stop  offset="0" style="stop-color:#124379"/>
		<stop  offset="0.39" style="stop-color:#1487CB"/>
		<stop  offset="0.39" style="stop-color:#1487CB"/>
		<stop  offset="0.7802" style="stop-color:#165197"/>
		<stop  offset="0.7802" style="stop-color:#165197"/>
		<stop  offset="1" style="stop-color:#165197"/>
	</linearGradient>
	<path class="st7" d="M20,19.5c2.6,3.6,3.5,11,6.9,12.6l0,0c0.7-0.2,1.4-0.6,2.1-1.1l0,0c-2.7-3.3-3-11.3-6.4-13.1l0,0
		C21.8,18.2,20.9,18.7,20,19.5"/>
	
		<linearGradient id="SVGID_6_" gradientUnits="userSpaceOnUse" x1="-260.767" y1="432.8118" x2="-260.6126" y2="432.8118" gradientTransform="matrix(19.4176 0 0 -30.9219 5079.4795 13404.9629)">
		<stop  offset="0" style="stop-color:#33BDF2;stop-opacity:0.698"/>
		<stop  offset="1" style="stop-color:#1DACD8"/>
	</linearGradient>
	<path class="st8" d="M17.3,20.3c-0.4,0.9-0.8,2.1-1.3,3.7c1-1.4,2-2.6,3-3.6c-0.1-0.4-0.3-0.8-0.4-1.2
		C18.2,19.5,17.7,19.9,17.3,20.3"/>
	<path class="st9" d="M18.9,19c-0.1,0.1-0.2,0.2-0.4,0.3c0.2,0.3,0.3,0.7,0.4,1.2c0.2-0.2,0.4-0.3,0.5-0.5
		C19.4,19.5,19.1,19.2,18.9,19"/>
	<path class="st10" d="M19.4,18.7c-0.1,0.1-0.3,0.2-0.4,0.3c0.2,0.3,0.4,0.6,0.6,0.9c0.2-0.1,0.3-0.3,0.5-0.4
		C19.8,19.2,19.6,18.9,19.4,18.7"/>
	
		<linearGradient id="SVGID_7_" gradientUnits="userSpaceOnUse" x1="-270.3021" y1="441.5567" x2="-270.3021" y2="441.7075" gradientTransform="matrix(79.1425 0 0 -98.6787 21430.9004 43603.8359)">
		<stop  offset="0" style="stop-color:#136AB4"/>
		<stop  offset="0.6" style="stop-color:#59CAF5;stop-opacity:0.549"/>
		<stop  offset="1" style="stop-color:#59CAF5;stop-opacity:0.2353"/>
	</linearGradient>
	<path class="st11" d="M42.5,17.2c-1.9,7.4-5.9,13.4-9.3,14.9h0c-0.1,0-0.1,0.1-0.2,0.1c0,0,0,0,0,0c0,0,0,0-0.1,0c0,0,0,0,0,0
		c0,0-0.1,0-0.1,0c0,0,0,0,0,0c0,0,0,0,0,0c0,0,0,0,0,0c0,0,0,0,0,0c0,0,0,0-0.1,0c0,0,0,0,0,0c0,0,0,0,0,0c0,0,0,0,0,0
		c0,0,0,0-0.1,0c0,0,0,0-0.1,0c0.2,0.1,0.3,0.1,0.5,0.1c3.2,0,6.4-5.7,11.7-15.2L42.5,17.2L42.5,17.2z"/>
	
		<linearGradient id="SVGID_8_" gradientUnits="userSpaceOnUse" x1="-268.1625" y1="441.6642" x2="-268.0081" y2="441.6642" gradientTransform="matrix(72.0226 0 0 -99.1613 19319.1289 43821.1484)">
		<stop  offset="0" style="stop-color:#05A1E6;stop-opacity:0.2471"/>
		<stop  offset="1" style="stop-color:#05A1E6"/>
	</linearGradient>
	<path class="st12" d="M15.3,17.8C15.3,17.8,15.3,17.8,15.3,17.8C15.3,17.8,15.3,17.8,15.3,17.8L15.3,17.8
		C15.4,17.8,15.4,17.8,15.3,17.8C15.4,17.8,15.4,17.8,15.3,17.8C15.4,17.8,15.4,17.8,15.3,17.8c0.1,0,0.1-0.1,0.1-0.1h0
		c0,0,0.1,0,0.1,0c0,0,0,0,0,0c0,0,0,0,0.1,0c0,0,0,0,0,0c0,0,0,0,0.1,0c0,0,0,0,0,0c0.1,0,0.1,0,0.2,0c0,0,0,0,0,0c0,0,0,0,0.1,0
		c0,0,0,0,0,0c0,0,0,0,0.1,0h0c0,0,0.1,0,0.1,0h0c0,0,0,0,0,0c0,0,0,0,0,0c0,0,0,0,0,0c0,0,0,0,0,0c0,0,0.1,0,0.1,0
		c-0.1,0-0.2,0-0.3,0c-3.6,0-8.5,6.7-10.8,15.3h0.4c0.7-1.3,1.4-2.5,1.9-3.6C9.3,23.1,12.5,18.9,15.3,17.8"/>
	<path class="st13" d="M17.3,20.3c0.4-0.4,0.8-0.7,1.2-1.1c-0.1-0.2-0.2-0.4-0.3-0.6C17.9,19.1,17.6,19.6,17.3,20.3"/>
	<path class="st13" d="M17.6,17.9c0.2,0.2,0.4,0.5,0.6,0.8c0.1-0.1,0.1-0.1,0.2-0.2C18.2,18.2,17.9,18,17.6,17.9
		C17.6,17.8,17.6,17.9,17.6,17.9C17.6,17.9,17.6,17.9,17.6,17.9"/>
	
		<linearGradient id="SVGID_9_" gradientUnits="userSpaceOnUse" x1="-266.553" y1="440.148" x2="-266.553" y2="440.3544" gradientTransform="matrix(49.0511 0 0 -73.8222 13086.2529 32524.6777)">
		<stop  offset="0" style="stop-color:#318ED5"/>
		<stop  offset="1" style="stop-color:#38A7E4"/>
	</linearGradient>
	<path class="st14" d="M7.7,29.2c3.3-6.3,4.8-10.3,7.6-11.4l0,0C12.5,18.9,9.3,23.1,7.7,29.2"/>
	<path class="st15" d="M18.5,18.4c-0.1,0.1-0.1,0.1-0.2,0.2c0.1,0.2,0.2,0.4,0.3,0.6c0.1-0.1,0.2-0.2,0.4-0.3
		C18.8,18.8,18.6,18.6,18.5,18.4"/>
	
		<linearGradient id="SVGID_10_" gradientUnits="userSpaceOnUse" x1="-266.2943" y1="439.1696" x2="-266.2943" y2="439.429" gradientTransform="matrix(45.6036 0 0 -57.1283 12156.4629 25121.0664)">
		<stop  offset="0" style="stop-color:#05A1E6"/>
		<stop  offset="1" style="stop-color:#05A1E6;stop-opacity:0.549"/>
	</linearGradient>
	<path class="st16" d="M9.2,32.8L9.2,32.8C9.2,32.8,9.2,32.8,9.2,32.8L9.2,32.8c-0.1,0-0.1,0-0.1,0h0c0,0-0.1,0-0.1,0h0
		c3.3-0.1,4.8-1.8,5.6-4.2c0.6-1.8,1-3.4,1.5-4.7c-1.4,2-2.8,4.3-4.2,6.9C11.1,32.1,10.1,32.7,9.2,32.8"/>
	
		<linearGradient id="SVGID_11_" gradientUnits="userSpaceOnUse" x1="-267.0628" y1="440.8492" x2="-267.0628" y2="441.0035" gradientTransform="matrix(52.5191 0 0 -81.0936 14039.1904 35782.8242)">
		<stop  offset="0" style="stop-color:#1959A6"/>
		<stop  offset="0.5" style="stop-color:#05A1E6"/>
		<stop  offset="0.5" style="stop-color:#05A1E6"/>
		<stop  offset="0.9176" style="stop-color:#7EC5EA"/>
		<stop  offset="1" style="stop-color:#7EC5EA"/>
	</linearGradient>
	<path class="st17" d="M9.2,32.8L9.2,32.8c0.9-0.1,1.9-0.6,2.6-1.9l0,0c1.4-2.6,2.8-4.9,4.2-6.9l0,0c0.5-1.6,0.9-2.8,1.3-3.7l0,0
		C14.6,22.9,11.8,27.3,9.2,32.8"/>
	<path class="st18" d="M7.7,29.2c-0.6,1.1-1.2,2.3-1.9,3.6h1.3C7.2,31.6,7.5,30.3,7.7,29.2"/>
	
		<linearGradient id="SVGID_12_" gradientUnits="userSpaceOnUse" x1="-268.2316" y1="441.5903" x2="-268.2645" y2="441.7274" gradientTransform="matrix(72.6768 0 0 -99.0047 19507.9863 43751.4961)">
		<stop  offset="0" style="stop-color:#165096"/>
		<stop  offset="1" style="stop-color:#0D82CA"/>
	</linearGradient>
	<path class="st19" d="M16.4,17.5C16.4,17.5,16.4,17.5,16.4,17.5L16.4,17.5C16.3,17.6,16.3,17.6,16.4,17.5L16.4,17.5
		c-0.1,0-0.1,0-0.1,0l0,0c0,0,0,0,0,0l0,0c0,0,0,0,0,0l0,0c0,0-0.1,0-0.1,0l0,0h0l0,0c0,0,0,0-0.1,0l0,0c0,0,0,0,0,0l0,0
		c0,0,0,0-0.1,0l0,0c0,0,0,0,0,0l0,0c-0.1,0-0.1,0-0.2,0l0,0c0,0,0,0,0,0l0,0c0,0,0,0-0.1,0l0,0c0,0,0,0,0,0l0,0c0,0,0,0-0.1,0l0,0
		c0,0,0,0,0,0l0,0c0,0-0.1,0-0.1,0l0,0l0,0l0,0c0,0,0,0-0.1,0l0,0c0,0,0,0,0,0l0,0c0,0,0,0-0.1,0l0,0c0,0,0,0,0,0l0,0
		c-2.7,1.1-4.3,5.1-7.6,11.4l0,0c-0.3,1.1-0.5,2.3-0.7,3.6l0,0h0.2c0.5,0,0.6,0,1.2,0l0,0h0h0.1h0h0h0h0h0h0h0.1h0.1h0.1h0H9l0,0
		c0,0,0.1,0,0.1,0l0,0h0l0,0c0,0,0,0,0.1,0l0,0h0l0,0c0,0,0,0,0.1,0l0,0c2.6-5.5,5.3-9.9,8.1-12.5l0,0c0.3-0.7,0.6-1.2,0.9-1.6l0,0
		c-0.2-0.3-0.4-0.6-0.6-0.8l0,0c0,0,0,0,0,0l0,0c0,0,0,0,0,0l0,0c0,0,0,0,0,0l0,0c0,0,0,0,0,0l0,0c0,0,0,0,0,0l0,0c0,0,0,0,0,0l0,0
		c0,0,0,0-0.1,0l0,0c0,0,0,0,0,0l0,0c0,0,0,0-0.1,0l0,0c0,0,0,0,0,0l0,0c0,0-0.1,0-0.1,0l0,0h0l0,0c0,0-0.1,0-0.1,0l0,0c0,0,0,0,0,0
		l0,0c0,0,0,0-0.1,0l0,0c0,0,0,0,0,0l0,0c-0.1,0-0.1,0-0.2,0l0,0c0,0,0,0,0,0l0,0c0,0-0.1,0-0.1,0l0,0c0,0,0,0,0,0l0,0
		c0,0-0.1,0-0.1,0l0,0h0l0,0c0,0,0,0-0.1,0l0,0C16.5,17.5,16.4,17.5,16.4,17.5"/>
	
		<linearGradient id="SVGID_13_" gradientUnits="userSpaceOnUse" x1="-268.1808" y1="438.5826" x2="-268.1808" y2="438.7065" gradientTransform="matrix(32.7663 0 0 -57.2261 8823.2637 25122.6953)">
		<stop  offset="0" style="stop-color:#05A1E6"/>
		<stop  offset="0.8736" style="stop-color:#0495D6"/>
		<stop  offset="1" style="stop-color:#0495D6"/>
	</linearGradient>
	<path class="st20" d="M35,21.3c-0.6,2-1.1,3.7-1.6,5.1l0,0c1.7-2.4,3.4-5.4,5.1-8.8l0,0C36.6,18.1,35.6,19.5,35,21.3"/>
	
		<linearGradient id="SVGID_14_" gradientUnits="userSpaceOnUse" x1="-269.8459" y1="441.607" x2="-269.8937" y2="441.4372" gradientTransform="matrix(60.2691 0 0 -96.3231 16302.6826 42553.5117)">
		<stop  offset="0" style="stop-color:#38A7E4;stop-opacity:0.3294"/>
		<stop  offset="0.9615" style="stop-color:#0E88D3"/>
		<stop  offset="0.9615" style="stop-color:#0E88D3"/>
		<stop  offset="1" style="stop-color:#0E88D3"/>
	</linearGradient>
	<path class="st21" d="M33.5,31.9c-0.1,0-0.2,0.1-0.3,0.1c3.4-1.5,7.4-7.5,9.3-14.9h-0.4C37.7,25.1,36.3,30.4,33.5,31.9"/>
	<path class="st22" d="M31.3,31.3c0.7-0.9,1.3-2.4,2.1-4.9c-0.9,1.3-1.9,2.4-2.8,3.3c0,0,0,0,0,0C30.8,30.3,31,30.8,31.3,31.3"/>
	<path class="st5" d="M31.3,31.3c-0.2,0.3-0.5,0.5-0.8,0.7c-0.1,0-0.1,0.1-0.2,0.1c0.3,0.2,0.6,0.3,1,0.3l0,0c0.1,0,0.1,0,0.2,0h0
		c0,0,0.1,0,0.1,0h0h0.1h0.1h0h0.1c0,0,0,0,0,0c0,0,0,0,0.1,0h0h0c0,0,0,0,0.1,0h0c0,0,0,0,0,0c0,0,0,0,0.1,0h0c0,0,0.1,0,0.1,0h0h0
		c0.1,0,0.1,0,0.2,0C32,32.2,31.6,31.8,31.3,31.3"/>
	<path class="st23" d="M25.1,32.4c0.3,0,0.6,0,1-0.1c0.3-0.1,0.6-0.1,0.9-0.2c0.2,0.1,0.5,0.2,0.8,0.3c0.2,0,0.4,0.1,0.7,0.1H25.1
		L25.1,32.4z"/>
	<path class="st23" d="M28.4,32.4c0.8,0,1.4-0.1,1.9-0.3c0.3,0.2,0.6,0.3,1,0.3l0,0c0.1,0,0.1,0,0.2,0h0c0,0,0.1,0,0.1,0h0h0.1
		L28.4,32.4L28.4,32.4z"/>
	<path class="st24" d="M31.7,32.4L31.7,32.4h0.1h0.1c0,0,0,0,0,0c0,0,0,0,0.1,0h0h0c0,0,0,0,0.1,0h0c0,0,0,0,0,0c0,0,0,0,0.1,0
		c0,0,0,0,0,0c0,0,0.1,0,0.1,0h0h0c0.1,0,0.1,0,0.2,0l0,0c0.2,0.1,0.3,0.1,0.5,0.1L31.7,32.4L31.7,32.4z"/>
	<path class="st25" d="M30.6,29.7L30.6,29.7c-0.3,0.3-0.7,0.6-1,0.9c-0.2,0.1-0.4,0.3-0.5,0.4c0.2,0.2,0.3,0.4,0.5,0.5
		c0.2,0.2,0.5,0.4,0.8,0.6c0.1,0,0.1-0.1,0.2-0.1c0.3-0.2,0.6-0.4,0.8-0.7C31,30.8,30.8,30.3,30.6,29.7"/>
	
		<linearGradient id="SVGID_15_" gradientUnits="userSpaceOnUse" x1="-270.011" y1="441.6792" x2="-270.011" y2="441.5215" gradientTransform="matrix(70.2816 0 0 -98.1105 19013.5156 43350.4844)">
		<stop  offset="0" style="stop-color:#168CD4"/>
		<stop  offset="0.5" style="stop-color:#1C87CC"/>
		<stop  offset="1" style="stop-color:#154B8D"/>
	</linearGradient>
	<path class="st26" d="M40.9,17.2h-1.6h-0.2l0,0H39l0,0h0c-0.1,0-0.2,0-0.3,0l0,0c0,0.1-0.1,0.2-0.1,0.3l0,0
		c-1.6,3.5-3.3,6.5-5.1,8.8l0,0c-0.8,2.5-1.4,4-2.1,4.9l0,0c0.3,0.5,0.7,0.9,1.1,1.1l0,0c0,0,0,0,0,0l0,0h0l0,0c0,0,0,0,0,0l0,0
		c0,0,0,0,0.1,0l0,0c0,0,0,0,0,0l0,0c0,0,0,0,0,0l0,0c0,0,0,0,0,0l0,0c0,0,0,0,0.1,0l0,0c0,0,0,0,0,0l0,0c0,0,0,0,0,0l0,0
		c0,0,0,0,0,0l0,0c0,0,0,0,0,0l0,0c0,0,0.1,0,0.1,0l0,0c0,0,0,0,0,0l0,0c0,0,0,0,0.1,0l0,0c0,0,0,0,0,0l0,0c0.1,0,0.1,0,0.2-0.1l0,0
		h0l0,0c0.1,0,0.2-0.1,0.3-0.1l0,0c2.8-1.6,4.2-6.9,8.7-14.7l0,0L40.9,17.2L40.9,17.2z"/>
	<path class="st27" d="M16.5,17.5C16.5,17.5,16.5,17.5,16.5,17.5C16.5,17.5,16.5,17.5,16.5,17.5L16.5,17.5c0.1,0,0.2,0,0.2,0
		c0,0,0,0,0,0c0,0,0.1,0,0.1,0c0,0,0,0,0,0c0.1,0,0.1,0,0.2,0c0,0,0,0,0,0c0,0,0,0,0.1,0c0,0,0,0,0,0c0,0,0.1,0,0.1,0c0,0,0,0,0,0
		c0,0,0,0,0.1,0c0,0,0,0,0,0c0,0,0,0,0.1,0c0,0,0,0,0,0c0,0,0,0,0.1,0c0,0,0,0,0,0c0,0,0,0,0,0c0,0,0,0,0,0c0,0,0,0,0,0
		c0.3,0.2,0.6,0.4,0.9,0.6c0.1-0.1,0.2-0.2,0.3-0.3c-0.6-0.4-1.2-0.7-2-0.7C16.7,17.5,16.6,17.5,16.5,17.5"/>
	<path class="st28" d="M18.5,18.4c0.2,0.2,0.3,0.3,0.5,0.5c0.1-0.1,0.3-0.2,0.4-0.3c-0.2-0.2-0.4-0.4-0.6-0.5
		C18.7,18.3,18.6,18.3,18.5,18.4"/>
	
		<linearGradient id="SVGID_16_" gradientUnits="userSpaceOnUse" x1="-265.2784" y1="541.5389" x2="-265.1686" y2="541.8868" gradientTransform="matrix(32.4594 0 0 4.2491 8627.7783 -2284.251)">
		<stop  offset="0" style="stop-color:#97D6EE"/>
		<stop  offset="0.7033" style="stop-color:#55C1EA"/>
		<stop  offset="1" style="stop-color:#55C1EA"/>
	</linearGradient>
	<path class="st29" d="M16.5,17.5c0.1,0,0.2,0,0.3,0c0.8,0,1.4,0.2,2,0.6c0.6-0.5,1.4-0.7,2.4-0.7h-5C16.3,17.5,16.4,17.5,16.5,17.5
		"/>
	
		<linearGradient id="SVGID_17_" gradientUnits="userSpaceOnUse" x1="-264.3202" y1="500.0005" x2="-264.2139" y2="499.8301" gradientTransform="matrix(26.4722 0 0 7.484 7016.1914 -3723.4268)">
		<stop  offset="0" style="stop-color:#7ACCEC"/>
		<stop  offset="1" style="stop-color:#3FB7ED"/>
	</linearGradient>
	<path class="st30" d="M21.2,17.5c-1,0-1.8,0.2-2.4,0.7c0.2,0.1,0.4,0.3,0.6,0.5c0.9-0.5,1.7-0.9,2.5-1.1c0.3-0.1,0.6-0.1,1-0.1
		H21.2L21.2,17.5z"/>
	
		<linearGradient id="SVGID_18_" gradientUnits="userSpaceOnUse" x1="-269.269" y1="440.7575" x2="-269.269" y2="440.5698" gradientTransform="matrix(52.0449 0 0 -80.6355 14048.7041 35558.7148)">
		<stop  offset="0" style="stop-color:#1DA7E7"/>
		<stop  offset="1" style="stop-color:#37ABE7;stop-opacity:0"/>
	</linearGradient>
	<path class="st31" d="M33.4,26.3c0.4-1.4,1-3,1.6-5.1c0.6-1.8,1.6-3.2,3.5-3.8c0.1-0.1,0.1-0.2,0.1-0.3c-3.1,0.2-4.5,1.8-5.3,4.1
		c-1.3,4.1-2,6.7-2.8,8.4C31.6,28.7,32.5,27.6,33.4,26.3"/>
</g>
</svg>
