<svg id="logo" xmlns="http://www.w3.org/2000/svg" viewBox="0 0 176.01 161.57"><defs><style>.cls-1{fill:none;}.cls-2{fill:#45b7e9;}.cls-3{fill:#268ecd;}.cls-4{fill:#fff;}</style></defs><title>icon</title><path class="cls-1" d="M7102.61,7099.44c5.62-1,10.77-2.85,13.43-6a7.51,7.51,0,0,0,1.81-6.11c-.88-5.48-7.84-9.37-15.43-12,3.12-2.23,5.44-4.64,6.47-7.17a7.5,7.5,0,0,0-.36-6.75c-2.35-4.05-8.57-6.11-18.47-6.11h0c1.92-3.06,3.25-6.27,3.18-9.26a7.79,7.79,0,0,0-2.77-6,10.79,10.79,0,0,0-7.08-2.17,31.35,31.35,0,0,0-9.27,1.69,17.67,17.67,0,0,0-.56-7.34,8.51,8.51,0,0,0-4.73-5.38,8.93,8.93,0,0,0-3.53-.7c-3.6,0-8,2.06-12.5,5.67-2-7-5.61-11.36-10.3-11.88a7.25,7.25,0,0,0-.93,0c-4.1,0-8,3-11.2,8.28-3.82-4.66-8.08-7.73-12.35-7.73a8.58,8.58,0,0,0-1.35.1,8.84,8.84,0,0,0-6.14,4.22,19.66,19.66,0,0,0-2.62,8.73c-5.46-3.33-10.44-5.18-14.26-5.18a9.94,9.94,0,0,0-4.42,1,8,8,0,0,0-4.25,5.39,16.26,16.26,0,0,0,.78,8.91,49,49,0,0,0-9.52-1.09c-4.63,0-7.91,1-10,3.1a7.61,7.61,0,0,0-2.16,6.81c.51,3.3,2.92,6.81,6.41,10.24-9.57,1-19.93,3.55-22.46,9.53a7.41,7.41,0,0,0,.41,6.6c1.88,3.42,6.28,6.07,11.44,8.1-10.16,4.88-18.08,10.8-17.89,17.13.13,4.36,3.63,9.57,19.55,9.57,1.32,0,2.7,0,4.11-.11-8.89,9-17.07,20.07-12.77,27.17,1.15,1.91,3.63,4.2,8.87,4.2,4.7,0,11.25-1.91,18.83-5.38-3.41,8.82-5.18,16.9-4,22.44a9.68,9.68,0,0,0,4.32,6.53,9,9,0,0,0,4.7,1.25c6.87,0,16-7.09,24.83-17.25.62,10.7,2.68,20.44,7,25.42a9.77,9.77,0,0,0,7,3.62,1.41,1.41,0,0,1,.41,0c8.86,0,14.79-12.27,18.46-24.14,6,10.41,12.81,17.53,19.26,17.53a8.78,8.78,0,0,0,3.4-.68c7.71-3.22,8.67-16.1,6.67-30.36,7.95,5.76,15,9,20.05,9h0a8.78,8.78,0,0,0,7-3c4.78-5.59.92-15.69-4.37-24.69a46.64,46.64,0,0,0,8.88,1h0c8.2,0,10.91-3.47,11.74-6.39C7117.68,7113.54,7111.24,7106.11,7102.61,7099.44Z" transform="translate(-6941.93 -7019.93)"/><path class="cls-2" d="M7076.24,7088.1q-4.35-2.09-8.5-3.75c2.77-.56,5.58-1.23,8.41-2,19.53-5.36,31.94-13.76,28.93-18.91-2.89-5-19.41-5.53-38-1.14q-4,.95-7.77,2.09c1.31-1.91,2.57-3.91,3.74-6,7.87-13.81,9.35-25.65,4.2-27.85s-15.71,5.53-24.62,18.53c-1.34,1.93-2.56,3.89-3.67,5.85-.59-2.14-1.28-4.32-2.09-6.5-5.38-14.72-13.88-24.82-19.57-23.91s-7.42,13-3.11,28.5c.65,2.29,1.38,4.55,2.2,6.72q-3.47-2-7.3-3.79c-18-8.59-35.58-11.9-40.07-7.5-4.67,4.59,6.33,16,25.42,25.58,2.71,1.37,5.43,2.62,8.12,3.75-3.13.56-6.39,1.22-9.77,2-25.26,6-47,16.81-46.83,24.08.24,7.61,24.14,7.53,51.3.08,3.61-1,7.06-2,10.32-3.16-2.08,2.65-4.19,5.52-6.29,8.59-16.61,24.23-26.11,50.9-18.34,55.6,7.92,4.76,28.54-16.08,43.4-42.16q2.81-5,5-9.56,1,4.89,2.46,10.19c7.72,27.68,22,50.58,30.56,47,8.3-3.47,6.13-30.07-3.28-55.79q-1.8-4.94-3.76-9.32c2.78,1.65,5.74,3.26,8.85,4.82,22.91,11.56,43.89,15.4,45.87,8.44C7114,7112,7097.53,7098.28,7076.24,7088.1Z" transform="translate(-6941.93 -7019.93)"/><g id="Layer_2" data-name="Layer 2"><path class="cls-3" d="M7014.16,7096.18c-2.46.82-5.06,1.62-7.77,2.35a116.81,116.81,0,0,1-22.18,3.88c-18.64,14.42-31.6,30.15-27.95,36.18s21.8-.47,41.43-13.35a108.22,108.22,0,0,1,11.85-22.66C7011.07,7100.3,7012.62,7098.17,7014.16,7096.18Z" transform="translate(-6941.93 -7019.93)"/><path class="cls-3" d="M7009.9,7078.55c-2.11-.89-4.24-1.86-6.37-2.93a77.21,77.21,0,0,1-15-9.55c-18.91-.59-34.64,2.4-36.87,7.69s9.78,11.12,28.08,14.17a115.23,115.23,0,0,1,22.66-7.81Q7006.28,7079.19,7009.9,7078.55Z" transform="translate(-6941.93 -7019.93)"/><path class="cls-3" d="M7020.4,7064.26c-.67-1.75-1.28-3.57-1.81-5.42a50.08,50.08,0,0,1-2.17-13.95c-10.48-9.25-20.87-14.26-25.43-12s-2.38,11.09,5.12,21.74a86.73,86.73,0,0,1,18.49,6.59C7016.63,7062.21,7018.57,7063.22,7020.4,7064.26Z" transform="translate(-6941.93 -7019.93)"/><path class="cls-3" d="M7054.36,7067.86c2-.62,4.08-1.19,6.23-1.71a86.89,86.89,0,0,1,16.88-2.43c9.87-9.06,14.13-17.45,10.41-20.55-3.49-2.92-13.39-.59-24.6,5.59a48.68,48.68,0,0,1-5.84,14.28C7056.46,7064.7,7055.44,7066.32,7054.36,7067.86Z" transform="translate(-6941.93 -7019.93)"/><path class="cls-3" d="M7032.36,7105.57c-1.11,2.26-2.37,4.61-3.77,7a116.15,116.15,0,0,1-13.79,19.11c-2.15,24.4,1.5,45.4,9.77,45.79,7.93.37,15.86-18.37,19.42-41.31a98.77,98.77,0,0,1-9.75-23.09C7033.49,7110.49,7032.87,7108,7032.36,7105.57Z" transform="translate(-6941.93 -7019.93)"/><path class="cls-3" d="M7038.24,7060.3c.89-1.6,1.88-3.19,2.95-4.78a57.9,57.9,0,0,1,9.34-10.94c-.31-11.73-3.74-20.09-8.49-20.62s-9.65,6.33-12.68,17.06a53.1,53.1,0,0,1,7.23,14C7037.23,7056.78,7037.78,7058.56,7038.24,7060.3Z" transform="translate(-6941.93 -7019.93)"/><path class="cls-3" d="M7113.89,7088c-.8-5-12.9-10.15-28.94-12.91a72.07,72.07,0,0,1-17.6,7c-2.24.61-4.47,1.13-6.66,1.57,2.14.87,4.35,1.84,6.59,2.92a102.81,102.81,0,0,1,17,10.18C7102.23,7097,7114.77,7093.4,7113.89,7088Z" transform="translate(-6941.93 -7019.93)"/><path class="cls-3" d="M7052.27,7099.75c.95,2.2,1.88,4.53,2.76,7a102.67,102.67,0,0,1,5.19,21.16c15.89,15.75,31.79,24.72,36.4,19.33,4.25-5-3.13-20.23-15.92-35.75a97.2,97.2,0,0,1-21.7-8.07C7056.64,7102.22,7054.38,7101,7052.27,7099.75Z" transform="translate(-6941.93 -7019.93)"/></g><path class="cls-4" d="M7084.31,7096.74a104.2,104.2,0,0,0-17-10.17c-2.24-1.08-4.45-2-6.59-2.92,2.19-.44,4.42-1,6.66-1.57a72.07,72.07,0,0,0,17.6-7c4.89-2.92,7.32-5.88,6.14-8.11-1.26-2.39-6.47-3.49-13.62-3.26a86.89,86.89,0,0,0-16.88,2.43c-2.15.52-4.24,1.09-6.23,1.71,1.08-1.54,2.1-3.15,3.08-4.82a49,49,0,0,0,5.84-14.28c.91-4.57.31-7.86-1.91-8.83-2.44-1.08-6.46.77-10.84,4.65a58.13,58.13,0,0,0-9.34,10.93c-1.07,1.6-2.06,3.2-2.95,4.79-.46-1.74-1-3.51-1.65-5.29a53.1,53.1,0,0,0-7.23-14c-3-4.05-6.18-6.29-8.66-5.85-2.74.48-4.24,4.19-4.28,9.72a50.08,50.08,0,0,0,2.17,13.95c.53,1.85,1.14,3.67,1.81,5.42-1.83-1-3.77-2.05-5.8-3a86.73,86.73,0,0,0-18.49-6.59c-6.42-1.39-11.36-1.28-13.17.68-2,2.19.28,6.25,5.6,10.75a77.52,77.52,0,0,0,15,9.55c2.13,1.07,4.26,2,6.37,2.92q-3.61.65-7.49,1.58a115.23,115.23,0,0,0-22.66,7.81c-7.46,3.6-12.16,7.42-11.87,10.4.34,3.35,6.85,4.7,16.33,4.08a116.81,116.81,0,0,0,22.18-3.88c2.71-.73,5.31-1.53,7.77-2.35-1.54,2-3.09,4.12-4.62,6.4a108.22,108.22,0,0,0-11.85,22.66c-3.06,8.45-3.54,15-.35,16.8,3.52,2,10.27-2.43,17.45-10.35a115.59,115.59,0,0,0,13.8-19.11c1.4-2.4,2.66-4.75,3.77-7,.51,2.41,1.14,4.92,1.88,7.51a98.77,98.77,0,0,0,9.75,23.09c4.49,7.42,9.2,11.7,12.67,10.4,3.75-1.39,4.8-8.84,3.56-18.68a103.4,103.4,0,0,0-5.19-21.15c-.88-2.46-1.81-4.79-2.76-7,2.11,1.25,4.37,2.47,6.73,3.66a97.08,97.08,0,0,0,21.71,8.07c7.29,1.6,12.48,1.2,13.48-1.59C7095.25,7106.91,7091.23,7102,7084.31,7096.74Z" transform="translate(-6941.93 -7019.93)"/></svg>