<?xml version="1.0" encoding="utf-8"?>
<!-- Generator: Adobe Illustrator 21.1.0, SVG Export Plug-In . SVG Version: 6.00 Build 0)  -->
<svg version="1.1" id="Layer_1" xmlns="http://www.w3.org/2000/svg" xmlns:xlink="http://www.w3.org/1999/xlink" x="0px" y="0px"
	 viewBox="0 0 50 50" style="enable-background:new 0 0 50 50;" xml:space="preserve">
<style type="text/css">
	.st0{fill:#4675B9;}
	.st1{fill:#FFFFFF;}
</style>
<g>
	<g>
		<g>
			<g>
				<g>
					<g>
						<circle class="st0" cx="25" cy="25" r="24"/>
					</g>
				</g>
			</g>
		</g>
	</g>
	<g>
		<g>
			<path class="st1" d="M35.4,13H14.5c-1.4,0-2.5,1.1-2.5,2.5v18.5c0,1.4,1.1,2.5,2.5,2.5h17l6.4-6.3V15.5
				C37.9,14.1,36.8,13,35.4,13z M16.4,17.1c0-0.6,0.5-1.1,1.1-1.1c0.6,0,1.1,0.5,1.1,1.1c0,0.6-0.5,1.1-1.1,1.1
				C16.9,18.2,16.4,17.7,16.4,17.1z M25.5,30.4c-0.2,0.5-0.5,0.8-0.9,1.1c-0.4,0.3-0.8,0.6-1.3,0.7c-0.5,0.2-1.1,0.3-1.6,0.3
				c-0.7,0-1.3-0.1-1.8-0.3c-0.5-0.2-1-0.5-1.3-0.8c-0.3-0.4-0.6-0.8-0.8-1.3c-0.2-0.5-0.3-1.1-0.3-1.7h1.9c0,0.7,0.2,1.3,0.5,1.8
				c0.4,0.5,1,0.7,1.7,0.7c0.6,0,1.2-0.2,1.6-0.6c0.4-0.4,0.7-0.9,0.7-1.6c0-0.5-0.1-0.8-0.3-1.1c-0.2-0.3-0.4-0.5-0.7-0.6
				c-0.3-0.1-0.6-0.2-1-0.3c-0.4,0-0.7,0-1.1,0v-1.5c0.3,0,0.6,0,1-0.1c0.3-0.1,0.6-0.2,0.9-0.3c0.3-0.1,0.5-0.3,0.6-0.6
				c0.2-0.3,0.2-0.6,0.2-0.9c0-0.5-0.2-0.9-0.5-1.2c-0.3-0.3-0.8-0.5-1.3-0.5c-0.3,0-0.6,0.1-0.9,0.2c-0.3,0.1-0.5,0.3-0.6,0.6
				c-0.2,0.2-0.3,0.5-0.4,0.8c-0.1,0.3-0.1,0.6-0.1,0.9h-1.9c0-0.6,0.1-1.1,0.3-1.6c0.2-0.5,0.5-0.9,0.8-1.3
				c0.3-0.4,0.7-0.6,1.2-0.9c0.5-0.2,1-0.3,1.6-0.3c0.5,0,0.9,0.1,1.4,0.2s0.9,0.3,1.2,0.6c0.4,0.3,0.6,0.6,0.9,1
				c0.2,0.4,0.3,0.9,0.3,1.4c0,0.6-0.1,1.1-0.4,1.6s-0.7,0.8-1.3,1v0c0.7,0.1,1.2,0.5,1.6,1c0.4,0.5,0.6,1.2,0.6,2
				C25.8,29.4,25.7,29.9,25.5,30.4z M32,32.3h-2.1v-8.4h-2.9v-1.5c0.4,0,0.8,0,1.2-0.1c0.4-0.1,0.7-0.2,1.1-0.3
				c0.3-0.2,0.6-0.4,0.8-0.6c0.2-0.3,0.4-0.6,0.4-0.9H32V32.3z M32.5,18.2c-0.6,0-1.1-0.5-1.1-1.1c0-0.6,0.5-1.1,1.1-1.1
				c0.6,0,1.1,0.5,1.1,1.1C33.6,17.7,33.1,18.2,32.5,18.2z"/>
		</g>
	</g>
</g>
</svg>
