<?xml version="1.0" encoding="utf-8"?>
<!-- Generator: Adobe Illustrator 21.1.0, SVG Export Plug-In . SVG Version: 6.00 Build 0)  -->
<svg version="1.1" xmlns="http://www.w3.org/2000/svg" xmlns:xlink="http://www.w3.org/1999/xlink" x="0px" y="0px"
	 viewBox="0 0 50 50" style="enable-background:new 0 0 50 50;" xml:space="preserve">
<style type="text/css">
	.st0{fill:#D7D8D9;}
	.st1{fill:#2F7CB9;}
	.st2{fill:#EAEAE9;}
</style>
<g id="Layer_3">
</g>
<g id="Layer_1">
	<path class="st0" d="M35.2,3.3C35.2,3.3,35.1,3.2,35.2,3.3C35.1,3.2,35.2,3.3,35.2,3.3L35.2,3.3z"/>
	<circle class="st1" cx="25" cy="25" r="24"/>
	<path class="st2" d="M26.3,19.8c-2.5,0-4.7,1.4-5.8,3.5c-1.1-2.1-3.3-3.5-5.8-3.5c-1.5,0-2.8,0.5-3.9,1.3v-5.5h0
		c0-0.7-0.6-1.3-1.3-1.3s-1.3,0.6-1.3,1.3h0v10.9h0c0.1,3.6,3,6.5,6.6,6.5c2.5,0,4.7-1.4,5.8-3.5c1.1,2.1,3.3,3.5,5.8,3.5
		c3.6,0,6.6-2.9,6.6-6.6C32.8,22.7,29.9,19.8,26.3,19.8z M14.7,30.3c-2.2,0-3.9-1.8-3.9-3.9c0-2.2,1.8-3.9,3.9-3.9
		c2.2,0,3.9,1.8,3.9,3.9C18.6,28.5,16.8,30.3,14.7,30.3z M26.3,30.3c-2.2,0-3.9-1.8-3.9-3.9c0-2.2,1.8-3.9,3.9-3.9
		c2.2,0,3.9,1.8,3.9,3.9C30.2,28.5,28.4,30.3,26.3,30.3z"/>
	<path class="st2" d="M41.6,30.9l-3.4-4.5l3.4-4.5l0,0c0.4-0.6,0.3-1.4-0.3-1.8c-0.6-0.4-1.4-0.3-1.8,0.2l0,0l-2.9,3.9l-2.9-3.9l0,0
		c-0.4-0.6-1.2-0.7-1.8-0.2c-0.6,0.4-0.7,1.2-0.3,1.8l0,0l3.4,4.5l-3.4,4.5l0,0c-0.4,0.6-0.3,1.4,0.3,1.8c0.6,0.4,1.4,0.3,1.8-0.2
		l0,0l2.9-3.9l2.9,3.9l0,0c0.4,0.6,1.2,0.7,1.8,0.2C41.9,32.3,42.1,31.4,41.6,30.9L41.6,30.9z"/>
</g>
<g id="Layer_2">
</g>
</svg>
