<?xml version="1.0" encoding="utf-8"?>
<!-- Generator: Adobe Illustrator 21.1.0, SVG Export Plug-In . SVG Version: 6.00 Build 0)  -->
<svg version="1.1" xmlns="http://www.w3.org/2000/svg" xmlns:xlink="http://www.w3.org/1999/xlink" x="0px" y="0px"
	 viewBox="0 0 50 50" style="enable-background:new 0 0 50 50;" xml:space="preserve">
<style type="text/css">
	.st0{fill:#D7D8D9;}
	.st1{fill:#BDE6FA;}
	.st2{fill:#D1EDFA;}
	.st3{fill:#3889B1;}
	.st4{fill:#F4F5F5;}
	.st5{fill:#2A2829;}
</style>
<g id="Layer_3">
</g>
<g id="Layer_1">
	<path class="st0" d="M35.2,3.3C35.2,3.3,35.1,3.2,35.2,3.3C35.1,3.2,35.2,3.3,35.2,3.3L35.2,3.3z"/>
	<g>
		<path class="st1" d="M10.6,25.7c-0.6-7.9,27.2-8.7,27.2-2S16.7,35.1,10.6,25.7z"/>
		<path class="st2" d="M15.3,20.6c0.2-0.6,14.9-4.3,17,0.7C35.1,31.7,13.2,36,15.3,20.6z"/>
		<path class="st3" d="M17,20.6c0.2-0.5,12-3.6,13.8,0.6C33,29.9,15.3,33.6,17,20.6z"/>
		<polygon class="st4" points="24.6,22 25.2,19.9 25.2,22 26.4,20.2 25.8,22.3 27.4,20.9 26.3,22.7 28.2,21.8 26.6,23.2 28.7,23 
			26.8,23.8 28.9,24.2 26.7,24.5 28.6,25.5 26.5,25 28,26.6 26.2,25.5 27.1,27.4 25.6,25.9 26,28 25.1,26.1 24.8,28.2 24.4,26.1 
			23.6,28.1 23.8,26 22.4,27.6 23.3,25.6 21.5,26.8 22.9,25.2 20.8,25.7 22.7,24.6 20.5,24.5 22.6,24 20.6,23.2 22.7,23.3 21,22.1 
			23,22.8 21.7,21.1 23.4,22.4 22.7,20.3 24,22.1 23.9,19.9 		"/>
		<path class="st4" d="M21.1,28.8c0,0-2.3-2.9-1.6-5.8c0.4-1.7,1.6-3.1,3.7-4.1l0.1,0.2c-2.1,1-3.3,2.3-3.7,4
			c-0.6,2.8,1.6,5.6,1.6,5.7L21.1,28.8z"/>
		<g>
			
				<image style="overflow:visible;opacity:0.75;" width="41" height="36" xlink:href="D18129167B7F7EEB.png"  transform="matrix(1 0 0 1 44.8562 45.6562)">
			</image>
			<g>
				<path class="st4" d="M29.7,25.9c0,0-1.8-1-3.1-1.1c-1.3-0.1-4.2,0-4.2,0l0,0l0,0c-2.6-1-3.4-3-3.8-4.9l0.2,0
					c0.4,1.8,1.2,3.7,3.7,4.7c0.2,0,2.9-0.1,4.2,0c1.4,0.1,3.1,1.1,3.2,1.2L29.7,25.9z"/>
			</g>
		</g>
		<path class="st4" d="M27.1,23.5l-0.1-0.2c1.6-0.8,2.5-2.1,2.4-3.8l0.2,0C29.8,21.3,28.9,22.7,27.1,23.5z"/>
		<circle class="st4" cx="19.6" cy="26" r="1"/>
		<circle class="st4" cx="21" cy="20.5" r="0.8"/>
		<circle class="st4" cx="29.1" cy="21.6" r="0.8"/>
		<path class="st5" d="M4.6,27.5c15-10.8,24.3-9.9,34.8-4.5c0,0,4.3-0.3,6.4-3.5c-1.9,1.8-3.4,2.1-3.8,2c-0.3,0,2.5-3,2.4-3.3
			c-1.1,1.3-4,2.8-4.5,2.7c-1.1-0.1,2.5-3.8,2.2-4.1c-0.8,1.1-3.3,3.6-3.8,3.6c1.4-1.8,2-3.5,2-3.5c-1,1.3-2,2.4-3.2,3
			c-0.1-0.1,1.1-1.6,1.8-2.9c0,0-2.6,2.6-3.1,2.8c-0.7,0.3-0.8-0.1-0.8-0.1c0.7-0.9,1.3-1.8,1.8-2.9c-0.8,1-1.7,1.7-2.5,2.5
			c-0.3-0.1-0.4-0.1-0.5-0.5l0.5-1c0,0-1.1,0.8-1.4,0.7s1.4-2.2,1.4-2.2s-2,2-2.3,2c-0.8,0.2,0.3-1.9,0.3-1.9s-1.2,1.4-1.6,1.6
			c-0.3,0.2-0.5,0.1-1-0.2l0.8-1.5c-0.7,0.9-1.6,1.3-2.7,1.3l0-0.8c-0.4,0.4-0.9,0.6-1.4,0.5C26,17.4,26,17,26,16.6
			c-0.3,0.6-0.9,1.3-1.2,1.3c-0.3-0.1-0.1-1.2-0.1-1.2c-0.4,0.7-0.7,1.3-1.1,1.2c-0.5,0-0.4-0.9-0.4-0.9s-0.4,0.8-0.4,0.9
			c0,0.4-0.8-0.5-0.8-0.8c0,0-0.3,0.8-0.7,1.1C16,19.2,8.8,22.7,4.6,27.5z"/>
		<path class="st5" d="M4.2,28.9c1.7,0.8,5.3,0.6,8.4,0.6c0.7-0.3,5.2,1,6.4,1.4C35,32,38.6,23.3,38.6,23.3c0.8-0.3,1.5-0.2,2.3,0.7
			l-1,0.1l1.6,1.3l-1.5-0.1l1.9,2l-2-1.2c-0.2,0.6-0.1,1.1,0.5,1.4l-3.2-0.9c-0.4,0.6,0.2,1.3,1.1,1.9l-1.4-0.3c0.1,1,0.9,2.2,2,3.5
			l-3.3-2.8l0.6,1.6l-1.6-1.1c-0.3,0.7,0.5,2.5,1.6,4.6l-3.5-3.9c-0.5,0.7,0.3,3.3,1,5.7c-0.6-2.2-1.3-3.9-2.5-4.7l-1.3,0.3
			c-0.1,0.8,0.1,1.7,0.6,2.5c-0.7-0.8-1.3-1.9-2-2.4c-0.8,0.4,0.9,3.2,1,5.8c-0.7-2.3-1.6-3.9-2.8-5c0.1,2.1-0.1,3.1-0.6,4.8
			c0.3-1.9,0.4-3.8-0.2-4.9c-0.8-0.4-1.2-0.3-1.5,0l-0.2,2.6c0,0-0.7-2.8-1.3-2.8c-0.5,0.1-1.9,2.7-2.9,4.7l1.4-4.7
			c-0.7,0.1-1.1,0.9-1.5,1.8c0.1-0.7,0.2-1.4-0.3-1.9c-0.9,0.8-1.6,1.3-2.3,1.7c0.6-0.7,1-1.4,0.6-2c-1.2-0.6-2.2,0.2-3.2,1
			c0.2-0.7,0.5-1.4,0-1.8c-1.2,0.3-2.2,1-3.2,1.9c0.7-0.8,1.2-1.5,0.9-2.4c0,0-4.9,0.1-7-0.2C4.7,29.7,4.2,28.9,4.2,28.9z"/>
	</g>
</g>
<g id="Layer_2">
</g>
</svg>
