<?xml version="1.0" encoding="utf-8"?>
<!-- Generator: Adobe Illustrator 21.1.0, SVG Export Plug-In . SVG Version: 6.00 Build 0)  -->
<svg version="1.1" xmlns="http://www.w3.org/2000/svg" xmlns:xlink="http://www.w3.org/1999/xlink" x="0px" y="0px"
	 viewBox="0 0 50 50" style="enable-background:new 0 0 50 50;" xml:space="preserve">
<style type="text/css">
	.st0{fill:#D7D8D9;}
	.st1{fill:#FFFFFF;}
	.st2{fill:#D72E27;}
	.st3{fill:#A41F22;}
	.st4{fill:#FFFAF7;}
	.st5{fill:#AC2324;}
	.st6{fill:#7A1515;}
</style>
<g id="Layer_3">
</g>
<g id="Layer_1">
	<path class="st0" d="M35.2,3.3C35.2,3.3,35.1,3.2,35.2,3.3C35.1,3.2,35.2,3.3,35.2,3.3L35.2,3.3z"/>
	<g id="Layer_2_1_">
	</g>
	<g id="Layer_2_2_">
	</g>
	<g>
		<path class="st1" d="M40.8,28.8c0.1-0.4-0.2-0.6-0.4-0.8c-0.3-0.2-0.6-0.2-0.8-0.4c0.3-0.2,0.6-0.4,0.8-0.6
			c0.2-0.2,0.4-0.3,0.4-0.6c0-1,0-2,0-3c0.1-0.4-0.1-0.6-0.4-0.7c-0.3-0.2-0.7-0.3-1-0.5c0.3-0.3,0.7-0.4,1-0.6
			c0.2-0.2,0.5-0.3,0.5-0.7c0-1,0-2,0-2.9c0.1-0.4-0.1-0.6-0.4-0.8c-0.4-0.2-0.9-0.4-1.3-0.5c-3.7-1.5-7.5-2.9-11.2-4.4
			c-0.7-0.3-1.5-0.6-2.3-0.6c-0.9-0.1-1.7,0.2-2.4,0.5c-4.2,1.6-8.4,3.2-12.6,4.9C10,17.2,9.4,17.4,9,17.8c-0.2,0.2-0.4,0.3-0.4,0.6
			c0,1,0,1.9,0,2.9c0,0.3,0.1,0.5,0.3,0.6c0.3,0.3,0.8,0.5,1.2,0.7c0,0.2-0.1,0.2-0.2,0.2c-0.3,0.1-0.6,0.2-0.9,0.4
			c-0.2,0.2-0.5,0.3-0.4,0.7c0,1,0,2,0,2.9c0,0.2,0.1,0.4,0.2,0.5c0.3,0.3,0.7,0.4,1,0.7c-0.2,0.2-0.6,0.3-0.8,0.5
			c-0.2,0.2-0.5,0.3-0.4,0.7c0,0.8,0,1.7,0,2.5c-0.1,0.7,0.3,1.1,0.9,1.4c0.1,0.1,0.2,0.1,0.4,0.2c4.4,2,8.9,3.7,13.3,5.7
			c0.8,0.3,1.6,0.4,2.4,0.1c0.6-0.2,1.2-0.5,1.8-0.8c3.4-1.6,6.9-3,10.3-4.5c1-0.4,1.9-0.8,2.8-1.4c0.2-0.1,0.4-0.3,0.4-0.6
			C40.9,30.8,40.9,29.8,40.8,28.8z"/>
		<path class="st2" d="M8.6,18.4c-0.1-0.3,0.1-0.5,0.4-0.6c0.5-0.3,1-0.5,1.6-0.7c4.2-1.6,8.4-3.3,12.6-4.9c0.8-0.3,1.6-0.5,2.4-0.5
			c0.8,0.1,1.5,0.4,2.3,0.6c3.7,1.5,7.5,2.9,11.2,4.4c0.4,0.2,0.9,0.3,1.3,0.5c0.3,0.2,0.5,0.4,0.4,0.8c-0.4,0.4-0.9,0.7-1.5,1
			c-1.8,0.8-3.6,1.6-5.4,2.4c-2.6,1.1-5.2,2.2-7.7,3.4c-1,0.5-2.1,0.6-3.1,0.1c-0.3-0.1-0.7-0.3-1-0.5c-1.7-0.7-3.5-1.5-5.2-2.2
			c-2.3-1-4.7-2-7-3C9.4,19.1,8.9,18.8,8.6,18.4z M32.3,19.6c1.5-0.6,2.9-1.1,4.4-1.7c-0.8-0.4-1.7-0.7-2.5-1.1
			c-0.6-0.2-1.2-0.5-1.9-0.7c-0.1,0-0.1,0-0.2,0c-1,0.4-1.9,0.8-2.9,1.2c-0.6,0.2-1.2,0.5-1.8,0.7c0.1,0,0.1,0.1,0.1,0.1
			c1.3,0.5,2.5,1,3.8,1.5C31.7,19.8,32,19.8,32.3,19.6z M18.2,19.7c0.9,0,1.8-0.1,2.7-0.4c0.3-0.1,0.6-0.3,0.9-0.5
			c0.5-0.4,0.5-0.9,0-1.4c-0.3-0.2-0.6-0.4-0.9-0.5c-1.7-0.5-3.4-0.5-5.1-0.1c-0.4,0.1-0.7,0.3-1,0.5c-0.6,0.5-0.6,1,0,1.5
			c0.3,0.2,0.6,0.3,0.9,0.4C16.3,19.6,17.2,19.7,18.2,19.7z M20.2,20.8C20.3,20.9,20.3,20.9,20.2,20.8c1.7,0.8,3.4,1.4,5,2.1
			c0.2,0.1,0.3,0,0.3-0.1c0.5-0.8,1.1-1.6,1.6-2.4c0.1-0.2,0.3-0.4,0.5-0.7C25.1,20.1,22.7,20.5,20.2,20.8z M21.5,15.5
			C21.5,15.5,21.5,15.5,21.5,15.5c0.9,0.2,1.7,0.2,2.6,0.3c0.3,0,0.5,0.1,0.7,0.4c0.2,0.4,0.5,0.8,0.8,1.3c0.2-0.5,0.4-0.9,0.5-1.3
			c0.1-0.2,0.2-0.3,0.4-0.3c0.5,0,1-0.1,1.6-0.2c0.3,0,0.6-0.1,0.8-0.1c-0.6-0.3-1.1-0.5-1.7-0.7c-0.3-0.1-0.3-0.2-0.2-0.5
			c0.2-0.3,0.3-0.7,0.4-1c-0.7,0.2-1.3,0.4-1.9,0.6c-0.2,0.1-0.4,0.1-0.6,0c-0.6-0.2-1.1-0.4-1.7-0.7c-0.1,0-0.2-0.1-0.3,0
			c0.2,0.4,0.4,0.8,0.7,1.2C22.9,14.9,22.2,15.2,21.5,15.5z"/>
		<path class="st3" d="M8.6,18.4c0.3,0.5,0.8,0.7,1.3,0.9c2.3,1,4.7,2,7,3c1.7,0.7,3.5,1.5,5.2,2.2c0.3,0.1,0.7,0.3,1,0.5
			c1.1,0.4,2.1,0.4,3.1-0.1c2.5-1.2,5.1-2.3,7.7-3.4c1.8-0.8,3.6-1.6,5.4-2.4c0.5-0.2,1.1-0.5,1.5-1c0,1,0,2,0,2.9
			c0,0.4-0.3,0.5-0.5,0.7c-0.3,0.2-0.7,0.3-1,0.6c-1.5,0.7-3,1.4-4.6,2c-2.8,1.2-5.6,2.4-8.3,3.7c-1,0.5-2.1,0.7-3.2,0.2
			c-1.5-0.6-3-1.3-4.5-1.9c-2.1-0.9-4.3-1.8-6.4-2.7c-0.8-0.3-1.5-0.6-2.3-1c-0.4-0.2-0.8-0.4-1.2-0.7c-0.2-0.2-0.3-0.4-0.3-0.6
			C8.6,20.3,8.6,19.3,8.6,18.4z"/>
		<path class="st3" d="M40.8,23.5c0,1,0,2,0,3c0,0.3-0.2,0.5-0.4,0.6c-0.3,0.2-0.6,0.4-0.8,0.6c-1.6,0.8-3.3,1.5-5,2.2
			c-2.7,1.2-5.4,2.3-8,3.6c-1.1,0.5-2.3,0.7-3.4,0.2c-1-0.4-2-0.8-2.9-1.3c-2.1-0.9-4.3-1.8-6.4-2.7c-1.3-0.6-2.7-1.1-4-1.7
			c-0.3-0.3-0.7-0.4-1-0.7c-0.1-0.2-0.2-0.3-0.2-0.5c0-1,0-2,0-2.9c0.3,0.4,0.6,0.6,1,0.8c2.2,1.1,4.5,1.9,6.8,2.9
			c2.2,0.9,4.4,1.8,6.5,2.7c1.1,0.5,2.2,0.5,3.3,0c1.3-0.6,2.6-1.2,3.9-1.8c1.6-0.7,3.2-1.4,4.8-2.1c1.7-0.7,3.3-1.4,4.9-2.2
			C40.2,24.1,40.6,23.9,40.8,23.5z"/>
		<path class="st3" d="M40.8,28.8c0,1,0,2,0,3c0,0.3-0.2,0.5-0.4,0.6c-0.9,0.6-1.8,1-2.8,1.4c-3.4,1.5-6.9,2.9-10.3,4.5
			c-0.6,0.3-1.2,0.6-1.8,0.8c-0.8,0.2-1.6,0.2-2.4-0.1c-4.4-2-8.9-3.7-13.3-5.7c-0.1-0.1-0.2-0.1-0.4-0.2c-0.6-0.3-1-0.7-0.9-1.4
			c0.1-0.8,0-1.7,0-2.5c0.2,0.4,0.6,0.6,1,0.8c2.3,1.1,4.8,2,7.1,3c2,0.9,4.1,1.7,6.1,2.6c1,0.5,2.1,0.6,3.1,0.1
			c1.2-0.5,2.4-1.1,3.6-1.6c1.8-0.8,3.5-1.5,5.3-2.3c1.6-0.7,3.3-1.4,4.9-2.2C40.2,29.4,40.6,29.2,40.8,28.8z"/>
		<path class="st2" d="M40.8,23.5c-0.2,0.4-0.6,0.6-1,0.8c-1.6,0.8-3.3,1.5-4.9,2.2c-1.6,0.7-3.2,1.4-4.8,2.1
			c-1.3,0.6-2.6,1.2-3.9,1.8c-1.1,0.5-2.2,0.4-3.3,0c-2.1-1-4.3-1.8-6.5-2.7c-2.3-1-4.5-1.8-6.8-2.9c-0.4-0.2-0.8-0.4-1-0.8
			c-0.1-0.3,0.2-0.5,0.4-0.7c0.3-0.2,0.6-0.3,0.9-0.4c0.1,0,0.2,0,0.2-0.2c0.7,0.4,1.5,0.7,2.3,1c2.1,0.9,4.3,1.8,6.4,2.7
			c1.5,0.6,3,1.3,4.5,1.9c1.1,0.5,2.2,0.3,3.2-0.2c2.7-1.3,5.6-2.5,8.3-3.7c1.5-0.7,3.1-1.3,4.6-2c0.3,0.2,0.7,0.3,1,0.5
			C40.7,22.9,40.9,23.1,40.8,23.5z"/>
		<path class="st2" d="M40.8,28.8c-0.3,0.4-0.7,0.6-1.1,0.8c-1.6,0.8-3.2,1.5-4.9,2.2c-1.8,0.8-3.5,1.5-5.3,2.3
			c-1.2,0.5-2.4,1.1-3.6,1.6c-1,0.5-2.1,0.4-3.1-0.1c-2-0.9-4.1-1.7-6.1-2.6c-2.4-1-4.8-1.9-7.1-3c-0.4-0.2-0.7-0.4-1-0.8
			c-0.1-0.4,0.2-0.5,0.4-0.7c0.2-0.2,0.6-0.2,0.8-0.5c1.3,0.6,2.6,1.1,4,1.7c2.1,0.9,4.3,1.8,6.4,2.7c1,0.4,2,0.8,2.9,1.3
			c1.2,0.5,2.3,0.3,3.4-0.2c2.6-1.3,5.3-2.4,8-3.6c1.7-0.7,3.3-1.4,5-2.2c0.2,0.2,0.6,0.2,0.8,0.4C40.7,28.3,40.9,28.4,40.8,28.8z"
			/>
		<path class="st4" d="M18.2,19.7c-0.9,0-1.8-0.1-2.7-0.4c-0.3-0.1-0.6-0.2-0.9-0.4c-0.6-0.5-0.6-1,0-1.5c0.3-0.2,0.7-0.4,1-0.5
			c1.7-0.5,3.4-0.5,5.1,0.1c0.3,0.1,0.7,0.3,0.9,0.5c0.5,0.4,0.5,0.9,0,1.4c-0.3,0.2-0.6,0.4-0.9,0.5C20,19.6,19.1,19.7,18.2,19.7z"
			/>
		<path class="st4" d="M20.2,20.8c2.5-0.4,4.9-0.8,7.4-1.1c-0.2,0.3-0.3,0.5-0.5,0.7c-0.5,0.8-1.1,1.6-1.6,2.4
			c-0.1,0.1-0.1,0.2-0.3,0.1C23.6,22.3,21.9,21.6,20.2,20.8C20.3,20.9,20.3,20.9,20.2,20.8z"/>
		<path class="st4" d="M21.5,15.5c0.7-0.3,1.5-0.5,2.2-0.8c-0.2-0.4-0.5-0.8-0.7-1.2c0.1-0.1,0.2,0,0.3,0c0.6,0.2,1.1,0.4,1.7,0.7
			c0.2,0.1,0.4,0.1,0.6,0c0.6-0.2,1.2-0.4,1.9-0.6c-0.2,0.4-0.3,0.7-0.4,1c-0.1,0.3-0.1,0.4,0.2,0.5c0.6,0.2,1.1,0.4,1.7,0.7
			c-0.3,0-0.6,0.1-0.8,0.1c-0.5,0.1-1,0.1-1.6,0.2c-0.2,0-0.3,0.1-0.4,0.3c-0.2,0.4-0.3,0.8-0.5,1.3c-0.3-0.5-0.6-0.9-0.8-1.3
			c-0.2-0.3-0.4-0.4-0.7-0.4C23.2,15.7,22.3,15.6,21.5,15.5C21.5,15.5,21.5,15.5,21.5,15.5z"/>
		<path class="st5" d="M32.3,19.6c-0.3,0.2-0.6,0.2-1,0c-1.3-0.5-2.5-1-3.8-1.5c0,0-0.1,0-0.1-0.1c0.6-0.3,1.2-0.5,1.8-0.7
			c1-0.4,1.9-0.8,2.9-1.2c0.1,0,0.1,0,0.2,0C32.3,17.3,32.3,18.5,32.3,19.6z"/>
		<path class="st6" d="M32.3,19.6c0-1.1,0-2.3,0-3.4c0.7,0.2,1.3,0.5,1.9,0.7c0.8,0.3,1.6,0.6,2.5,1.1C35.2,18.5,33.8,19,32.3,19.6z
			"/>
	</g>
</g>
<g id="Layer_2">
</g>
</svg>
