<?xml version="1.0" standalone="no"?>
<!DOCTYPE svg PUBLIC "-//W3C//DTD SVG 20010904//EN"
 "http://www.w3.org/TR/2001/REC-SVG-20010904/DTD/svg10.dtd">
<svg version="1.0" xmlns="http://www.w3.org/2000/svg"
 width="250.000000pt" height="250.000000pt" viewBox="0 0 250.000000 250.000000"
 preserveAspectRatio="xMidYMid meet">

<g transform="translate(0.000000,250.000000) scale(0.100000,-0.100000)"
fill="#000000" stroke="none">
<path d="M779 1515 c-20 -11 -43 -56 -108 -212 -46 -109 -90 -211 -98 -227
l-15 -29 -118 5 c-183 8 -210 33 -210 201 0 155 28 180 212 185 l128 4 0 39 0
39 -143 0 c-137 0 -146 -1 -197 -27 -44 -23 -59 -37 -80 -78 -23 -45 -25 -61
-25 -170 1 -104 4 -126 22 -161 51 -97 112 -117 341 -112 l154 3 90 228 c49
125 93 227 97 227 4 0 48 -102 97 -227 l89 -228 53 -3 c28 -2 52 1 52 5 0 4
-19 53 -41 108 -174 417 -189 445 -247 445 -15 -1 -38 -7 -53 -15z"/>
<path d="M1287 1520 c-130 -33 -174 -112 -165 -301 3 -71 9 -105 27 -141 46
-96 108 -110 461 -106 l255 3 3 118 3 117 139 0 139 0 3 -117 3 -118 50 0 50
0 0 270 0 270 -52 3 -53 3 0 -110 0 -111 -140 0 -140 0 0 110 0 110 -55 0 -55
0 0 -229 0 -229 -62 -4 c-35 -2 -64 -3 -66 -2 -1 0 9 25 23 55 20 44 25 69 25
134 -1 207 -63 275 -260 281 -52 2 -112 -1 -133 -6z m215 -90 c50 -23 62 -55
66 -170 4 -116 -11 -163 -59 -187 -29 -15 -177 -17 -213 -3 -58 22 -90 142
-66 253 15 72 40 103 93 116 52 12 142 8 179 -9z"/>
<path d="M817 1193 c-3 -10 -23 -64 -45 -120 l-40 -103 94 0 c52 0 94 4 94 8
0 13 -81 216 -89 225 -5 5 -11 0 -14 -10z"/>
<path d="M2350 1035 c0 -15 -3 -15 -15 -5 -11 9 -19 10 -26 3 -15 -15 -8 -44
14 -57 36 -23 76 36 42 64 -12 10 -15 10 -15 -5z m12 -47 c-13 -13 -52 0 -52
18 0 8 5 14 11 14 5 0 8 -4 4 -9 -3 -5 -1 -12 5 -16 5 -3 15 4 22 15 11 17 14
18 16 4 2 -9 -1 -21 -6 -26z"/>
</g>
</svg>
