<?xml version="1.0" encoding="utf-8"?>
<!-- Generator: Adobe Illustrator 21.1.0, SVG Export Plug-In . SVG Version: 6.00 Build 0)  -->
<svg version="1.1" id="Layer_1" xmlns="http://www.w3.org/2000/svg" xmlns:xlink="http://www.w3.org/1999/xlink" x="0px" y="0px"
	 viewBox="0 0 50 50" style="enable-background:new 0 0 50 50;" xml:space="preserve">
<style type="text/css">
	.st0{fill:#ED6E23;}
	.st1{fill:#FFDBA4;}
</style>
<g>
	<path class="st0" d="M30.7,22.5V19c1.2-0.3,2.1-1.4,2.1-2.7c0-1.6-1.3-2.9-2.9-2.9c-1.6,0-2.9,1.3-2.9,2.9c0,1.2,0.8,2.2,1.8,2.7
		v3.6c-1,0.1-1.9,0.4-2.7,0.9L16.4,16c0.1-0.4,0.2-0.8,0.2-1.2c0-1.7-1.4-3.1-3.1-3.1c-1.7,0-3.1,1.4-3.1,3.1c0,1.7,1.4,3.1,3.1,3.1
		c0.7,0,1.3-0.2,1.8-0.5l9.4,7.1c-1.5,1.4-2.4,3.3-2.4,5.5c0,2.7,1.4,5.1,3.6,6.4L23.5,40c-0.1,0-0.2,0-0.3,0C22,40,21,41,21,42.3
		c0,1.3,1,2.3,2.3,2.3c1.3,0,2.3-1,2.3-2.3c0-0.5-0.2-1-0.5-1.4l2.4-3.8c0.7,0.2,1.5,0.4,2.3,0.4c4.1,0,7.5-3.4,7.5-7.5
		C37.3,26.1,34.4,22.9,30.7,22.5 M29.9,34.4c-2.4,0-4.4-2-4.4-4.4c0-2.4,2-4.4,4.4-4.4c2.4,0,4.4,2,4.4,4.4
		C34.3,32.4,32.3,34.4,29.9,34.4z"/>
	<path class="st1" d="M12.2,14c-0.3,0.5-0.7,0.8-0.9,0.7c-0.2-0.1-0.1-0.6,0.2-1.1c0.3-0.5,0.7-0.8,0.9-0.7
		C12.6,12.9,12.5,13.5,12.2,14"/>
	<path class="st1" d="M30,14.1c0.6,0.1,1.1,0.3,1,0.5c-0.1,0.2-0.6,0.4-1.3,0.3c-0.6-0.1-1.1-0.3-1-0.5C28.8,14.2,29.4,14.1,30,14.1
		"/>
	<path class="st1" d="M22.1,40.9c0.5-0.4,0.9-0.6,1-0.4c0.1,0.2-0.1,0.7-0.6,1.2c-0.5,0.4-0.9,0.6-1,0.4
		C21.4,41.8,21.7,41.3,22.1,40.9"/>
</g>
</svg>
