<?xml version="1.0" encoding="utf-8"?>
<!-- Generator: Adobe Illustrator 22.0.1, SVG Export Plug-In . SVG Version: 6.00 Build 0)  -->
<svg version="1.1" id="Content" xmlns="http://www.w3.org/2000/svg" xmlns:xlink="http://www.w3.org/1999/xlink" x="0px" y="0px"
	 width="192px" height="192px" viewBox="0 0 192 192" enable-background="new 0 0 192 192" xml:space="preserve">
<rect id="bounding_box" opacity="0.4" fill="none" width="192" height="192"/>
<g id="logo_x5F_admanager_x5F_192px">
	<linearGradient id="SVGID_1_" gradientUnits="userSpaceOnUse" x1="96" y1="25" x2="12.9225" y2="108.0775">
		<stop  offset="0" style="stop-color:#1A6DDD"/>
		<stop  offset="0.1393" style="stop-color:#2976E6"/>
		<stop  offset="0.339" style="stop-color:#377FEE"/>
		<stop  offset="0.5838" style="stop-color:#4084F3"/>
		<stop  offset="1" style="stop-color:#4285F4"/>
	</linearGradient>
	<path fill="url(#SVGID_1_)" d="M84,13L12.92,84.31c-6.56,6.56-6.56,17.21,0,23.77s17.21,6.56,23.77,0L108,37L84,13z"/>
	<path fill="#34A853" d="M108.01,37c-6.64,6.64-17.39,6.66-24.03,0.02S77.36,19.63,84,12.98c6.64-6.64,17.39-6.66,24.04-0.02
		S114.66,30.36,108.01,37z"/>
	<path fill="#FBBC04" d="M179.09,84.04c-6.55-6.56-17.16-6.56-23.71-0.02l-0.01-0.01L84,155l23.89,24.11l71.22-71.33l-0.01-0.01
		C185.64,101.22,185.63,90.59,179.09,84.04z"/>
	<circle fill="#34A853" cx="96" cy="167" r="17"/>
	<path fill="#FBBC04" d="M144.02,47.99c-6.64-6.65-17.39-6.65-24.03,0c-0.14,0.14-0.26,0.29-0.39,0.44L84,84l24,24l35.59-35.55
		c0.14-0.13,0.29-0.25,0.43-0.39C150.66,65.41,150.66,54.63,144.02,47.99z"/>
	<linearGradient id="SVGID_2_" gradientUnits="userSpaceOnUse" x1="95.9304" y1="96.0592" x2="47.9482" y2="144.0414">
		<stop  offset="0" style="stop-color:#1A6DDD"/>
		<stop  offset="0.1326" style="stop-color:#2775E5"/>
		<stop  offset="0.3558" style="stop-color:#367EED"/>
		<stop  offset="0.6162" style="stop-color:#3F83F2"/>
		<stop  offset="1" style="stop-color:#4285F4"/>
	</linearGradient>
	<path fill="url(#SVGID_2_)" d="M83.95,84.07l-36.19,36.15c-6.62,6.6-6.36,17.26,0.25,23.87c6.61,6.6,17.08,6.65,23.69,0.05
		l36.22-36.06L83.95,84.07z"/>
	<path fill="#34A853" d="M108,108c-6.65,6.65-17.37,6.79-24.02,0.14c-6.65-6.65-6.63-17.49,0.02-24.14
		c6.65-6.65,17.4-6.58,24.05,0.07S114.65,101.36,108,108z"/>
</g>
</svg>
