<?xml version="1.0" encoding="UTF-8"?>
<svg width="167px" height="179px" viewBox="0 0 167 179" version="1.1" xmlns="http://www.w3.org/2000/svg" xmlns:xlink="http://www.w3.org/1999/xlink">
    <!-- Generator: Sketch 49.3 (51167) - http://www.bohemiancoding.com/sketch -->
    <title>original logo icon</title>
    <desc>Created with Sketch.</desc>
    <defs></defs>
    <g id="Page-1" stroke="none" stroke-width="1" fill="none" fill-rule="evenodd">
        <g id="Artboard" transform="translate(-300.000000, -1142.000000)">
            <g id="original" transform="translate(303.000000, 1145.000000)">
                <g id="original-logo-icon">
                    <path d="M142.013543,90.633203 L95.8362742,125.156803 C86.1691748,132.384235 70.7415863,132.098677 61.3617971,124.530949 L18.7310367,90.1359343 L64.5242035,54.4270775 C74.0222775,47.0206153 89.2646917,47.2193073 98.5651967,54.8739034 L142.013543,90.633203 Z M153.642958,100.204562 L154.206648,100.668496 C163.508177,108.323935 163.22797,120.373902 153.583074,127.584734 L95.8090359,170.778448 C86.1691748,177.985516 70.7474363,177.704678 61.3748633,170.142773 L6.96003122,126.240225 C-2.37828325,118.70596 -2.30997271,106.626211 7.09295067,99.211573 L57.9121328,140.213106 C69.2457825,149.357232 87.4536766,149.689781 99.1266586,140.962687 L153.642958,100.204562 Z" id="Base-layer" fill="#446BEB"></path>
                    <path d="M98.5788264,5.88053873 L154.198546,51.6556295 C163.513956,59.3222219 163.22153,71.3818607 153.560806,78.6042707 L95.8365569,121.759239 C86.1686723,128.987002 70.739831,128.701431 61.3592799,121.133356 L6.96616326,77.249878 C-2.40856047,69.6865041 -2.31105486,57.5364671 7.19696378,50.1225118 L64.5084886,5.43338138 C74.0207885,-1.98391234 89.2703171,-1.78037479 98.5788264,5.88053873 Z M95.0875972,10.0656367 C87.7607875,4.03566416 75.3720885,3.87221555 67.8873992,9.70846332 L10.5758744,54.3975937 C3.83120306,59.6568064 3.76426917,67.6645441 10.4161077,73.0311388 L64.8092243,116.914617 C72.2405608,122.910098 84.8890128,123.141101 92.5459052,117.416766 L150.270155,74.2617981 C157.110191,69.1481489 157.298168,61.2650051 150.707317,55.8407275 L95.0875972,10.0656367 Z" id="Middle-layer" stroke="#446BEB" stroke-width="5.84150952" fill="#2E5BEC" fill-rule="nonzero"></path>
                </g>
            </g>
        </g>
    </g>
</svg>