<?xml version="1.0" encoding="utf-8"?>
<!-- Generator: Adobe Illustrator 23.0.2, SVG Export Plug-In . SVG Version: 6.00 Build 0)  -->
<svg version="1.1" id="Layer_1" xmlns="http://www.w3.org/2000/svg" xmlns:xlink="http://www.w3.org/1999/xlink" x="0px" y="0px"
	 viewBox="0 0 612 792" style="enable-background:new 0 0 612 792;" xml:space="preserve">
<style type="text/css">
	.st0{fill:#FFFFFF;}
	.st1{fill:url(#SVGID_1_);}
	.st2{fill:#000B8C;}
	.st3{fill:url(#SVGID_2_);}
	.st4{fill:#4688C8;}
	.st5{fill:url(#SVGID_3_);}
	.st6{fill:#A5B5DD;}
	.st7{fill:#4257A6;}
</style>
<g id="Page-1_2_">
	
		<image style="overflow:visible;opacity:0.25;" width="2264" height="2263" xlink:href="C0D87591F9615777.png"  transform="matrix(0.24 0 0 0.24 42.0059 90.6613)">
	</image>
	<g>
		<g>
			<g id="Examples_14_" transform="translate(-400.000000, -630.000000)">
				<g id="Group_14_" transform="translate(400.000000, 630.000000)">
					<g id="Rectangle-4_14_">
						<path id="path-1_17_" class="st0" d="M161.6,102.7h304.2c56,0,101.4,45.4,101.4,101.4v304.2c0,56-45.4,101.4-101.4,101.4
							H161.6c-56,0-101.4-45.4-101.4-101.4V204.1C60.2,148.1,105.6,102.7,161.6,102.7z"/>
					</g>
				</g>
			</g>
		</g>
	</g>
</g>
<linearGradient id="SVGID_1_" gradientUnits="userSpaceOnUse" x1="187.2289" y1="404.7189" x2="359.2289" y2="404.7189">
	<stop  offset="0" style="stop-color:#05ACD3"/>
	<stop  offset="0.1753" style="stop-color:#1AA0CD"/>
	<stop  offset="0.5429" style="stop-color:#337FBB"/>
	<stop  offset="1" style="stop-color:#4056A6"/>
</linearGradient>
<path class="st1" d="M273.2,335.3v69.5h-69.5c-9.1,0-16.5,7.4-16.5,16.5v52.9c0,9.1,7.4,16.5,16.5,16.5h69.5h86v-172h-69.5
	C280.6,318.7,273.2,326.1,273.2,335.3z"/>
<path class="st2" d="M445.2,250.4v222.7c0,9.7-7.9,17.6-17.6,17.6h-68.4V250.4c0-9.7,7.9-17.6,17.6-17.6h50.7
	C437.3,232.7,445.2,240.6,445.2,250.4z"/>
</svg>
