<?xml version="1.0" encoding="utf-8"?>
<!-- Generator: Adobe Illustrator 21.1.0, SVG Export Plug-In . SVG Version: 6.00 Build 0)  -->
<svg version="1.1" id="Layer_1" xmlns="http://www.w3.org/2000/svg"  x="0px" y="0px"
	 viewBox="0 0 50 50" style="enable-background:new 0 0 50 50;" xml:space="preserve">
<style type="text/css">
	.st0{fill:#414042;}
	.st1{fill:#FF4F00;}
</style>
<g id="Layer_3">
</g>
<g id="Layer_2">
</g>
<g id="EpWcXD.tif">
	<g>
		<path class="st0" d="M45.6,28.1c0,0.1-0.1,0.2-0.1,0.3c-0.3,1.1-1,1.8-2.1,2c-1.2,0.3-2.3,0.2-3.3-0.5c-0.7-0.5-1.1-1.3-1.3-2.2
			c-0.2-1.2-0.1-2.3,0.5-3.3c0.6-1,1.5-1.5,2.7-1.6c0.6,0,1.2,0,1.8,0.3c0.9,0.4,1.5,1.1,1.7,2.1c0,0.1,0,0.1,0,0.2c0,0,0,0.1,0,0.1
			c-0.1,0-0.1,0-0.2,0c-0.5,0-1.1,0-1.6,0c-0.1,0-0.2,0-0.2-0.2c-0.1-0.3-0.3-0.6-0.7-0.7c-0.7-0.2-1.3,0-1.7,0.6
			c-0.2,0.4-0.3,0.8-0.4,1.3c0,0.6,0,1.2,0.4,1.7c0.3,0.5,0.8,0.7,1.4,0.6c0.5-0.1,0.9-0.4,1-0.9c0,0,0,0,0,0c0.6,0,1.3,0,2,0
			C45.6,28,45.6,28,45.6,28.1z"/>
		<path class="st1" d="M12.9,25.1c0.5,0.3,0.9,0.6,1.4,0.8c0.3,0.2,0.5,0.3,0.7,0.5c0.7,0.6,0.7,1.7-0.1,2.2c-0.5,0.3-1,0.6-1.4,0.9
			c-2.1,1.3-4.3,2.5-6.4,3.8c-0.4,0.2-0.8,0.3-1.2,0.2c-0.6-0.1-1.1-0.7-1.1-1.3c0-0.9-0.1-1.9,0-2.8c0.1-1,0.6-1.8,1.4-2.3
			c1-0.6,2-1.2,3-1.8c0.1-0.1,0.2-0.1,0.3-0.2C9.6,25.1,9.6,25,9.5,25c-1-0.6-2.1-1.2-3.1-1.8c-1-0.6-1.5-1.5-1.5-2.7
			c0-0.8,0-1.6,0-2.4c0-0.7,0.4-1.3,1-1.4c0.4-0.1,0.9,0,1.2,0.2c1.2,0.7,2.3,1.4,3.5,2.1c1.4,0.8,2.7,1.6,4.1,2.4
			c0.4,0.2,0.7,0.6,0.8,1.1c0.1,0.7-0.2,1.2-0.8,1.6c-0.5,0.3-1.1,0.7-1.6,1C13.1,25,13,25.1,12.9,25.1z M13.7,27.6
			C13.7,27.5,13.7,27.5,13.7,27.6c-0.8-0.5-1.6-1-2.3-1.4c0,0-0.1,0-0.2,0c-1.4,0.8-2.7,1.6-4.1,2.4c-0.4,0.2-0.6,0.6-0.6,1
			c0,0.7,0,1.4,0,2.1c0,0,0,0.1,0,0.1C9,30.4,11.3,29,13.7,27.6z M6.5,18.4c0,0.1,0,0.2,0,0.3c0,0.6,0,1.3,0,1.9
			c0,0.5,0.2,0.9,0.7,1.2c1.3,0.8,2.6,1.6,4,2.4c0.1,0.1,0.2,0.1,0.3,0c0.7-0.4,1.4-0.8,2.1-1.3c0.1,0,0.1-0.1,0.2-0.1
			C11.3,21.3,9,19.9,6.5,18.4z"/>
		<path class="st0" d="M33.7,30.4c-0.7,0-1.4,0-2.1,0c0-0.1,0-0.2,0-0.3c0-1.4,0-2.7,0-4.1c0-0.2,0-0.4-0.1-0.6
			c-0.2-0.9-1.1-1-1.6-0.6c-0.4,0.2-0.6,0.6-0.6,1c0,1.4,0,2.9,0,4.3c0,0.1,0,0.2,0,0.3c-0.7,0-1.3,0-2,0c0-2.5,0-4.9,0-7.4
			c0.7,0,1.3,0,2,0c0,0.2,0,0.4,0,0.6c1-1.1,2.9-1,3.9,0.2c0.1-0.1,0.1-0.1,0.2-0.2c0.8-0.7,1.8-0.9,2.8-0.6c0.9,0.2,1.5,1,1.6,2.1
			c0,0.3,0,0.5,0,0.8c0,1.5,0,2.9,0,4.4c0,0.1,0,0.2,0,0.3c-0.7,0-1.4,0-2.1,0c0-0.1,0-0.2,0-0.3c0-1.4,0-2.8,0-4.2
			c0-0.1,0-0.3,0-0.4c-0.1-0.4-0.3-0.7-0.8-0.8c-0.5-0.1-0.9,0-1.2,0.4c-0.2,0.2-0.2,0.4-0.2,0.7c0,1.4,0,2.9,0,4.3
			C33.7,30.2,33.7,30.3,33.7,30.4z"/>
		<path class="st0" d="M21.2,29.9c0,0.2,0,0.4,0,0.6c-0.7,0-1.4,0-2.1,0c0-3.6,0-7.2,0-10.8c0.7,0,1.3,0,2,0c0,1.3,0,2.6,0,3.9
			c0,0,0.1,0,0.1,0c1.2-1.2,3.6-0.9,4.6,0.8c0.5,0.8,0.6,1.7,0.6,2.7c0,0.7-0.2,1.5-0.7,2.1c-0.9,1.4-2.7,1.8-4.1,1
			C21.6,30.1,21.4,30,21.2,29.9z M21.2,26.7c0,0.4,0,0.7,0,1.1c0,0.1,0,0.2,0.1,0.3c0.5,0.8,1.7,0.9,2.5,0.3
			c0.8-0.8,0.9-2.4,0.1-3.3c-0.7-0.7-2-0.6-2.5,0.2c-0.1,0.1-0.1,0.2-0.1,0.4C21.2,26,21.2,26.4,21.2,26.7z"/>
	</g>
</g>
</svg>
