<?xml version="1.0" encoding="utf-8"?>
<!-- Generator: Adobe Illustrator 21.1.0, SVG Export Plug-In . SVG Version: 6.00 Build 0)  -->
<svg version="1.1" id="Layer_1" xmlns="http://www.w3.org/2000/svg" xmlns:xlink="http://www.w3.org/1999/xlink" x="0px" y="0px"
	 viewBox="0 0 50 50" style="enable-background:new 0 0 50 50;" xml:space="preserve">
<style type="text/css">
	.st0{opacity:0.8;fill:url(#SVGID_1_);stroke:#79C2EB;stroke-width:8.080853e-02;stroke-miterlimit:10;}
	.st1{opacity:0.8;fill:url(#SVGID_2_);stroke:#79C2EB;stroke-width:8.080853e-02;stroke-miterlimit:10;}
	.st2{opacity:0.9;fill:url(#SVGID_3_);stroke:#79C2EB;stroke-width:8.080853e-02;stroke-miterlimit:10;}
	.st3{opacity:0.7;fill:url(#SVGID_4_);}
	.st4{opacity:0.7;fill:url(#SVGID_5_);}
</style>
<g>
	<g>
		<linearGradient id="SVGID_1_" gradientUnits="userSpaceOnUse" x1="24.7047" y1="31.9154" x2="14.93" y2="31.9154">
			<stop  offset="0" style="stop-color:#C0DFF5"/>
			<stop  offset="1" style="stop-color:#64B2E2"/>
		</linearGradient>
		<polygon class="st0" points="14.9,22.9 24.7,28.7 24.7,41 14.9,34.4 		"/>
		<linearGradient id="SVGID_2_" gradientUnits="userSpaceOnUse" x1="31.0974" y1="39.8242" x2="28.3084" y2="24.0066">
			<stop  offset="0" style="stop-color:#C0DFF5"/>
			<stop  offset="1" style="stop-color:#64B2E2"/>
		</linearGradient>
		<polygon class="st1" points="34.7,34.5 34.7,22.9 24.7,28.9 24.7,41 		"/>
		<linearGradient id="SVGID_3_" gradientUnits="userSpaceOnUse" x1="7.9474" y1="22.4731" x2="41.5088" y2="22.4731">
			<stop  offset="0" style="stop-color:#C0DFF5"/>
			<stop  offset="1" style="stop-color:#64B2E2"/>
		</linearGradient>
		<polygon class="st2" points="24.8,16.5 31.6,10.8 41.5,17.1 35,22.5 41.5,28.1 31.4,34.1 24.8,29 18.1,34.1 7.9,28.1 15,22.8 
			7.9,17.4 18.1,10.8 		"/>
		<linearGradient id="SVGID_4_" gradientUnits="userSpaceOnUse" x1="26.4697" y1="27.2399" x2="19.3127" y2="19.0066">
			<stop  offset="0" style="stop-color:#EBF7FD"/>
			<stop  offset="1" style="stop-color:#C6E9F9"/>
		</linearGradient>
		<polygon class="st3" points="15.1,22.7 24.8,16.8 24.7,28.8 		"/>
		<linearGradient id="SVGID_5_" gradientUnits="userSpaceOnUse" x1="24.7281" y1="22.7781" x2="34.4288" y2="22.7781">
			<stop  offset="0" style="stop-color:#EBF7FD"/>
			<stop  offset="1" style="stop-color:#C6E9F9"/>
		</linearGradient>
		<polygon class="st4" points="24.8,16.8 34.4,22.3 24.7,28.8 		"/>
	</g>
</g>
</svg>
