<?xml version="1.0" encoding="utf-8"?>
<!-- Generator: Adobe Illustrator 21.1.0, SVG Export Plug-In . SVG Version: 6.00 Build 0)  -->
<svg version="1.1" id="Layer_1" xmlns="http://www.w3.org/2000/svg" xmlns:xlink="http://www.w3.org/1999/xlink" x="0px" y="0px"
	 viewBox="0 0 50 50" style="enable-background:new 0 0 50 50;" xml:space="preserve">
<style type="text/css">
	.st0{fill:#2DC100;}
	.st1{fill:#FFFFFF;}
</style>
<g id="Layer_1_1_">
	<circle class="st0" cx="25" cy="25" r="17"/>
</g>
<g>
	<path class="st1" d="M29.9,21.3c-2.3,0.1-4.3,0.8-6,2.4c-1.7,1.6-2.4,3.6-2.2,6c-0.9-0.1-1.7-0.2-2.6-0.3c-0.3,0-0.6,0-0.9,0.1
		c-0.8,0.5-1.6,1-2.5,1.5c0.2-0.8,0.3-1.4,0.5-2.1c0.1-0.5,0.1-0.7-0.4-1c-2.8-2-4-4.9-3.1-7.9c0.8-2.8,2.8-4.5,5.5-5.4
		c3.7-1.2,7.9,0,10.1,3C29.2,18.7,29.7,19.9,29.9,21.3z M19.2,20.4c0-0.6-0.5-1.1-1-1.1c-0.6,0-1.1,0.4-1.1,1c0,0.6,0.4,1.1,1,1.1
		C18.7,21.4,19.2,20.9,19.2,20.4z M24.8,19.3c-0.6,0-1.1,0.5-1,1.1c0,0.6,0.5,1,1.1,1c0.6,0,1-0.5,1-1.1
		C25.8,19.7,25.3,19.3,24.8,19.3z"/>
	<path class="st1" d="M35.1,35.8c-0.7-0.3-1.4-0.8-2.1-0.9c-0.7-0.1-1.5,0.3-2.2,0.4c-2.3,0.2-4.3-0.4-6-2c-3.2-3-2.7-7.5,1-9.9
		C29,21.3,33.8,22,36.1,25c2,2.6,1.8,6.1-0.7,8.3c-0.7,0.6-1,1.2-0.5,2C35,35.4,35,35.6,35.1,35.8z M26.7,27.7
		c0.5,0,0.9-0.4,0.9-0.8c0-0.5-0.4-0.9-0.9-0.9c-0.5,0-0.9,0.4-0.9,0.9C25.9,27.3,26.3,27.7,26.7,27.7z M32.1,26
		c-0.5,0-0.8,0.4-0.9,0.8c0,0.5,0.4,0.9,0.8,0.9c0.5,0,0.8-0.4,0.9-0.8C33,26.4,32.6,26,32.1,26z"/>
</g>
</svg>
