<?xml version="1.0" encoding="utf-8"?>
<!-- Generator: Adobe Illustrator 21.1.0, SVG Export Plug-In . SVG Version: 6.00 Build 0)  -->
<svg version="1.1" id="Layer_1" xmlns="http://www.w3.org/2000/svg" xmlns:xlink="http://www.w3.org/1999/xlink" x="0px" y="0px"
	 viewBox="0 0 50 50" style="enable-background:new 0 0 50 50;" xml:space="preserve">
<style type="text/css">
	.st0{display:none;}
	.st1{display:inline;}
	.st2{display:inline;fill:#EE9B00;}
	.st3{fill:#387BBE;}
	.st4{fill:#898989;}
</style>
<g id="Layer_1_1_" class="st0">
	<circle class="st1" cx="25" cy="25" r="17"/>
</g>
<g class="st0">
	<path class="st2" d="M16,24.5c0-2.8,0.5-6.1,1.7-9.3c0.1-0.1,0.1-0.2,0.3-0.2c1.5-0.2,2.9-0.3,4.4-0.4c0.2,0,0.2,0,0.2,0.2
		c0,0.8,0,1.6,0,2.3c0,0.2,0,0.2-0.2,0.2c-0.6,0.1-1.3,0.1-1.9,0.2c-0.2,0-0.3,0.1-0.4,0.3c-0.6,1.7-0.9,3.5-1,5.3
		c-0.1,1.4-0.1,2.9,0.1,4.3c0.2,1.6,0.5,3.2,1,4.7c0,0.1,0.1,0.2,0.2,0.2c0.7,0.1,1.3,0.2,2,0.2c0.1,0,0.2,0.1,0.2,0.2
		c0,0.8,0,1.6,0,2.4c0,0.1,0,0.2-0.2,0.2c-1.4-0.1-2.8-0.2-4.2-0.3c-0.3,0-0.5-0.2-0.6-0.5c-0.6-1.8-1.1-3.6-1.3-5.5
		C16.1,27.7,16,26.4,16,24.5z"/>
	<path class="st2" d="M34,25.1c0,3.3-0.5,6.5-1.7,9.7c0,0.1-0.1,0.2-0.3,0.2c-1.5,0.2-2.9,0.3-4.4,0.4c-0.2,0-0.2,0-0.2-0.2
		c0-0.8,0-1.6,0-2.4c0-0.1,0-0.2,0.2-0.2c0.7-0.1,1.3-0.2,2-0.2c0.2,0,0.2-0.1,0.3-0.2c0.6-1.9,1-3.9,1.1-5.9c0.1-1.7,0-3.4-0.2-5
		c-0.2-1.2-0.5-2.3-0.9-3.5c0-0.1-0.1-0.1-0.2-0.2c-0.6-0.1-1.2-0.1-1.9-0.2c-0.3,0-0.3,0-0.3-0.3c0-0.8,0-1.5,0-2.3
		c0-0.2,0-0.2,0.2-0.2c1.2,0.1,2.5,0.2,3.7,0.3c0.2,0,0.5,0.1,0.7,0.1c0.1,0,0.1,0,0.2,0.1c0.6,1.7,1.1,3.4,1.4,5.1
		C33.9,21.9,34,23.4,34,25.1z"/>
	<path class="st2" d="M24.8,23.9c0.4-1,0.8-2,1.2-3.1c0.1-0.2,0.1-0.2,0.3-0.2c0.6,0.1,1.3,0.1,1.9,0.2c0.2,0,0.2,0.1,0.2,0.3
		c-0.3,1.2-0.8,2.4-1.3,3.5c-0.3,0.6-0.6,1.2-0.9,1.8c-0.1,0.1-0.1,0.2,0,0.3c0.5,1,1,1.9,1.5,2.8c0,0.1,0.1,0.1,0.1,0.2
		C27,29.9,26.2,30,25.4,30c-0.1,0-0.1,0-0.2-0.1c-1.5-2.5-2.9-5-3.6-7.9c-0.1-0.3-0.1-0.7-0.2-1c0-0.1,0-0.2,0.1-0.2
		c0.6-0.1,1.3-0.2,1.9-0.3c0.1,0,0.1,0.1,0.2,0.1c0.3,1,0.7,2,1.1,2.9C24.8,23.7,24.8,23.8,24.8,23.9z"/>
</g>
<image style="display:none;overflow:visible;" width="585" height="585" xlink:href="../Working files/E1 Connectors/E1-icons-png/connector-cdc-software.png"  transform="matrix(1 0 0 1 -786 -243)">
</image>
<g>
	<g>
		<path class="st3" d="M21,22.7c0-1.1,0-2.2,0-3.3c0-0.6,0.4-1,1-1c1.1,0,2.2-0.1,3.3,0.1c2.8,0.4,4.5,3.5,3.3,6.1
			c-0.3,0.6-0.6,1-1.1,1.4c-0.1,0.1-0.2,0.1-0.3,0c-0.7-0.5-0.8-1.3-0.9-2c0-0.1,0.1-0.2,0.2-0.3c1.2-1.2,0.6-3.3-1-3.7
			c-0.4-0.1-0.4-0.1-0.4,0.3c0,0.4,0,0.8,0,1.2c0,0.2,0,0.3,0.2,0.4c0.4,0.2,0.5,0.5,0.4,1c-0.1,0.3-0.4,0.6-0.8,0.5
			c-0.3-0.1-0.4,0-0.6,0.2c-0.2,0.2-0.3,0.3-0.5,0.4c-0.1,0.1-0.2,0.1-0.3,0c-0.1-0.1,0-0.2,0.1-0.3c0.2-0.2,0.4-0.4,0.6-0.5
			c0.1-0.1,0.2-0.2,0.1-0.4c-0.2-0.4,0-0.7,0.3-0.9c0.1-0.1,0.2-0.2,0.2-0.3c0-0.5,0-1,0-1.5c0-0.2-0.1-0.2-0.2-0.2
			c-0.8,0-1.8,0.8-1.7,1.8c0.1,0.4-0.1,0.6-0.2,0.9c-0.1,0.2-0.2,0.4,0.1,0.5c0.1,0,0.1,0.1,0.1,0.2c0,0.3,0,0.5,0,0.8
			c0,0.4,0.2,0.5,0.5,0.6c0.7,0,0.6,0,0.7,0.7c0,0.6-0.4,1.1-0.7,1.6c-0.1,0.1-0.2,0.1-0.3,0.1c-0.3,0-0.6,0-0.9,0
			c-0.8,0-1.1-0.4-1.1-1.2C21,24.8,21,23.8,21,22.7z"/>
		<path class="st3" d="M17,27c-2.2,0-3.9-1.4-4.4-3.5c-0.5-2,0.5-4.2,2.4-5c1.7-0.8,3.4-0.7,4.9,0.4c0.4,0.3,0.5,0.8,0.3,1.2
			c-0.2,0.4-0.7,0.6-1.1,0.4c-0.2-0.1-0.4-0.2-0.5-0.3c-1.1-0.6-2.2-0.6-3,0c-0.9,0.7-1.2,1.9-0.9,3c0.5,1.8,2.4,2.5,3.9,1.5
			c0.1-0.1,0.2-0.2,0.3-0.2c0.5-0.3,1-0.3,1.3,0.1c0.3,0.4,0.2,0.9-0.2,1.3C19.1,26.7,18.2,27,17,27z"/>
		<path class="st3" d="M34.3,18c1,0,1.9,0.2,2.7,0.8c0.5,0.3,0.6,0.9,0.3,1.4c-0.3,0.4-0.9,0.6-1.4,0.2c-0.8-0.5-1.6-0.8-2.5-0.5
			c-1.3,0.4-2,1.9-1.6,3.3c0.4,1.7,2.3,2.5,3.9,1.6c0.2-0.1,0.3-0.2,0.5-0.3c0.4-0.3,0.9-0.2,1.2,0.2c0.3,0.4,0.3,0.9-0.1,1.2
			c-0.8,0.8-1.8,1.1-2.9,1.1c-2.2,0.1-4.2-1.4-4.6-3.6C29.2,20.3,31.5,18,34.3,18z"/>
	</g>
	<g>
		<path class="st4" d="M26.4,29.5c-0.2,0.4-0.3,0.8-0.4,1.3c-0.1,0.3-0.2,0.6-0.3,0.9c0,0.1-0.1,0.2-0.2,0.2c-0.1,0-0.2-0.1-0.2-0.3
			c-0.3-0.8-0.6-1.6-0.9-2.4c0-0.1-0.1-0.3,0-0.3c0.2-0.1,0.2,0.1,0.2,0.2c0.2,0.6,0.4,1.3,0.7,1.9c0,0.1,0.1,0.2,0.1,0.4
			c0.1-0.1,0.1-0.2,0.2-0.3c0.2-0.6,0.4-1.2,0.6-1.9c0-0.1,0.1-0.3,0.2-0.3c0.2,0,0.2,0.2,0.2,0.3c0.2,0.6,0.4,1.3,0.7,1.9
			c0,0.1,0.1,0.2,0.2,0.3c0.2-0.7,0.5-1.4,0.7-2.1c0-0.1,0.1-0.2,0.1-0.3c0-0.1,0.1-0.1,0.2-0.1c0.1,0,0.1,0.1,0.1,0.2
			c0,0.1,0,0.1-0.1,0.2c-0.3,0.8-0.6,1.6-0.9,2.4c0,0.1-0.1,0.3-0.2,0.3c-0.2,0-0.2-0.2-0.2-0.3c-0.2-0.6-0.4-1.2-0.6-1.8
			C26.6,29.7,26.6,29.6,26.4,29.5z"/>
		<path class="st4" d="M14.6,27.8c0.4,0,0.8,0.1,1.1,0.3c0.1,0.1,0.2,0.2,0.1,0.3c-0.1,0.1-0.2,0-0.3,0c-0.5-0.3-1-0.4-1.5-0.2
			c-0.3,0.1-0.5,0.4-0.5,0.7c0,0.3,0.2,0.6,0.5,0.7c0.5,0.2,1,0.3,1.4,0.5c0.7,0.3,0.8,1.2,0.2,1.6c-0.3,0.2-0.7,0.4-1,0.4
			c-0.5,0-1-0.2-1.4-0.5c-0.1-0.1-0.2-0.2-0.1-0.3c0.1-0.1,0.2,0,0.3,0c0.5,0.4,1,0.6,1.7,0.4c0.2-0.1,0.4-0.2,0.5-0.4
			c0.3-0.4,0.1-0.9-0.3-1c-0.4-0.1-0.8-0.2-1.2-0.4c-0.7-0.2-1-0.6-1-1.1c0.1-0.6,0.5-0.9,1.2-1C14.5,27.8,14.5,27.8,14.6,27.8z"/>
		<path class="st4" d="M20.4,30.5c0-0.4,0-0.7,0-1.1c0-0.2,0-0.3-0.2-0.2c-0.1,0-0.2,0-0.2-0.1c0-0.1,0.1-0.1,0.2-0.1
			c0.3,0,0.2-0.2,0.2-0.3c0-0.7,0.4-1,1-1c0.1,0,0.3,0,0.3,0.2c0,0.1-0.2,0.1-0.3,0.1c-0.2,0-0.5,0-0.6,0.3
			c-0.1,0.2-0.1,0.5-0.1,0.7c0.1,0.2,0.3,0.1,0.5,0.1c0.1,0,0.1,0,0.2,0c0.1,0,0.3-0.1,0.3,0.1c0,0.2-0.2,0.1-0.3,0.1
			c-0.7,0-0.7,0-0.7,0.6c0,0.6,0,1.2,0,1.7c0,0.1,0,0.3-0.1,0.3c-0.2,0-0.1-0.2-0.1-0.3C20.4,31.2,20.4,30.9,20.4,30.5z"/>
		<path class="st4" d="M22.5,30.3c0-0.3,0-0.6,0-0.9c0-0.2,0-0.3-0.2-0.3c-0.1,0-0.2,0-0.2-0.1c0-0.1,0.1-0.1,0.2-0.1
			c0.2,0,0.2-0.1,0.2-0.3c0-0.2,0-0.3,0-0.5c0-0.1,0-0.2,0.1-0.2c0.1,0,0.1,0.1,0.1,0.2c0,0.1,0,0.1,0,0.2c0,0.6,0,0.6,0.6,0.6
			c0.2,0,0.4-0.1,0.4,0.1c0,0.2-0.3,0.1-0.4,0.1c-0.7,0-0.6-0.1-0.6,0.6c0,0.4,0,0.9,0,1.3c0,0.5,0.3,0.7,0.8,0.6
			c0.1,0,0.2-0.1,0.2,0.1c0,0.1-0.1,0.2-0.2,0.2c-0.6,0.2-1.1-0.2-1.1-0.8C22.5,30.9,22.5,30.6,22.5,30.3z"/>
		<path class="st4" d="M32.7,29.6c0.2-0.2,0.3-0.3,0.5-0.4c0.2-0.2,0.4-0.2,0.6-0.2c0.1,0,0.2,0,0.2,0.1c0,0.1-0.1,0.1-0.1,0.2
			c-0.9,0.3-1.1,0.6-1.2,1.6c0,0.3,0,0.6,0,1c0,0.1,0,0.2-0.1,0.2c-0.1,0-0.2-0.1-0.2-0.2c0-0.9,0-1.7,0-2.6c0-0.1,0-0.2,0.2-0.2
			c0.1,0,0.1,0.1,0.1,0.2C32.6,29.3,32.6,29.4,32.7,29.6z"/>
		<path class="st4" d="M35.8,28.9c-0.9-0.2-1.6,0.3-1.7,1.3c-0.1,0.7,0.2,1.3,0.8,1.7c0.6,0.3,1.3,0.2,1.7-0.2
			c0.1-0.1,0.2-0.1,0.1-0.3c-0.1-0.2-0.2,0-0.3,0.1c-0.1,0-0.2,0.1-0.2,0.2c-0.7,0.4-1.5,0.1-1.7-0.6c-0.1-0.2-0.1-0.4,0.2-0.4
			c0.3,0,0.6,0,0.9,0c0,0,0,0,0,0c0.3,0,0.7,0,1,0c0.1,0,0.2-0.1,0.2-0.2C36.9,29.7,36.5,29,35.8,28.9z M36.3,30.3
			c-0.1,0-0.3,0-0.4,0c-0.1,0-0.3,0-0.4,0c-0.1,0-0.3,0-0.4,0c-0.1,0-0.3,0-0.4,0c-0.2,0-0.2-0.1-0.2-0.2c0.1-0.5,0.5-0.9,1.1-0.9
			c0.5,0,1,0.4,1,0.9C36.6,30.2,36.5,30.3,36.3,30.3z"/>
		<path class="st4" d="M31.5,31.6c0-0.5,0-1,0-1.6c0-0.4-0.2-0.8-0.6-1c-0.5-0.2-1-0.1-1.5,0.1c-0.1,0-0.2,0.1-0.1,0.2
			c0.1,0.1,0.2,0.1,0.2,0c0.4-0.2,0.7-0.2,1.1-0.1c0.3,0.1,0.5,0.3,0.6,0.6c0,0.2,0.1,0.4-0.3,0.3c-0.5-0.1-1-0.1-1.5,0.1
			c-0.5,0.3-0.6,0.9-0.3,1.3c0.3,0.4,1,0.5,1.4,0.3c0.2-0.1,0.4-0.2,0.6-0.4c0.1,0.2,0,0.4,0.2,0.4C31.6,31.9,31.5,31.7,31.5,31.6z
			 M30.1,31.7c-0.2,0-0.3,0-0.5-0.1c-0.2-0.1-0.4-0.3-0.4-0.6c0-0.3,0.1-0.5,0.4-0.6c0.5-0.2,1-0.1,1.6,0c0.1,0,0.1,0.1,0.1,0.2
			C31.3,31.3,30.8,31.7,30.1,31.7z"/>
		<path class="st4" d="M18.1,28.9c-0.8,0-1.5,0.7-1.6,1.6c0,0.8,0.7,1.6,1.5,1.6c0.9,0,1.6-0.7,1.6-1.6C19.6,29.5,19,28.9,18.1,28.9
			z M18.1,31.7c-0.7,0-1.2-0.6-1.2-1.3c0-0.7,0.5-1.3,1.2-1.3c0.7,0,1.2,0.6,1.2,1.3C19.4,31.2,18.8,31.7,18.1,31.7z"/>
	</g>
</g>
</svg>
