<?xml version="1.0" encoding="utf-8"?>
<!-- Generator: Adobe Illustrator 21.1.0, SVG Export Plug-In . SVG Version: 6.00 Build 0)  -->
<svg version="1.1" id="Layer_1" xmlns="http://www.w3.org/2000/svg" xmlns:xlink="http://www.w3.org/1999/xlink" x="0px" y="0px"
	 viewBox="0 0 50 50" style="enable-background:new 0 0 50 50;" xml:space="preserve">
<g>
	<path d="M13.7,29.6v-6.4l-2.2,4.7h-1.1l-2.3-4.7v6.4H6.7V20h1.5l2.8,6l2.7-6h1.5v9.6H13.7z"/>
	<path d="M20.1,29.7c-1.4,0-2.5-0.3-3.4-1.3l1-1c0.7,0.7,1.5,0.9,2.5,0.9c1.3,0,2-0.5,2-1.5c0-0.4-0.1-0.8-0.4-1
		c-0.2-0.2-0.6-0.3-1-0.4l-1.1-0.2c-0.8-0.1-1.4-0.4-1.8-0.8c-0.5-0.4-0.7-1-0.7-1.8c0-1.7,1.2-2.8,3.2-2.8c1.3,0,2.2,0.3,3,1.1
		L22.3,22c-0.6-0.6-1.3-0.7-2.1-0.7c-1.1,0-1.7,0.6-1.7,1.5c0,0.3,0.1,0.7,0.3,0.9c0.2,0.2,0.5,0.3,1,0.4l1.1,0.2
		c0.9,0.1,1.4,0.3,1.8,0.7c0.5,0.5,0.8,1.1,0.8,2C23.6,28.6,22.2,29.7,20.1,29.7z"/>
	<path d="M32.5,29.6v-6.4l-2.2,4.7h-1.1L27,23.2v6.4h-1.5V20H27l2.8,6l2.7-6H34v9.6H32.5z"/>
	<path d="M42.4,28.3l0.9,0.9L42.5,30l-1-0.9c-0.5,0.4-1.2,0.6-2,0.6c-1,0-1.9-0.3-2.5-1c-0.9-0.9-1-1.9-1-3.9c0-2,0-3,1-3.9
		c0.6-0.6,1.4-1,2.5-1c1,0,1.9,0.3,2.5,1c0.9,0.9,1,1.9,1,3.9C43,26.6,43,27.5,42.4,28.3z M41,21.8c-0.4-0.4-0.8-0.6-1.4-0.6
		s-1.1,0.2-1.4,0.6c-0.5,0.5-0.6,1.1-0.6,3c0,1.9,0.1,2.5,0.6,3c0.4,0.4,0.8,0.6,1.4,0.6c0.4,0,0.7-0.1,1-0.3l-1-1l0.8-0.8l0.9,0.9
		c0.3-0.5,0.3-1.1,0.3-2.4C41.5,22.9,41.5,22.4,41,21.8z"/>
</g>
</svg>
