<svg width="58" height="58" viewBox="-3 -3 64 64" fill="none" xmlns="http://www.w3.org/2000/svg">
<path d="M29 58C45.0163 58 58 45.0163 58 29C58 12.9837 45.0163 0 29 0C12.9837 0 0 12.9837 0 29C0 45.0163 12.9837 58 29 58Z" fill="#5F67FA"/>
<path d="M31.8224 19.5655C31.3856 19.5655 31.0384 19.2056 31.0384 18.7783V16.6418C31.0384 16.2032 30.68 15.8546 30.2544 15.8546H18.2592C17.8224 15.8546 17.4752 16.2145 17.4752 16.6418V18.7783C17.4752 19.2169 17.4752 19.9253 17.4752 20.3639V35.0161C17.4752 35.4546 17.8336 35.8032 18.2592 35.8032H39.9536C40.3904 35.8032 40.7376 35.4434 40.7376 35.0161V20.3526C40.7376 19.9141 40.3792 19.5655 39.9536 19.5655H31.8224Z" stroke="white" stroke-width="1.5" stroke-miterlimit="10"/>
<path d="M29 35.8032V39.2892" stroke="white" stroke-width="1.5" stroke-miterlimit="10"/>
<path d="M43 40.5486H15" stroke="white" stroke-width="1.5" stroke-miterlimit="10"/>
<path d="M29 43C30.2185 43 31.2064 42.0082 31.2064 40.7847C31.2064 39.5613 30.2185 38.5695 29 38.5695C27.7814 38.5695 26.7936 39.5613 26.7936 40.7847C26.7936 42.0082 27.7814 43 29 43Z" fill="white"/>
<path d="M23.772 27.8871H21.6628V30.1156H21V25.0693H24.1137V25.6169H21.6628V27.3429H23.772V27.8871Z" fill="white"/>
<path d="M28.4494 25.6169H26.8339V30.1156H26.1745V25.6169H24.5625V25.0693H28.4494V25.6169Z" fill="white"/>
<path d="M29.8578 28.1401V30.1156H29.195V25.0693H31.0488C31.5988 25.0693 32.0291 25.2103 32.3398 25.4922C32.6528 25.774 32.8093 26.1472 32.8093 26.6116C32.8093 27.1015 32.6562 27.4792 32.3502 27.745C32.0464 28.0084 31.6103 28.1401 31.0419 28.1401H29.8578ZM29.8578 27.5959H31.0488C31.4032 27.5959 31.6747 27.5127 31.8634 27.3464C32.0521 27.1777 32.1465 26.9351 32.1465 26.6186C32.1465 26.3182 32.0521 26.0779 31.8634 25.8977C31.6747 25.7174 31.4158 25.6239 31.0867 25.6169H29.8578V27.5959Z" fill="white"/>
<path d="M35.1359 27.8663C34.5675 27.7022 34.1533 27.5012 33.8932 27.2632C33.6355 27.0229 33.5066 26.7272 33.5066 26.3759C33.5066 25.9785 33.6642 25.6504 33.9795 25.3916C34.2971 25.1305 34.709 25 35.2153 25C35.5605 25 35.8677 25.067 36.137 25.201C36.4086 25.335 36.618 25.5199 36.7653 25.7556C36.9149 25.9912 36.9896 26.2489 36.9896 26.5284H36.3234C36.3234 26.2234 36.2268 25.9843 36.0334 25.811C35.8401 25.6354 35.5674 25.5476 35.2153 25.5476C34.8885 25.5476 34.6331 25.6204 34.449 25.766C34.2672 25.9092 34.1763 26.1091 34.1763 26.3655C34.1763 26.5712 34.2626 26.7456 34.4352 26.8889C34.6101 27.0298 34.9058 27.1592 35.3223 27.2771C35.7412 27.3949 36.068 27.5255 36.3027 27.6687C36.5397 27.8097 36.7146 27.9749 36.8274 28.1643C36.9425 28.3538 37 28.5768 37 28.8332C37 29.2422 36.8412 29.5703 36.5236 29.8175C36.206 30.0625 35.7814 30.1849 35.2498 30.1849C34.9046 30.1849 34.5825 30.1191 34.2833 29.9874C33.9841 29.8534 33.7528 29.6708 33.5894 29.4398C33.4283 29.2087 33.3478 28.9465 33.3478 28.653H34.014C34.014 28.958 34.1256 29.1995 34.3489 29.3774C34.5744 29.553 34.8747 29.6408 35.2498 29.6408C35.5996 29.6408 35.8677 29.5692 36.0542 29.4259C36.2406 29.2826 36.3338 29.0874 36.3338 28.8402C36.3338 28.5929 36.2475 28.4023 36.0749 28.2683C35.9023 28.132 35.5893 27.998 35.1359 27.8663Z" fill="white"/>
</svg>
