<?xml version="1.0" encoding="utf-8"?>
<!-- Generator: Adobe Illustrator 21.1.0, SVG Export Plug-In . SVG Version: 6.00 Build 0)  -->
<svg version="1.1" id="Layer_1" xmlns="http://www.w3.org/2000/svg" xmlns:xlink="http://www.w3.org/1999/xlink" x="0px" y="0px"
	 viewBox="0 0 50 50" style="enable-background:new 0 0 50 50;" xml:space="preserve">
<style type="text/css">
	.st0{clip-path:url(#SVGID_2_);}
	.st1{clip-path:url(#SVGID_4_);}
	.st2{clip-path:url(#SVGID_6_);}
	.st3{clip-path:url(#SVGID_8_);}
</style>
<g>
	<g>
		<path d="M14.1,39.7c-1.2,0-2-0.3-2.7-1l0.8-0.8c0.6,0.6,1.2,0.7,2,0.7c1,0,1.6-0.4,1.6-1.2c0-0.3-0.1-0.6-0.3-0.8
			c-0.2-0.2-0.5-0.3-0.8-0.3l-0.9-0.1c-0.6-0.1-1.1-0.3-1.4-0.6c-0.4-0.3-0.6-0.8-0.6-1.5c0-1.3,1-2.2,2.6-2.2c1,0,1.7,0.3,2.4,0.9
			l-0.7,0.7c-0.5-0.5-1-0.6-1.7-0.6c-0.9,0-1.4,0.5-1.4,1.2c0,0.3,0.1,0.5,0.3,0.7c0.2,0.2,0.4,0.3,0.8,0.3l0.9,0.1
			c0.7,0.1,1.1,0.3,1.4,0.6c0.4,0.4,0.6,0.9,0.6,1.6C16.9,38.8,15.7,39.7,14.1,39.7z"/>
		<path d="M24,39.6v-5.1l-1.8,3.8h-0.9l-1.8-3.8v5.1h-1.2v-7.7h1.2l2.2,4.8l2.2-4.8h1.2v7.7H24z"/>
		<path d="M29.8,32.9v6.7h-1.2v-6.7h-2.1v-1h5.4v1H29.8z"/>
		<path d="M36.2,36.6h-1.8v3h-1.2v-7.7h2.9c1.5,0,2.5,1,2.5,2.3C38.6,35.6,37.7,36.6,36.2,36.6z M36.1,32.9h-1.7v2.6h1.7
			c0.8,0,1.4-0.5,1.4-1.3C37.5,33.4,36.9,32.9,36.1,32.9z"/>
	</g>
	<g>
		<defs>
			<polygon id="SVGID_1_" points="25,21.1 14.5,13.8 14.5,15.9 25,23.2 35.5,15.9 35.5,13.8 			"/>
		</defs>
		<clipPath id="SVGID_2_">
			<use xlink:href="#SVGID_1_"  style="overflow:visible;"/>
		</clipPath>
		<g class="st0">
			<defs>
				<rect id="SVGID_3_" x="12.8" y="12.4" width="24.4" height="17.5"/>
			</defs>
			<clipPath id="SVGID_4_">
				<use xlink:href="#SVGID_3_"  style="overflow:visible;"/>
			</clipPath>
			<rect x="5.8" y="5" class="st1" width="38.4" height="26.9"/>
		</g>
	</g>
	<g>
		<defs>
			<path id="SVGID_5_" d="M36.5,12.2v13.9c-3.7,0.9-7.6,1.4-11.5,1.4s-7.7-0.5-11.5-1.4V12.2H36.5z M38.4,10.3H11.6v17.3
				c4.3,1.2,8.8,1.8,13.4,1.8s9.1-0.6,13.4-1.8V10.3z"/>
		</defs>
		<clipPath id="SVGID_6_">
			<use xlink:href="#SVGID_5_"  style="overflow:visible;"/>
		</clipPath>
		<g class="st2">
			<defs>
				<rect id="SVGID_7_" x="11.6" y="10.3" width="26.8" height="19.1"/>
			</defs>
			<clipPath id="SVGID_8_">
				<use xlink:href="#SVGID_7_"  style="overflow:visible;"/>
			</clipPath>
			<rect x="2" y="0.8" class="st3" width="45.9" height="38.3"/>
		</g>
	</g>
</g>
</svg>
