<svg id="Layer_1" data-name="Layer 1" xmlns="http://www.w3.org/2000/svg" width="50" height="50" viewBox="0 0 50 50"><defs><style>.cls-1{fill:#00a0df;}</style></defs><title>SAP_Logos_Replacement</title><path class="cls-1" d="M17.2,29.2a4.4,4.4,0,0,1-3.5-1.3l1.2-1.1a3.5,3.5,0,0,0,2.3.7c1.1,0,1.7-.4,1.7-1.1a1.1,1.1,0,0,0-.3-.8,1.1,1.1,0,0,0-.9-.3l-1.1-.2a3,3,0,0,1-1.8-.8,2.1,2.1,0,0,1-.7-1.8c0-1.7,1.2-2.9,3.3-2.9a4.2,4.2,0,0,1,3,1.1l-1.2,1.2a2.4,2.4,0,0,0-1.9-.7c-1,0-1.4.6-1.4,1.2a1.4,1.4,0,0,0,.2.7,1.2,1.2,0,0,0,.9.3l1.1.2a2.8,2.8,0,0,1,1.8.8,2.4,2.4,0,0,1,.7,1.9C20.6,28.2,19.1,29.2,17.2,29.2Z"/><path class="cls-1" d="M27.7,29.1l-.5-1.7H23.8l-.5,1.7h-2l3.5-9.4h1.4l3.4,9.4Zm-2.2-6.6-1.2,3.4h2.4Z"/><path class="cls-1" d="M34.4,25.6H32.6v3.5H30.8V19.7h3.6a2.8,2.8,0,0,1,3.1,2.9A2.9,2.9,0,0,1,34.4,25.6Zm-.1-4.3H32.6v2.6h1.7a1.2,1.2,0,0,0,1.4-1.3A1.3,1.3,0,0,0,34.3,21.3Z"/></svg>