<?xml version="1.0" encoding="utf-8"?>
<!-- Generator: Adobe Illustrator 21.1.0, SVG Export Plug-In . SVG Version: 6.00 Build 0)  -->
<svg version="1.1" id="Layer_1" xmlns="http://www.w3.org/2000/svg" xmlns:xlink="http://www.w3.org/1999/xlink" x="0px" y="0px"
	 viewBox="0 0 50 50" style="enable-background:new 0 0 50 50;" xml:space="preserve">
<style type="text/css">
	.st0{fill:#EAEAE9;}
</style>
<g id="Layer_1_1_">
	<circle class="st0" cx="25" cy="25" r="24"/>
</g>
<g>
	<path d="M10.9,31l-1.8-2.9L7.3,31H5.2l2.9-4.4l-2.8-4.2h2.1l1.7,2.8l1.7-2.8h2.1L10,26.6L13,31H10.9z"/>
	<path d="M19.8,31h-4.9V19h4.7c2.2,0,3.6,1.3,3.6,3.3c0,1.3-0.8,2.2-1.6,2.6c0.9,0.4,1.8,1.3,1.8,2.8C23.4,29.8,21.9,31,19.8,31z
		 M19.4,20.6h-2.7v3.5h2.7c1.2,0,2-0.6,2-1.7C21.4,21.2,20.6,20.6,19.4,20.6z M19.6,25.7h-2.9v3.7h2.9c1.3,0,2-0.8,2-1.8
		S20.9,25.7,19.6,25.7z"/>
	<path d="M32.8,31l-2.5-5.1h-2.3V31h-1.8V19h4.7c2.3,0,3.7,1.5,3.7,3.5c0,1.7-1,2.8-2.4,3.2l2.8,5.3H32.8z M30.6,20.6h-2.7v3.8h2.7
		c1.2,0,2-0.7,2-1.9C32.7,21.3,31.9,20.6,30.6,20.6z"/>
	<path d="M37.2,31V19H39v10.4h5.8V31H37.2z"/>
</g>
</svg>
