<svg xmlns="http://www.w3.org/2000/svg" viewBox="0 0 50 50"><title>zuora-connector</title><g id="95646893-a085-47b1-9b9f-1e7e732b4666" data-name="Layer 3"><circle cx="25" cy="25" r="25" style="fill:#394a5e"/><g id="b0e33c1c-5c3b-4cb9-a649-6b85934b9941" data-name="tF0AsK.tif"><path d="M42.788,28.22143a2.89881,2.89881,0,0,1-1.71766.9533,4.02237,4.02237,0,0,1-4.84223-3.07149A4.28391,4.28391,0,1,1,44.657,24.93392c.01859,1.304.00742,2.60837.00771,3.91258.00006.29275-.09614.396-.38551.40224-.36212.00786-.72466.01091-1.08672.00267-.2999-.00683-.40076-.11847-.4041-.41568C42.78612,28.631,42.788,28.4262,42.788,28.22143Zm-2.39293-5.57784a2.37821,2.37821,0,0,0-2.40254,2.355,2.3792,2.3792,0,1,0,2.40254-2.355Z" style="fill:#fff"/><path d="M9.91861,29.25909q-1.993,0-3.98607-.00008a.53443.53443,0,0,1-.55975-.74273,2.429,2.429,0,0,1,.43675-.73778c.94662-1.12907,1.90969-2.24434,2.86691-3.36453.40276-.47133.80793-.94066,1.20518-1.4166a1.43577,1.43577,0,0,0,.14647-.28445,1.33528,1.33528,0,0,0-.32775-.086c-1.20783-.00287-2.41567.003-3.62352.006a2.296,2.296,0,0,1-.26532-.0079.37155.37155,0,0,1-.37708-.41169c-.00492-.3462-.00392-.69254-.00051-1.03877.00293-.2969.14491-.43715.45011-.43975.467-.004.9341-.00112,1.40116-.00112q2.74194,0,5.48387.00134a.7088.7088,0,0,1,.32969.03891.44954.44954,0,0,1,.22086.26846,2.91959,2.91959,0,0,1,.00167.72228.695.695,0,0,1-.179.32916q-2.07545,2.45221-4.15845,4.898a.38082.38082,0,0,0-.06177.07384c-.03512.07469-.064.15228-.09543.22872a.78575.78575,0,0,0,.23451.08231c.45882.0055.91779-.00133,1.37671-.00358.89381-.0044,1.78776-.00079,2.68131-.01806a.32946.32946,0,0,1,.38174.29211,5.95811,5.95811,0,0,0,.34255.92463,2.8865,2.8865,0,0,0,.349.45614c.03087.041.06961.10343.05775.14133-.01159.03706-.08063.06259-.12921.07951a.38086.38086,0,0,1-.11992.00359q-2.04127.0001-4.08253.00005Z" style="fill:#fff"/><path d="M26.47513,29.2503a4.257,4.257,0,1,1,4.2701-4.21757A4.24762,4.24762,0,0,1,26.47513,29.2503Zm2.40313-4.23717a2.3948,2.3948,0,1,0-4.78954-.02169,2.3948,2.3948,0,0,0,4.78954.02169Z" style="fill:#fff"/><path d="M19.61335,28.24991a2.52278,2.52278,0,0,1-2.202.966,7.08274,7.08274,0,0,1-1.58375-.07737,2.01316,2.01316,0,0,1-1.63472-1.80747,8.00537,8.00537,0,0,1-.11857-1.391c-.01391-1.57805-.00579-3.1563-.005-4.73448.0002-.39716.07212-.46921.45955-.46987.34623-.00059.69249-.00255,1.03869.00069.2873.00269.3883.10534.38854.39573.00121,1.45739-.00771,2.91487.00666,4.37213a4.24345,4.24345,0,0,0,.13486,1.04607,1.00437,1.00437,0,0,0,1.04188.80384,3.701,3.701,0,0,0,1.02393-.109,1.85525,1.85525,0,0,0,1.32356-1.573,6.98046,6.98046,0,0,0,.12034-1.26941c.01631-1.05455.00423-2.10952.0057-3.16432.0006-.43349.073-.50277.50753-.503.32208-.00015.64416-.0016.96623.00041.3236.002.41707.101.41728.44692q.00143,2.41557.00041,4.83115,0,1.389-.00031,2.77791c-.00035.37756-.08981.46535-.47341.46683-.33818.0013-.67642.004-1.01452-.0011-.29384-.00441-.3915-.10017-.4015-.392C19.60769,28.6607,19.61335,28.45521,19.61335,28.24991Z" style="fill:#fff"/><path d="M33.40824,21.74737a2.393,2.393,0,0,1,1.87661-.96307,5.77392,5.77392,0,0,1,.77074-.04309.2592.2592,0,0,1,.28862.32523c-.05747.44676-.12013.89287-.175,1.33993a.29464.29464,0,0,1-.29488.29,2.3525,2.3525,0,0,0-2.36416,2.05412,5.9064,5.9064,0,0,0-.14238,1.24249c-.02037.942-.00584,1.88482-.0067,2.8273-.00031.34183-.08834.43474-.42116.43793-.3544.0034-.70894.005-1.06328-.00076-.28971-.00475-.38947-.10888-.38957-.39862q-.00139-3.86659.00016-7.73319c.00012-.27632.10464-.38552.37368-.38873q.56782-.00678,1.13578.00007c.26258.00321.36.10535.36627.368.00479.201.00662.402.01054.603C33.37357,21.71347,33.38247,21.71872,33.40824,21.74737Z" style="fill:#fff"/></g></g></svg>