<svg id="5aa90c97-334f-4138-9381-4d6a70ab0021" data-name="Layer 1" xmlns="http://www.w3.org/2000/svg" viewBox="0 0 50 50"><title>mq</title><rect x="1.00051" width="49" height="49" style="fill:none"/><path d="M8.62166,37.69223a24.60483,24.60483,0,0,0,2.97014,3.76921H37.72443V37.69223Z" style="fill:#087299"/><path d="M8.62166,11.30778A24.60483,24.60483,0,0,1,11.5918,7.53857H37.72443v3.76921Z" style="fill:#087299"/><polygon points="27.281 18.846 23.999 18.846 19.042 25.926 14.084 18.846 10.803 18.846 2.885 30.154 7.486 30.154 12.444 23.074 17.401 30.154 20.683 30.154 25.64 23.074 30.597 30.154 35.198 30.154 27.281 18.846" style="fill:#00a3e0"/><polygon points="37.521 40.045 39.831 43.346 44.433 43.346 40.334 37.489 37.521 40.045" style="fill:#087299"/><path d="M42.37962,11.30778a24.60625,24.60625,0,0,0-2.97014-3.76921H33.65956a20.98427,20.98427,0,0,1,2.73065,2.30266q.7059.7059,1.33422,1.46655a20.73606,20.73606,0,0,1,0,26.38445q-.62867.75935-1.33422,1.46655a20.98427,20.98427,0,0,1-2.73065,2.30266h5.74993a24.50584,24.50584,0,0,0,2.97014-30.15366Z" style="fill:#087299"/></svg>