<svg id="Layer_1" data-name="Layer 1" xmlns="http://www.w3.org/2000/svg" width="50" height="50" viewBox="0 0 50 50"><defs><style>.cls-1{fill:#14a2dc;}</style></defs><title>SAP_Logos_Replacement</title><path class="cls-1" d="M19.2,22.8a2.9,2.9,0,0,1-2.4-.9l.8-.8a2.2,2.2,0,0,0,1.6.5c.7,0,1.1-.2,1.1-.8s-.1-.3-.2-.5-.2-.2-.6-.2h-.7a3.2,3.2,0,0,1-1.3-.5,1.8,1.8,0,0,1-.4-1.3,2,2,0,0,1,2.2-2,3,3,0,0,1,2.1.8l-.8.8a1.8,1.8,0,0,0-1.3-.5c-.7,0-1,.4-1,.8s0,.4.2.5l.6.2.7.2a1.4,1.4,0,0,1,1.2.5,1.4,1.4,0,0,1,.5,1.3A2,2,0,0,1,19.2,22.8Z"/><path class="cls-1" d="M26.4,22.7,26,21.6H23.7l-.4,1.1H22l2.3-6.4h1l2.4,6.4Zm-1.5-4.5-.8,2.3h1.5Z"/><path class="cls-1" d="M30.9,20.3H29.7v2.4H28.5V16.3h2.4a2,2,0,1,1,0,4Zm0-2.9H29.7v1.8h1.2a.9.9,0,1,0,0-1.8Z"/><path class="cls-1" d="M8.6,32.8a3,3,0,0,1-2.4-.9l.8-.8a2.4,2.4,0,0,0,1.6.5c.7,0,1.1-.2,1.1-.8a.6.6,0,0,0-.2-.5.6.6,0,0,0-.5-.2H8.2a3.2,3.2,0,0,1-1.3-.5,1.8,1.8,0,0,1-.4-1.3,2,2,0,0,1,2.2-2,3,3,0,0,1,2.1.8l-.8.8a1.8,1.8,0,0,0-1.3-.5c-.7,0-1,.4-1,.8s0,.4.2.5a.8.8,0,0,0,.6.2l.7.2A1.7,1.7,0,0,1,11,30.8C11,32.1,9.9,32.8,8.6,32.8Z"/><path class="cls-1" d="M12.5,33.4H11.4l2.5-7.8H15Z"/><path class="cls-1" d="M19,31.8v.9H17.9v-.9H15.3V30.7l2.2-4.4h1.3l-2.2,4.4h1.3V29.5H19v1.2h.6v1.1Z"/><path class="cls-1" d="M24.1,32.7V30H21.9v2.7H20.6V26.3h1.3v2.6h2.2V26.3h1.2v6.4Z"/><path class="cls-1" d="M30.5,32.7l-.4-1.1H27.8l-.4,1.1H26.1l2.3-6.4h1l2.4,6.4ZM29,28.2l-.8,2.3h1.5Z"/><path class="cls-1" d="M36.3,32.7l-2.5-3.9v3.9H32.6V26.3h1.1l2.5,3.9V26.3h1.3v6.4Z"/><path class="cls-1" d="M42.6,32.7l-.4-1.1H39.9l-.3,1.1H38.2l2.4-6.4h1l2.3,6.4Zm-1.5-4.5-.8,2.3h1.6Z"/></svg>