<?xml version="1.0" encoding="utf-8"?>
<!-- Generator: Adobe Illustrator 21.1.0, SVG Export Plug-In . SVG Version: 6.00 Build 0)  -->
<svg version="1.1" id="Layer_1" xmlns="http://www.w3.org/2000/svg" xmlns:xlink="http://www.w3.org/1999/xlink" x="0px" y="0px"
	 viewBox="0 0 50 50" style="enable-background:new 0 0 50 50;" xml:space="preserve">
<style type="text/css">
	.st0{fill:#D52027;}
	.st1{fill:#FFFFFF;}
</style>
<circle class="st0" cx="25" cy="25" r="24"/>
<g>
	<g>
		<rect x="7.3" y="23" class="st1" width="2.8" height="9"/>
		<path class="st1" d="M11.6,23h2.7v0.8c0,0,0.5-1,2.7-1c2.8,0,3.3,1.8,3.3,4.2V32h-2.8v-4.4c0-1,0-2.4-1.4-2.4
			c-1.4,0-1.7,1.1-1.7,2.3V32h-2.8V23z"/>
		<path class="st1" d="M21.7,21.4c0-2,0.5-3.6,3.5-3.6c0.6,0,1.1,0,1.6,0.2l-0.1,2.3c-0.3-0.1-0.6-0.2-0.9-0.2
			c-0.9,0-1.3,0.3-1.3,1.5V23h2v2.2h-2V32h-2.8V21.4z"/>
		<path class="st1" d="M31.8,22.8c2.8,0,5,1.8,5,4.7c0,2.9-2.2,4.7-5,4.7c-2.8,0-5-1.8-5-4.7C26.9,24.6,29.1,22.8,31.8,22.8
			 M31.8,29.8c1.4,0,2.2-0.9,2.2-2.3c0-1.3-0.8-2.3-2.2-2.3c-1.4,0-2.2,0.9-2.2,2.3C29.6,28.8,30.5,29.8,31.8,29.8"/>
		<path class="st1" d="M37.9,23h2.8v0.8c0,0,0.7-1.1,3.5-1v2.4C43.8,25.1,43.4,25,43,25c-2.1,0-2.4,1.5-2.4,3.3V32h-2.8V23z"/>
		<polygon class="st1" points="7.3,20.1 10.1,18.2 10.1,21.5 7.3,21.5 		"/>
	</g>
</g>
</svg>
