<svg id="Layer_1" data-name="Layer 1" xmlns="http://www.w3.org/2000/svg" viewBox="0 0 50 50"><defs><style>.cls-1{fill:#6dc7f0;}.cls-2{fill:#f5ea14;}.cls-3{fill:none;stroke:#1f1a17;stroke-miterlimit:10;stroke-width:0.06px;}.cls-4{fill:#fbf8cd;}.cls-5{fill:#c9cb2c;}</style></defs><title>hadoop</title><circle class="cls-1" cx="25" cy="25" r="16"/><polygon class="cls-2" points="21.4 20.07 19.8 20.33 18.33 20.93 17.13 21.73 15.93 23.13 15.27 23.87 14.67 24.13 14.47 23.67 14.8 23.27 14.87 22.67 15.07 22.67 15.27 22.87 15.2 22.27 14.93 22.07 15 21.87 14.4 22.2 13.87 22.8 13.8 23.33 14 23.73 14.2 24.53 14.6 24.73 15.07 24.67 15.47 24.47 15.2 25.87 15.47 27.4 15.2 28.13 14.2 29.2 14.33 29.87 14.8 30.6 15.73 31.27 16.2 31.33 16.73 31.33 16.4 32.67 17.6 33.2 19.13 33.4 19.67 33.07 19.67 32.13 20.27 31.2 20.27 30.4 21.67 30.53 23 30.4 21.67 31.2 21.93 32.13 22.73 33.4 23.53 33.73 24.13 33.47 24.4 32.93 25.73 31.93 26 32.13 28.07 32.27 28.53 31.93 28.53 31.33 28.4 31.07 28.33 29.47 27.6 28.07 27.73 27.4 28.13 27.67 29.33 28.73 29.93 28.8 30.53 28.53 31.2 28.07 31.47 27 33.4 27.13 34.53 26.67 35.4 25.8 36.07 24.6 36.27 23.13 36.07 21.47 35.73 19.93 35.4 19.47 34.87 19.33 34 20.27 33.2 20.53 32.53 19.4 31.8 18.73 31.47 18.53 29.93 17.27 28.73 16.6 27.47 16.47 26.07 16.73 24.87 17.2 24 17.87 23.33 18.73 22.6 18.93 21.4 20.07"/><polygon class="cls-3" points="21.4 20.07 19.8 20.33 18.33 20.93 17.13 21.73 15.93 23.13 15.27 23.87 14.67 24.13 14.47 23.67 14.8 23.27 14.87 22.67 15.07 22.67 15.27 22.87 15.2 22.27 14.93 22.07 15 21.87 14.4 22.2 13.87 22.8 13.8 23.33 14 23.73 14.2 24.53 14.6 24.73 15.07 24.67 15.47 24.47 15.2 25.87 15.47 27.4 15.2 28.13 14.2 29.2 14.33 29.87 14.8 30.6 15.73 31.27 16.2 31.33 16.73 31.33 16.4 32.67 17.6 33.2 19.13 33.4 19.67 33.07 19.67 32.13 20.27 31.2 20.27 30.4 21.67 30.53 23 30.4 21.67 31.2 21.93 32.13 22.73 33.4 23.53 33.73 24.13 33.47 24.4 32.93 25.73 31.93 26 32.13 28.07 32.27 28.53 31.93 28.53 31.33 28.4 31.07 28.33 29.47 27.6 28.07 27.73 27.4 28.13 27.67 29.33 28.73 29.93 28.8 30.53 28.53 31.2 28.07 31.47 27 33.4 27.13 34.53 26.67 35.4 25.8 36.07 24.6 36.27 23.13 36.07 21.47 35.73 19.93 35.4 19.47 34.87 19.33 34 20.27 33.2 20.53 32.53 19.4 31.8 18.73 31.47 18.53 29.93 17.27 28.73 16.6 27.47 16.47 26.07 16.73 24.87 17.2 24 17.87 23.33 18.73 22.6 18.93 21.4 20.07"/><path class="cls-4" d="M16.8,23.67c-1.33,1.6-1.07,3.53-.67,5.4-.2-.53-.4-1-.6-1.53l-.2-1.4c0-.47.07-.93.07-1.4l.6-1.4c.27-.4.6-.87.87-1.27l1.33-1.13,1.47-.6,1.73-.2-1.6,1.8a4.9,4.9,0,0,0-3,1.73"/><path class="cls-4" d="M23.2,18.8a10.2,10.2,0,0,0-2.07,2.73,25.8,25.8,0,0,1-1.4,2.27,3.66,3.66,0,0,0-.33,1.13c-.2-.27-.47-.53-.67-.8.13-.33.2-.67.33-.93.33-.67.73-1.27,1.07-1.93L22.4,19a6.92,6.92,0,0,0,.8-.2"/><path class="cls-4" d="M27.87,16.53c-.73.27-2,.4-2.13,1.27a2.5,2.5,0,0,0,.4,1.6c-.93-.93-1.13-.8-2.93-.53a10.17,10.17,0,0,0,.73-1.07c.47-.27.87-.53,1.33-.8L27,16.6a4.1,4.1,0,0,1,.87-.07"/><path class="cls-5" d="M30,28.33c.27.13.27.27.2.4a2.37,2.37,0,0,0,.6-.27c.13-.2.27-.33.4-.53s.2-.47.27-.73c-.13-.07-.27-.2-.4-.27l-1.6.2c-.07.13-.07.2-.13.33a1.13,1.13,0,0,0,.07.47.51.51,0,0,1,.13.27c.07.07.13.07.27.13a.12.12,0,0,1,.2,0"/><path class="cls-5" d="M29.87,25.53c-.8.2-.8.27-1.07,1.07a3.26,3.26,0,0,1,1.07-1.07"/><path class="cls-5" d="M35.2,19.6c-.13.07-.27.07-.4.2a2.31,2.31,0,0,1-.67.73l-.47.2c-.13.07-.2,0-.33.07a.24.24,0,0,1,.2.07H34a2.7,2.7,0,0,1,.6-.33c.13-.13.2-.27.33-.33a1.26,1.26,0,0,1,.27-.6"/><path class="cls-5" d="M22.33,21.33a15.47,15.47,0,0,1-1.07,2.4,6.56,6.56,0,0,0,1.33-2c.13-.27.13-.6.53-.53,0,.27.07.6.07.87a3,3,0,0,1,2.13-2.67c-.4.07-.73.07-1.13.13a6.24,6.24,0,0,0-1.07.27c-.2.27-.33.53-.53.8a2.39,2.39,0,0,1-.27.73"/><path class="cls-5" d="M25,21.33c.27,1.4.73,2.67.87,4.07a2.65,2.65,0,0,1-.33,2.13,2.81,2.81,0,0,0-1.27.2c-1.93.6-3,1.53-4.33-.33.4.2.8.4,1.27.6l.87-.2c.53-.33,1.07-.6,1.53-.93a7.75,7.75,0,0,0,1.2-.27c.13-.53.27-1.07.4-1.67-.07-.73-.2-1.47-.27-2.2a5,5,0,0,0-.07-1c.07-.07.07-.27.13-.4"/><path class="cls-5" d="M28.27,29.8c-.13,1.13.4,1.73.13,2-.07.07-.13.27-.27.27-.33.13-.8,0-.8.07H26.2a3.25,3.25,0,0,0-.47-.2c.2-.27.47-.53.67-.8.2-.47.47-1,.67-1.47s.27-1,.4-1.47h.2a9.59,9.59,0,0,1,.6,1.6"/><path class="cls-5" d="M26.4,26.6c.07.53.27.6.47,1.13a10.52,10.52,0,0,1-.73,2.47,1.52,1.52,0,0,1-.47.67c-.4.4-.8.73-1.2,1.07s-.53.13-.93.07c-.13.27-.2.47-.53.6s-.87-.27-1.27-.53c.27.4.53.8.8,1.27l.53.53c.13,0,.33.07.47.07l.6-.4c.13-.2.2-.4.33-.6s.47-.33.67-.53a10,10,0,0,1,.87-.73,7,7,0,0,1,.53-.73c.13-.27.33-.6.47-.87.2-.6.4-1.2.6-1.87,0-.27.07-.47.07-.73-.27-.13-.53-.2-.8-.33a.92.92,0,0,0-.47-.53"/><path class="cls-5" d="M20.27,30.13a6.33,6.33,0,0,0,2.53-.4,9,9,0,0,1,.73-.93,2.83,2.83,0,0,0-.4,1.27c-.07.13-.2.27-.27.4-.67,0-1.27.07-1.93.07-.2,0-.4-.07-.6-.07l-.07-.07v-.27"/><path class="cls-5" d="M20.13,29.53c0-.2-.07-.4-.07-.6a6.63,6.63,0,0,1-.53,2.27,3.66,3.66,0,0,1-1.13.87.74.74,0,0,1,0,.53c-.07.6-1.2.33-1.67.27l2.27.6.53-.2.2-1c.13-.27.33-.6.47-.87s.07-.33.07-.53a8.21,8.21,0,0,0-.13-1.33"/><path class="cls-5" d="M18.87,24.53a1.75,1.75,0,0,0,.13,1l.8,1.4c0-.33.07-.67.07-.93-.33-.53-.67-1-1-1.47"/><path class="cls-5" d="M15.4,27.8c-.07.13-.13.33-.2.47A5.84,5.84,0,0,0,16,30a1.34,1.34,0,0,1-.27.53,5,5,0,0,0-1-.07c.4.27.73.6,1.13.87.2-.07.4-.07.53-.13l.53-.53c-.27-.4-.53-.8-.8-1.27a17,17,0,0,1-.73-1.6"/><path class="cls-5" d="M35.2,19.33a16.43,16.43,0,0,1,.53,3.07c-.07,1.33-.27,3-1.53,3.73s-2.93.47-4.47.07c.6.27,1.2.53,1.8.73.6,0,1.13.07,1.73.07.4-.13.8-.2,1.13-.33a9,9,0,0,1,.93-.73c.2-.47.47-.93.67-1.47s.2-1.13.27-1.67l-.2-1.6-.4-1.6a.85.85,0,0,1-.47-.27"/><path class="cls-5" d="M14.87,22.47c-.6.4-.87.6-.8,1.33.07.2.13.47.2.67s.2.13.27.2.2.07.33.13.4-.07.6-.13c.13-.33.2-.6.33-.93l-.8.4h-.2c-.07-.13-.13-.2-.2-.33s.2-.27.27-.4.07-.47.13-.73c.07,0,.13.07.2.07l.2.2v-.4c-.07-.07-.07-.13-.13-.27l-.13-.13a.34.34,0,0,0-.27.33"/><path class="cls-5" d="M28.73,16.6a12.52,12.52,0,0,1,1.67,1.6c.2.27.33.33,0,.73a1.76,1.76,0,0,1,.8-.07c.53.07,1.07.87,1.13,1.4,0,.07-.13.2-.6.27h-.27c.07.13.13.13.2.2a.63.63,0,0,0,.13.47,3.25,3.25,0,0,1,.8.07,1,1,0,0,1,.07.47c.13,0,.2-.07.33-.07,0-.27-.07-.47-.07-.73s.2-.33.27-.47c-.13-.27-.27-.6-.4-.87a7.61,7.61,0,0,1-.73-.73H32a9.87,9.87,0,0,0-.87-.53c-.47-.4-.93-.73-1.4-1.13l-1-.6"/><path class="cls-5" d="M29.67,20.8c0,.07-.07.13-.13.2a1.13,1.13,0,0,1,.4.67l-.8.4c-.2.2-.47.4-.67.6-.27-.13-.33-.27-.47-.6a1.13,1.13,0,0,1-.47.07.24.24,0,0,0,.2-.07,2.9,2.9,0,0,0,.4-.47,5.09,5.09,0,0,1,.73-.53,1.24,1.24,0,0,1,.47-.13,1.13,1.13,0,0,1,.33-.13"/><path class="cls-5" d="M30.4,21.53a4.24,4.24,0,0,0-2,1.73c-.07-1.07,1-1.53,2-1.73"/><path class="cls-5" d="M28.2,19.47a2.41,2.41,0,0,0-1,2.07,1.62,1.62,0,0,1,.47-1.87c.13-.07.2-.13.33-.13s.13-.07.2-.07"/><path class="cls-4" d="M28.47,22.33a.3.3,0,1,1,.53-.27v.07l-.4.4c-.07-.07-.13-.13-.13-.2"/><path d="M12.87,23.8a3.19,3.19,0,0,1,1.07-2.33c-1,.67-1.2,1-1.07,2.33"/><path d="M27.07,20.93a2,2,0,0,1,1.13-1.47C27.13,19.8,26.93,20.27,27.07,20.93Z"/><path d="M33.2,20.87a1.57,1.57,0,0,0,.8-.07,2.62,2.62,0,0,0,1.2-1.2A1.85,1.85,0,0,1,34.07,21,1.33,1.33,0,0,1,33.2,20.87Z"/><path d="M25,19.53a7.28,7.28,0,0,1-1.13.33,2.81,2.81,0,0,0-.67,1.33c-.07-.6-.13-.73.13-1.2-.07.07-.13.07-.27.2A7.59,7.59,0,0,0,22,22.27a7.14,7.14,0,0,1,.93-2.33.68.68,0,0,1,.67-.27A9.07,9.07,0,0,0,25,19.53Z"/><path d="M28.33,22.13a.6.6,0,0,1-.07-.33,2.7,2.7,0,0,1-.6.33c.27-.27.67-.8.93-1a6.55,6.55,0,0,1,1.07-.33,1.07,1.07,0,0,1-.47.27.6.6,0,0,1,.4.4c.07.07.07.13.07.27a2.93,2.93,0,0,1,.67-.13,4.28,4.28,0,0,0-2,1.27,1.67,1.67,0,0,1,.27-.47C28.47,22.4,28.4,22.27,28.33,22.13Z"/><path d="M32.8,20.47c.07.07.07.13.13.2L33,20.6c0-.07-.07-.07-.07-.13Z"/><path d="M35.73,19.6c-.2-.27-.87-.67-1.2-.33s-.4.6-.67.8a3.11,3.11,0,0,1-.67.33,3.19,3.19,0,0,0-.67-1.13,2.22,2.22,0,0,0-.73-.6,9.54,9.54,0,0,1-1.6-1.27c-1.6-1.4-3-1.33-5.07-.47a4.41,4.41,0,0,0-2.07,1.73,1.3,1.3,0,0,0-1,.4l-.8.8a7.74,7.74,0,0,0-4.33,1.8,5.07,5.07,0,0,0-1.2,1.53,3,3,0,0,1-.87.73c-.27.13-.27.13-.33-.13.33-.2.33-.6.33-1,.2,0,.27.27.4.4.07-.33.07-.87-.27-1.07a3.25,3.25,0,0,0,.2-.47c-.47.07-2.27,1.27-1.33,2.2a6.29,6.29,0,0,0,.2.6.85.85,0,0,0,1.13.33,6,6,0,0,0-.07,1.93,1.85,1.85,0,0,0,.07.6c-.07.27-.2.53-.27.8l-.73.73c-.27.27-.33.27-.27.67a2.36,2.36,0,0,0,.67,1.27c.4.4,1.27,1,1.87.73a2,2,0,0,1-.2.67c-.47.87.53,1.07,1.27,1.27.53.13,2,.6,2.2-.2a3.8,3.8,0,0,0,.07-.87,4.24,4.24,0,0,1,.4-.67.85.85,0,0,0,.13-.8v-.27a10.7,10.7,0,0,0,2.07,0,5.86,5.86,0,0,1-.67.4c-.67.33-.07,1.33.2,1.73.6.93,1.13,1.53,2.13,1,.33-.13.4-.33.6-.67.13-.07.73-.6,1.07-.87a1.57,1.57,0,0,0,.8.27h1.13c.6,0,.93-.07,1-.73a.78.78,0,0,0-.13-.67V30.07a4.39,4.39,0,0,0-.27-1c-.13-.33-.27-.6-.4-.93a.85.85,0,0,0,.07-.4l.6.6a1.74,1.74,0,0,0,1.33.67,1.94,1.94,0,0,0,1.53-1.13l.2-.6a4.65,4.65,0,0,0,2.87-.33A4.08,4.08,0,0,0,36.4,23.6,9,9,0,0,0,35.73,19.6Zm-20.6,3.13c-.07-.07-.13-.13-.2-.13v-.27A.4.4,0,0,1,15.13,22.73Zm-.8,1.6a6.29,6.29,0,0,1-.2-.6c-.6-.6.27-1.4.8-1.73a1,1,0,0,0-.13.4c-.13.53.07.93-.4,1.33.2.47.2.6.73.4a1,1,0,0,0,.4-.27c-.07.2-.13.33-.2.53v.07C15,24.6,14.53,24.73,14.33,24.33Zm.6,6.2a2.45,2.45,0,0,1-.53-1c-.07-.27,0-.27.2-.4l.67-.67A1,1,0,0,1,15.4,28a9.8,9.8,0,0,0,1.27,2.67,1,1,0,0,1-.13.4C16.13,31.53,15.2,30.87,14.93,30.53Zm13-1.33a2.05,2.05,0,0,1,.2.87V31.2a.56.56,0,0,1,.13.47c0,.53-.2.53-.6.53H26.53c-.27-.07-.47-.07-.53-.13A5.79,5.79,0,0,0,27.33,30a10.58,10.58,0,0,0,.47-1.33A2.06,2.06,0,0,0,27.93,29.2Zm8.13-5.6a3.92,3.92,0,0,1-1.73,3c-1.33.73-2.87.27-4.13-.13a2,2,0,0,1-.73-.4,2.2,2.2,0,0,1,0,.93c-.13.47-.33,1.27.27,1.4.27.07.33.07.73-.13a.92.92,0,0,1-.6,0c-.2,0-.27-.13-.33-.27.07.07.13.07.33.13a.79.79,0,0,0,1-.47c.07-.2.07-.27.13-.53a2.89,2.89,0,0,0,.33.07l-.2.6a1.3,1.3,0,0,1-1.27.87,1.89,1.89,0,0,1-1.13-.6c-.2-.2-.47-.4-.67-.6a6.34,6.34,0,0,1-1.67-.8,2.69,2.69,0,0,0,1.2.93,13.5,13.5,0,0,1-.6,2.2,10.66,10.66,0,0,1-1.2,1.93c-.2.07-1.27,1-1.47,1.13a1.52,1.52,0,0,1-.53.6c-.67.4-1.13-.33-1.53-.93-.2-.27-.67-1.07-.2-1.27a7.94,7.94,0,0,0,1-.6c.07.13.13.2.2.33a.6.6,0,0,0-.07-.33v-.6a1.85,1.85,0,0,1,.07-.6c-.07.2-.2.4-.27.6s-.07.13-.07.2a7.18,7.18,0,0,1-2.67.07c-.07-.33-.13-.67-.2-.93v1.47a1,1,0,0,1-.2.73c-.13.27-.2.33-.47.8a2.73,2.73,0,0,1-.07.73c-.13.47-1.4.13-1.73,0s-1.27-.27-1.07-.8a5.56,5.56,0,0,0,.4-1.67,9,9,0,0,1-1.6-3.87,4,4,0,0,1,.2-2.27A5.89,5.89,0,0,1,17.13,22a6.55,6.55,0,0,1,3.6-1.53c-.4.4-.73.87-1.13,1.33a6.82,6.82,0,0,0-.93,1.47c-.33.73-.33,1,.13,1.6a4.72,4.72,0,0,1,.8,1.33,3.61,3.61,0,0,0-.27,1,2.51,2.51,0,0,0,1.33,1,1.66,1.66,0,0,0,1.27-.13,6.65,6.65,0,0,1,2.87-1.13,5.42,5.42,0,0,0,.2-3.4c-.13-.8-.2-1.53-.27-2.4a4.9,4.9,0,0,0-.07,2.4,4.21,4.21,0,0,1-.2,3,7.17,7.17,0,0,0-2.67,1.13,1.21,1.21,0,0,1-1.07.07c-.33-.07-.6-.33-1-.8A2,2,0,0,1,20,25.87,17,17,0,0,1,21.07,24c-.47.6-.93,1.07-1.33,1.67A4,4,0,0,0,19,24.53a.92.92,0,0,1-.13-1.2,5,5,0,0,1,.93-1.47c.73-.8,1.47-1.73,2.27-2.53.47-.47.6-.4,1.2-.53a13.65,13.65,0,0,0,1.6-.33,12.32,12.32,0,0,1-1.53.07,3.47,3.47,0,0,1,1.6-1.33c2-.87,3.33-1,4.87.33l1.2,1a1.7,1.7,0,0,0-.47.13,1.15,1.15,0,0,1,.67.07c.07.07.13.07.2.13a2.61,2.61,0,0,1,.67.53,4.25,4.25,0,0,1,.53.93.5.5,0,0,0-.27-.07c-.07,0-.13-.07-.2-.07a.5.5,0,0,0-.33.07,1.59,1.59,0,0,1-.6.2c.07,0,.27.07.33,0h.07a.24.24,0,0,0-.07.2.6.6,0,0,0,.07.33.07.07,0,0,0,.07.07c-.07,0-.13.07-.27.07a2.86,2.86,0,0,1,1.07,0,2.89,2.89,0,0,0,.07.33H32.4a.76.76,0,0,0-.67-.07c-.8.2-.6.67-1,1.33.4-.47.33-.93,1-1.13a.72.72,0,0,1,.33-.07.78.78,0,0,0-.4.4c-.2.47-.07.87-.27,1.33a8.9,8.9,0,0,0,.47-1.2.83.83,0,0,1,.53-.4h.13c.47.47.47.73.47.93a6.31,6.31,0,0,1-.2,1.27,3.54,3.54,0,0,0,.4-1.27,4.92,4.92,0,0,0,0-1.4c-.13-.6.53-.53.87-.8a8.71,8.71,0,0,0,.73-.8c.27-.27.67.13.73.33A10,10,0,0,1,36.07,23.6Z"/><path d="M12.6,22.93a3.06,3.06,0,0,1,.47-1.07A.9.9,0,0,0,12.6,22.93Z"/><path d="M22.8,17.93a3.31,3.31,0,0,1,1.87-1.8C23.53,16.47,23.2,16.67,22.8,17.93Z"/><path d="M22.93,17.07a2,2,0,0,1,.87-.8C23.2,16.4,23.07,16.47,22.93,17.07Z"/><path d="M29.33,25.87l.47-.2c-.13,0-.33.07-.47.07-.33.07-.4.13-.47.47,0,.13-.07.33-.07.53l.2-.6A1.17,1.17,0,0,1,29.33,25.87Z"/></svg>