<?xml version="1.0" encoding="utf-8"?>
<!-- Generator: Adobe Illustrator 21.1.0, SVG Export Plug-In . SVG Version: 6.00 Build 0)  -->
<svg version="1.1" id="Layer_1" xmlns="http://www.w3.org/2000/svg" xmlns:xlink="http://www.w3.org/1999/xlink" x="0px" y="0px"
	 viewBox="0 0 50 50" style="enable-background:new 0 0 50 50;" xml:space="preserve">
<style type="text/css">
	.st0{fill:#7271B2;}
</style>
<path class="st0" d="M16.7,31.1c1.3-0.1,4.1,0.2,5.3,0.5c0.2,0,0.3-0.1,0.4-0.2l1.7-7.1c0.2-0.8-0.4-1.5-1.2-1.5h-3.8
	c-0.6,0-1,0.4-1.2,0.9l-1.5,7C16.4,30.9,16.5,31.1,16.7,31.1z"/>
<path class="st0" d="M23.9,31.9c1.4,0.1,4.1,0.8,5.3,1.1c0.2,0,0.3-0.1,0.4-0.2L32.4,21c0.2-0.8-0.4-1.5-1.2-1.5h-3.8
	c-0.6,0-1,0.4-1.2,0.9l-2.7,11.1C23.5,31.8,23.7,31.9,23.9,31.9z"/>
<path class="st0" d="M31.1,33.4c0.6,0.2,4.1,1.5,5.1,2.1c0.2,0,0.3-0.1,0.4-0.2l4.7-20c0.2-0.8-0.4-1.5-1.2-1.5h-3.8
	c-0.6,0-1,0.4-1.2,0.9L30.8,33C30.8,33.2,30.9,33.4,31.1,33.4z"/>
<path class="st0" d="M8.9,30.9c1.3-0.1,4.3-0.1,5.5,0.2c0.2,0,0.3-0.1,0.4-0.2l0.7-2.8c0.2-0.8-0.4-1.5-1.2-1.5h-3.8
	c-0.6,0-1,0.4-1.2,0.9l-0.7,3C8.6,30.7,8.7,30.9,8.9,30.9z"/>
</svg>
