<svg width="30" height="30" xmlns="http://www.w3.org/2000/svg" fill="none" viewBox="0 0 24 24">
  <path fill="#1b96ff" fill-rule="evenodd" d="M12 20.625a8.625 8.625 0 1 0 0-17.25 8.625 8.625 0 0 0 0 17.25Zm0-2.25a6.375 6.375 0 1 0 0-12.75 6.375 6.375 0 0 0 0 12.75Z" clip-rule="evenodd"/>
  <g fill="#0b5cab">
    <path d="M17.553 5.4a8.617 8.617 0 0 1 2.94 5.09l.677-1.171a.937.937 0 0 0 0-.938L19.718 5.87a.937.937 0 0 0-.812-.47h-1.354ZM20.493 13.51a8.616 8.616 0 0 1-2.94 5.09h1.354a.937.937 0 0 0 .812-.469l1.45-2.512a.938.938 0 0 0 0-.938l-.676-1.171ZM14.939 20.111a8.608 8.608 0 0 1-2.939.514 8.611 8.611 0 0 1-2.937-.513l.675 1.17c.168.29.477.468.812.468h2.901a.938.938 0 0 0 .812-.469l.676-1.17ZM6.447 18.6a8.616 8.616 0 0 1-2.94-5.09l-.676 1.171a.938.938 0 0 0 0 .938l1.45 2.512c.168.29.478.469.812.469h1.354ZM3.507 10.488A8.617 8.617 0 0 1 6.447 5.4H5.094a.938.938 0 0 0-.812.469L2.832 8.38a.938.938 0 0 0 0 .938l.675 1.17ZM14.263 2.719l.676 1.17A8.609 8.609 0 0 0 12 3.375a8.61 8.61 0 0 0-2.937.513l.675-1.17a.938.938 0 0 1 .812-.468h2.901c.335 0 .645.179.812.469Z"/>
  </g>
</svg>
