<svg width="30" height="30" viewBox="0 0 30 30" fill="none" xmlns="http://www.w3.org/2000/svg">
<path fill-rule="evenodd" clip-rule="evenodd" d="M11.2273 0.0846508L10.2396 3.77061H15.145L14.1573 0.0846508C13.1839 -0.0282168 12.2007 -0.0282168 11.2273 0.0846508ZM4.81323 2.74146L8.11796 4.64943L4.64946 8.11795L2.74146 4.81322C3.34994 4.04513 4.04514 3.34993 4.81323 2.74146ZM3.77061 10.2396L0.0846508 11.2273C-0.0282168 12.2007 -0.0282168 13.1839 0.0846508 14.1573L3.77061 15.145V10.2396ZM2.74146 20.5712L4.64943 17.2665L8.11795 20.735L4.81322 22.643C4.04513 22.0345 3.34993 21.3393 2.74146 20.5712ZM10.2396 21.6139L11.2273 25.2998C12.2007 25.4127 13.1839 25.4127 14.1572 25.2998L15.1449 21.6139H10.2396ZM20.5713 22.6431L17.2665 20.7351L20.735 17.2665L22.643 20.5712C22.0345 21.3394 21.3393 22.0346 20.5713 22.6431ZM21.6139 15.1449L25.2998 14.1572C25.4127 13.1838 25.4127 12.2006 25.2998 11.2273L21.6139 10.2396V15.1448V15.1449ZM22.6431 4.81324L20.7351 8.11797L17.2665 4.64946L20.5712 2.74146C21.3394 3.34994 22.0346 4.04514 22.6431 4.81324Z" transform="translate(2.30777 2.30777)" fill="#087299"/>
<path fill-rule="evenodd" clip-rule="evenodd" d="M0 9.80763C0 4.39103 4.39103 0 9.80763 0C15.2242 0 19.6153 4.39103 19.6153 9.80763C19.6153 15.2242 15.2242 19.6153 9.80763 19.6153C4.39103 19.6153 0 15.2242 0 9.80763ZM2.88456 9.80763C2.88456 13.6311 5.98413 16.7307 9.80763 16.7307C13.6311 16.7307 16.7307 13.6311 16.7307 9.80763C16.7307 5.98413 13.6311 2.88456 9.80763 2.88456C5.98413 2.88456 2.88456 5.98413 2.88456 9.80763Z" transform="translate(5.19237 5.19237)" fill="#00A3E0"/>
</svg>
