<svg width="30" height="30" xmlns="http://www.w3.org/2000/svg" fill="none" viewBox="0 0 24 24">
  <path fill="#1b96ff" d="m19.975 6.854-7.507-4.333a.937.937 0 0 0-.937 0L4.025 6.854a.937.937 0 0 0-.47.812v6.811c0 .38.427.601.737.385l1.118-.778a.938.938 0 0 0 .402-.77v-4.66c0-.134.072-.258.188-.325l5.813-3.346a.375.375 0 0 1 .374 0l5.812 3.346c.117.067.188.191.188.325v4.685c0 .294.139.572.374.749l1.132.851c.309.233.75.012.75-.374V7.666a.938.938 0 0 0-.468-.812Z"/>
  <g fill="#032d60">
    <path d="M19.29 19.334a2.437 2.437 0 1 1-4.876 0 2.437 2.437 0 0 1 4.875 0ZM14.438 12.021a2.437 2.437 0 1 1-4.875 0 2.437 2.437 0 0 1 4.874 0ZM9.563 19.334a2.437 2.437 0 1 1-4.875 0 2.437 2.437 0 0 1 4.875 0Z"/>
  </g>
  <g fill="#0b5cab">
    <path d="m12.279 14.443 2.479 3.642a2.437 2.437 0 0 1 1.917-1.183l-2.532-3.718a2.439 2.439 0 0 1-1.864 1.259ZM11.777 14.449a2.438 2.438 0 0 1-1.893-1.217L7.46 16.919a2.44 2.44 0 0 1 1.836 1.304l2.481-3.774Z"/>
  </g>
</svg>
