<svg width="30" height="30" viewBox="0 0 30 30" fill="none" xmlns="http://www.w3.org/2000/svg">
<path d="M0 0H8.07778V1.73071H0V0Z" transform="translate(9.19278 21.1315) rotate(-54.9663)" fill="#087299"/>
<path d="M0 0H1.73071V8.07778H0V0Z" transform="translate(14.753 15.5108) rotate(-35.0337)" fill="#087299"/>
<path d="M2.59614 5.19228C4.02994 5.19228 5.19228 4.02994 5.19228 2.59614C5.19228 1.16233 4.02994 0 2.59614 0C1.16233 0 0 1.16233 0 2.59614C0 4.02994 1.16233 5.19228 2.59614 5.19228Z" transform="translate(6.43121 20.0222)" fill="#00A3E0"/>
<path d="M2.59614 5.19228C4.02994 5.19228 5.19228 4.02994 5.19228 2.59614C5.19228 1.16233 4.02994 0 2.59614 0C1.16233 0 0 1.16233 0 2.59614C0 4.02994 1.16233 5.19228 2.59614 5.19228Z" transform="translate(18.3765 20.0222)" fill="#00A3E0"/>
<path d="M2.59614 5.19228C4.02994 5.19228 5.19228 4.02994 5.19228 2.59614C5.19228 1.16233 4.02994 0 2.59614 0C1.16233 0 0 1.16233 0 2.59614C0 4.02994 1.16233 5.19228 2.59614 5.19228Z" transform="translate(12.4039 11.7727)" fill="#00A3E0"/>
<path d="M20.7684 7.27109L10.3842 2.80385e-05L10.3842 0L10.3842 2.80385e-05L0 7.27109V17.5382L2.80385e-05 17.5382L2.30769 14.2466L2.30761 8.47237L10.3842 2.81706L18.4608 8.47237L18.4607 14.2467L20.7682 17.538L20.7684 17.5382V7.27109Z" transform="translate(4.61584 2.30822)" fill="#087299"/>
</svg>
