<svg width="32" height="32" viewBox="0 0 32 32" fill="none" xmlns="http://www.w3.org/2000/svg">
<path d="M29.5384 21.9692L28.0615 15.6923C27.8769 15.0154 27.0153 14.7692 26.523 15.2L21.7846 19.5692C21.2307 20.0615 21.4769 20.9231 22.1538 21.1077L24.1846 21.7231L23.5692 22.9539C22.4615 24.8 20.6769 25.9692 17.8461 26.3385V10.9539C18.6504 10.6057 19.3354 10.0298 19.8165 9.29719C20.2976 8.56459 20.5539 7.70724 20.5538 6.83078C20.5538 4.36924 18.523 2.33847 16.0615 2.33847C14.8701 2.33847 13.7274 2.81177 12.8849 3.65424C12.0425 4.49671 11.5692 5.63934 11.5692 6.83078C11.5692 8.67693 12.6769 10.2154 14.2769 10.9539V26.3385C11.4461 25.9692 9.66149 24.8 8.5538 22.9539L7.93841 21.7231L9.96918 21.1077C10.6461 20.9231 10.8307 20 10.3384 19.5692L5.53841 15.2615C4.98457 14.7692 4.18457 15.0154 3.99995 15.7539L2.46149 21.9692C2.27687 22.6462 2.9538 23.2615 3.63072 23.0769L5.23072 22.5846C5.47687 23.2615 5.72303 23.8769 6.09226 24.4923C7.87687 27.5077 11.1384 29.2923 15.9384 29.2923C20.7384 29.2923 23.9384 27.5077 25.7846 24.4923C26.1538 23.8769 26.4615 23.2 26.6461 22.5846L28.2461 23.0769C29.0461 23.2615 29.6615 22.6462 29.5384 21.9692ZM16 8.73847C15.7656 8.73847 15.5335 8.69231 15.317 8.60262C15.1005 8.51294 14.9038 8.38149 14.738 8.21577C14.5723 8.05005 14.4409 7.85332 14.3512 7.6368C14.2615 7.42028 14.2153 7.18821 14.2153 6.95386C14.2153 6.7195 14.2615 6.48743 14.3512 6.27091C14.4409 6.05439 14.5723 5.85766 14.738 5.69194C14.9038 5.52622 15.1005 5.39477 15.317 5.30509C15.5335 5.2154 15.7656 5.16924 16 5.16924C16.4733 5.16924 16.9272 5.35726 17.2619 5.69194C17.5965 6.02662 17.7846 6.48055 17.7846 6.95386C17.7846 7.42716 17.5965 7.88109 17.2619 8.21577C16.9272 8.55045 16.4733 8.73847 16 8.73847Z" fill="#747474"/>
</svg>
