<svg width="16" height="16" viewBox="0 0 16 16" fill="none" xmlns="http://www.w3.org/2000/svg">
<g clip-path="url(#clip0_4421:294)">
<path d="M15 1H1C0.734784 1 0.48043 1.10536 0.292893 1.29289C0.105357 1.48043 0 1.73478 0 2L0 14C0 14.2652 0.105357 14.5196 0.292893 14.7071C0.48043 14.8946 0.734784 15 1 15H15C15.2652 15 15.5196 14.8946 15.7071 14.7071C15.8946 14.5196 16 14.2652 16 14V2C16 1.73478 15.8946 1.48043 15.7071 1.29289C15.5196 1.10536 15.2652 1 15 1ZM15 14H1V4H15V14Z" fill="#00A3E0"/>
<path d="M3.64999 10.85C3.69488 10.8978 3.7491 10.936 3.8093 10.962C3.8695 10.9881 3.9344 11.0015 3.99999 11.0015C4.06559 11.0015 4.13049 10.9881 4.19069 10.962C4.25089 10.936 4.3051 10.8978 4.34999 10.85L5.84999 9.35C5.89782 9.30511 5.93595 9.25089 5.96201 9.1907C5.98807 9.1305 6.00151 9.0656 6.00151 9C6.00151 8.93441 5.98807 8.86951 5.96201 8.80931C5.93595 8.74911 5.89782 8.69489 5.84999 8.65L4.34999 7.15C4.25717 7.05718 4.13127 7.00503 3.99999 7.00503C3.86872 7.00503 3.74282 7.05718 3.64999 7.15C3.55717 7.24283 3.50502 7.36873 3.50502 7.5C3.50502 7.63128 3.55717 7.75718 3.64999 7.85L4.78999 9L3.64999 10.15C3.60216 10.1949 3.56404 10.2491 3.53798 10.3093C3.51192 10.3695 3.49847 10.4344 3.49847 10.5C3.49847 10.5656 3.51192 10.6305 3.53798 10.6907C3.56404 10.7509 3.60216 10.8051 3.64999 10.85V10.85Z" fill="#087299"/>
<path d="M9 11H12C12.1326 11 12.2598 10.9473 12.3536 10.8536C12.4473 10.7598 12.5 10.6326 12.5 10.5C12.5 10.3674 12.4473 10.2402 12.3536 10.1464C12.2598 10.0527 12.1326 10 12 10H9C8.86739 10 8.74021 10.0527 8.64645 10.1464C8.55268 10.2402 8.5 10.3674 8.5 10.5C8.5 10.6326 8.55268 10.7598 8.64645 10.8536C8.74021 10.9473 8.86739 11 9 11Z" fill="#087299"/>
</g>
<defs>
<clipPath id="clip0_4421:294">
<rect width="16" height="16" fill="white"/>
</clipPath>
</defs>
</svg>
