<svg width="30" height="30" xmlns="http://www.w3.org/2000/svg" fill="none" viewBox="0 0 24 24">
  <path fill="#032d60" d="M13.125 13.547a2.437 2.437 0 1 0-2.25 0v2.52c0 .134.072.257.188.324l.75.433a.375.375 0 0 0 .374 0l.75-.433a.375.375 0 0 0 .188-.324v-2.52Z"/>
  <path fill="#1b96ff" d="m12 19.152 6.006-3.468a.375.375 0 0 0 .188-.324V5.117a.375.375 0 0 0-.487-.358l-1.941.606-3.78-1.182 5.93-1.846a.938.938 0 0 1 .556 0l1.313.408a.937.937 0 0 1 .659.896v12.693a.938.938 0 0 1-.469.812l-5.734 3.312L12 19.152Z"/>
  <path fill="#0b5cab" d="M5.807 5.116v10.46L12 19.152l2.243 1.305-1.774 1.023a.938.938 0 0 1-.937 0l-7.507-4.334a.937.937 0 0 1-.468-.812V3.64c0-.41.267-.773.658-.895l1.312-.408a.937.937 0 0 1 .559 0l9.684 3.027-3.491 1.085a.938.938 0 0 1-.557 0L6.293 4.757a.375.375 0 0 0-.486.358Z"/>
</svg>
