<svg width="16" height="16" viewBox="0 0 24 24" fill="none" xmlns="http://www.w3.org/2000/svg">
  <path fill="#1b96ff" fill-rule="evenodd" d="M2 6c0-1.102.898-2 2-2h16c1.102 0 2 .898 2 2v12c0 1.102-.898 2-2 2H4c-1.102 0-2-.898-2-2V6Zm2 3.98V18h16V9.98H4Zm16-2H4V6h16v1.98ZM6.304 11.282a1 1 0 0 1 1.414.022l1.256 1.295c.772.78.771 2.034-.002 2.813L7.715 16.7a1 1 0 1 1-1.43-1.398l1.266-1.296-.01-.009-1.26-1.3a1 1 0 0 1 .023-1.414ZM11 16a1 1 0 0 1 1-1h5a1 1 0 1 1 0 2h-5a1 1 0 0 1-1-1Z" clip-rule="evenodd"/>
</svg>
