<svg width="30" height="30" viewBox="0 0 30 30" fill="none" xmlns="http://www.w3.org/2000/svg">
<path d="M16.2162 15.8078C16.6068 15.5902 16.9143 15.2492 17.0903 14.8381C17.2662 14.427 17.3007 13.9691 17.1884 13.5363C17.0761 13.1034 16.8232 12.7201 16.4696 12.4465C16.1159 12.1729 15.6814 12.0244 15.2342 12.0243H15.2031C15.1546 12.0243 15.1085 12.037 15.06 12.0404V20.0931C15.1085 20.0931 15.1546 20.0931 15.2042 20.0931C15.9242 20.0931 16.6373 20.0631 17.3435 20.0031L16.2162 15.8078Z" fill="#087299"/>
<path d="M15.0588 20.0965V12.0438C14.6341 12.0789 14.2314 12.2481 13.9091 12.5269C13.5868 12.8058 13.3614 13.1799 13.2656 13.5952C13.1698 14.0105 13.2085 14.4456 13.3761 14.8374C13.5437 15.2293 13.8316 15.5578 14.1981 15.7754L13.0627 20.0123C13.7204 20.0677 14.3873 20.0931 15.0588 20.0965Z" fill="#00A3E0"/>
<path d="M15.0588 28.178L25.4435 20.9134V2.15419L23.6135 0.886108L15.0588 6.89995V9.71649L23.1346 4.06611H23.1358V19.7111V19.7123L23.1346 19.7111L15.0588 25.3615V28.178Z" fill="#087299"/>
<path d="M15.0588 9.71649V6.89995L6.50308 0.886108L4.67423 2.15303V20.9134L15.0588 28.178V25.3615L6.98193 19.7123V19.7111V4.06611L15.0588 9.71649Z" fill="#00A3E0"/>
</svg>
