<svg width="30" height="30" xmlns="http://www.w3.org/2000/svg"  viewBox="0 0 24 24">
    <path fill="#1b96ff" fill-rule="evenodd" d="M6.297 9.132a6.002 6.002 0 0 1 11.634.954A5.002 5.002 0 0 1 17 20H7.5A5.5 5.5 0 0 1 6.297 9.132ZM12 7a4.002 4.002 0 0 0-3.923 3.213 1 1 0 0 1-.892.8A3.5 3.5 0 0 0 7.5 18H17a3 3 0 1 0 0-6 1 1 0 0 1-1-1 4 4 0 0 0-4-4Zm-5.005 7.976a1 1 0 0 1 1-1h.01a1 1 0 1 1 0 2h-.01a1 1 0 0 1-1-1Zm4 0a1 1 0 0 1 1-1h.01a1 1 0 1 1 0 2h-.01a1 1 0 0 1-1-1Zm4 0a1 1 0 0 1 1-1h.01a1 1 0 1 1 0 2h-.01a1 1 0 0 1-1-1Z" clip-rule="evenodd"/>
</svg>