<svg width="30" height="30" xmlns="http://www.w3.org/2000/svg" fill="none" viewBox="0 0 24 24">
  <path fill="#032d60" d="M14.438 10.329a2.437 2.437 0 1 1-4.875 0 2.437 2.437 0 0 1 4.874 0Z"/>
  <path fill="#1b96ff" d="M9.611 15.68a.938.938 0 0 1 .126.468v3.721c0 .311-.252.563-.563.563H7.66a.937.937 0 0 1-.812-.469L2.52 12.47a.938.938 0 0 1 0-.938l4.327-7.494a.938.938 0 0 1 .812-.47h1.796c.155 0 .28.127.28.282v1.688a.281.281 0 0 1-.28.28h-.822a.375.375 0 0 0-.325.188l-3.352 5.808a.375.375 0 0 0 0 .374l2.53 4.383v-2.82c0-.48.635-.65.874-.235l1.25 2.165Z"/>
  <path fill="#0b5cab" d="M14.376 15.68a.938.938 0 0 0-.126.468v3.721c0 .311.252.563.563.563h1.514a.937.937 0 0 0 .812-.469l4.327-7.494a.937.937 0 0 0 0-.938l-4.327-7.494a.938.938 0 0 0-.812-.47h-1.796a.281.281 0 0 0-.281.282v1.688c0 .155.126.28.281.28h.822c.134 0 .258.072.325.188l3.352 5.808a.375.375 0 0 1 0 .374L16.5 16.57v-2.82c0-.48-.635-.65-.875-.235l-1.25 2.165Z"/>
</svg>
