<svg width="30" height="30" xmlns="http://www.w3.org/2000/svg" fill="none" viewBox="0 0 24 24">
  <path fill="#1b96ff" d="m7.222 5.24-3.94 2.275a.938.938 0 0 0-.47.812v7.511c0 .168.09.322.235.406l1.36.786a.469.469 0 0 0 .704-.406V9.327c0-.134.071-.258.187-.325l2.206-1.273a.375.375 0 0 1 .375 0l2.205 1.273c.116.067.188.19.188.325v5.96c0 .168.089.323.234.406l1.36.786a.469.469 0 0 0 .704-.406V8.327a.938.938 0 0 0-.469-.812L8.16 5.239a.938.938 0 0 0-.938 0Z"/>
  <path fill="#0b5cab" d="m13.107 21.48 7.502-4.332a.938.938 0 0 0 .468-.812V7.678a.937.937 0 0 0-.474-.815L13.09 2.591a.937.937 0 0 0-.91-.01l-1.101.596a.469.469 0 0 0-.012.818l7.714 4.464v6.866a.375.375 0 0 1-.187.325l-5.768 3.34a.375.375 0 0 1-.375 0l-3.659-2.112v2.651l3.377 1.95c.29.168.648.168.938 0Z"/>
  <path fill="#032d60" d="m7.198 10.29 1.125.65c.29.167.469.476.469.811v7.778l-1.828-1.055a.937.937 0 0 1-.469-.812v-6.966c0-.36.39-.586.703-.406Z"/>
</svg>
