<svg width="30" height="30" viewBox="0 0 30 30" fill="none" xmlns="http://www.w3.org/2000/svg">
<path d="M15 17C17.4162 17 19.375 15.0412 19.375 12.625C19.375 10.2087 17.4162 8.24997 15 8.24997C12.5837 8.24997 10.625 10.2087 10.625 12.625C10.625 15.0412 12.5837 17 15 17Z" fill="#114459"/>
<path d="M8.75 16.75V22.6375L3.0525 14.5L10.0538 4.5H11.25V2H8.7525H8.75V2.00375L0 14.5L8.75 26.9963V27H11.25V24.5V20.25L8.75 16.75Z" fill="#087299"/>
<path d="M21.25 16.75V22.6375L26.9475 14.5L19.9463 4.5H18.75V2H21.2475H21.25V2.00375L30 14.5L21.25 26.9963V27H18.75V24.5V20.25L21.25 16.75Z" fill="#00A3E0"/>
</svg>
