<svg width="26" height="26" xmlns="http://www.w3.org/2000/svg" fill="none" viewBox="0 0 24 24">
  <path fill="#1b96ff" fill-rule="evenodd" d="M12.324 5.292a.937.937 0 0 1-.554 0l-3.194-.988a.938.938 0 0 0-.554 0l-.424.132a.937.937 0 0 0-.66.895v7.134c0 .336.18.646.47.813l4.173 2.392a.938.938 0 0 0 .932 0l4.172-2.392a.938.938 0 0 0 .471-.813V5.33a.937.937 0 0 0-.66-.895l-.424-.132a.937.937 0 0 0-.554 0l-3.194.988Zm2.582 2.065A.375.375 0 0 0 14.42 7l-2.096.648a.937.937 0 0 1-.554 0L9.673 7a.375.375 0 0 0-.485.358v4.13c0 .134.071.259.188.325l2.484 1.425a.375.375 0 0 0 .373 0l2.485-1.425a.375.375 0 0 0 .188-.325v-4.13Z" clip-rule="evenodd"/>
  <path fill="#0b5cab" d="M5.813 7.124v6.712c0 .134.071.258.187.325l5.86 3.383a.375.375 0 0 0 .374 0l5.86-3.383a.375.375 0 0 0 .187-.325V7.124c0-.167.09-.322.235-.406l1.312-.757a.469.469 0 0 1 .703.406v8.443a.938.938 0 0 1-.469.812l-7.546 4.357a.937.937 0 0 1-.938 0l-7.547-4.357a.938.938 0 0 1-.468-.812V6.367c0-.361.39-.587.703-.406l1.312.757a.469.469 0 0 1 .234.406Z"/>
</svg>
