<svg width="30" height="31" xmlns="http://www.w3.org/2000/svg" fill="none" viewBox="0 0 24 24">
  <path fill="#1b96ff" d="M11.533 2.52a.937.937 0 0 1 .938 0l7.506 4.334c.29.168.469.477.469.812v8.668a.937.937 0 0 1-.47.812l-1.065.615a.469.469 0 0 1-.703-.406V8.633a.375.375 0 0 0-.187-.325L12.19 4.941a.375.375 0 0 0-.375 0L5.983 8.308a.375.375 0 0 0-.187.325v8.722c0 .36-.39.586-.703.406l-1.066-.615a.937.937 0 0 1-.469-.812V7.666c0-.335.179-.644.469-.812l7.506-4.333Z"/>
  <path fill="#0b5cab" d="M11.156 13.594a.281.281 0 0 1-.281-.281v-1.95c0-.135.072-.258.188-.325l.743-.43a.375.375 0 0 1 .375 0l.757.437c.115.067.187.19.187.325v1.943a.281.281 0 0 1-.281.28h-1.688Z"/>
  <path fill="#032d60" d="M13.125 20.888v-4.765a.281.281 0 0 0-.28-.281l-1.687-.012a.281.281 0 0 0-.283.281v4.77c0 .133.072.257.188.324l.756.437a.375.375 0 0 0 .375 0l.743-.43a.375.375 0 0 0 .188-.324Z"/>
</svg>
