<svg xmlns="http://www.w3.org/2000/svg" width="20" height="16" viewBox="0 0 20 16" fill="none">
    <path d="M1.30769 9.15387H14.0769C14.4231 9.15387 14.5769 9.57694 14.3461 9.80771L10.6538 13.5C10.4231 13.7308 10.4231 14.0769 10.6538 14.3077L11.5 15.1539C11.7308 15.3846 12.0769 15.3846 12.3077 15.1539L19.0385 8.38463C19.2692 8.15387 19.2692 7.80771 19.0385 7.57694L12.3077 0.846173C12.0769 0.615403 11.7308 0.615403 11.5 0.846173L10.6923 1.65386C10.4615 1.88463 10.4615 2.23079 10.6923 2.46156L14.3846 6.15387C14.6154 6.4231 14.4615 6.84617 14.1154 6.84617H1.34615C1.03846 6.84617 0.769226 7.07694 0.769226 7.38463V8.53848C0.769226 8.84617 0.999995 9.15387 1.30769 9.15387Z" fill="#032D60"/>
</svg>