<svg width="30" height="28" viewBox="0 0 30 28" fill="none" xmlns="http://www.w3.org/2000/svg">
<path fill-rule="evenodd" clip-rule="evenodd" d="M14.0625 4.66689C14.3719 4.64148 14.684 4.625 15 4.625C15.3161 4.625 15.6281 4.64148 15.9375 4.66689V0.907044C15.6271 0.887825 15.3152 0.875 15 0.875C14.6848 0.875 14.3729 0.887825 14.0625 0.907044V4.66689ZM9.33939 6.15622C9.07126 6.31278 8.80624 6.47825 8.54727 6.65952C8.28839 6.8408 8.04224 7.03329 7.80341 7.23151L5.64688 4.15168C5.89011 3.95804 6.13818 3.76854 6.39636 3.58771C6.65451 3.40689 6.91763 3.23844 7.1828 3.07638L9.33939 6.15622ZM0.904755 10.7446C0.796875 11.0408 0.702332 11.3386 0.614227 11.6366L4.14725 12.9224C4.22906 12.623 4.3204 12.3241 4.4285 12.0273C4.53659 11.7304 4.65863 11.4425 4.78848 11.1605L1.25543 9.87463C1.13138 10.1598 1.01251 10.4488 0.904755 10.7446ZM24.3533 4.15168L22.1967 7.23151C21.9579 7.03329 21.7116 6.8408 21.4528 6.65952C21.1939 6.47825 20.9288 6.31278 20.6608 6.15622L22.8174 3.07638C23.0824 3.23844 23.3455 3.40691 23.6037 3.58771C23.8619 3.76852 24.11 3.95804 24.3533 4.15168ZM29.0955 10.7446C28.9877 10.4487 28.8688 10.1598 28.7446 9.87463L25.2116 11.1605C25.3415 11.4425 25.4635 11.7305 25.5716 12.0273C25.6797 12.324 25.771 12.623 25.8528 12.9224L29.3859 11.6366C29.2978 11.3386 29.2033 11.0408 29.0955 10.7446ZM5.625 25.2555V23.2152C11.5806 25.9282 18.4194 25.9282 24.375 23.2152V25.2555C18.3735 27.7482 11.6265 27.7482 5.625 25.2555ZM15 6.5C9.82251 6.5 5.62524 10.6971 5.625 15.8745V20.0663C6.23389 20.396 6.85977 20.6934 7.5 20.9571V15.8745C7.5 11.7324 10.8578 8.37455 15 8.37455C19.1422 8.37455 22.5 11.7324 22.5 15.8745V20.9571C23.1402 20.6933 23.7661 20.396 24.375 20.0663V15.8745C24.3748 10.6971 20.1775 6.5 15 6.5ZM15.9375 23.3528C15.6267 23.3668 15.3144 23.375 15 23.375C14.6858 23.375 14.3734 23.3668 14.0625 23.3528V18.5153C12.7711 18.0587 11.9964 16.7381 12.228 15.3881C12.4597 14.038 13.6302 13.0511 15 13.0511C16.3698 13.0511 17.5404 14.038 17.772 15.3881C18.0037 16.7381 17.229 18.0587 15.9375 18.5153V23.3528Z" fill="#a6263b"/>
</svg>
