<svg width="30" height="30" xmlns="http://www.w3.org/2000/svg" fill="none" viewBox="0 0 24 24">
  <path fill="#0b5cab" d="M21.186 8.253a.937.937 0 0 0-.467-.811l-1.079-.625a.469.469 0 0 0-.704.406v3.652h-3.141a4.51 4.51 0 0 1 0 2.25h3.141v3.826c0 .36.39.585.702.406l1.077-.617a.937.937 0 0 0 .471-.813V8.253Z"/>
  <path fill="#032d60" fill-rule="evenodd" d="M11.438 15.375a3.375 3.375 0 1 0 0-6.75 3.375 3.375 0 0 0 0 6.75Zm0-2.25a1.125 1.125 0 1 0 0-2.25 1.125 1.125 0 0 0 0 2.25Z" clip-rule="evenodd"/>
  <path fill="#1b96ff" d="M11.438 5.625a6.375 6.375 0 1 0 1.768 12.501c.321-.092.661.136.661.47v.98c0 .416-.273.788-.68.872a8.625 8.625 0 1 1 0-16.895c.407.083.68.455.68.871v.98c0 .334-.34.562-.66.47a6.378 6.378 0 0 0-1.77-.249Z"/>
</svg>
