<svg xmlns="http://www.w3.org/2000/svg"  viewBox="0 0 24 24">
  <path fill="#1b96ff" fill-rule="evenodd" d="M10.587 5.345C11.467 4.311 12.907 4 14 4c2.382 0 4.38 1.694 4.805 3.948C20.628 8.36 22 9.976 22 11.923c0 2.132-1.737 3.611-4 3.984v.016C18 18.185 16.149 20 13.889 20H6.5C4.025 20 2 18.013 2 15.539c0-2.094 1.45-3.84 3.396-4.327A4.888 4.888 0 0 1 10 8c2.382 0 4.38 1.694 4.805 3.948a4.118 4.118 0 0 1 2.69 2.016c1.751-.2 2.505-1.216 2.505-2.04 0-1.138-.935-2.078-2.111-2.078a1 1 0 0 1-1-1c0-1.561-1.283-2.846-2.89-2.846-.84 0-1.563.258-1.89.641a1 1 0 0 1-1.522-1.296ZM10 10c-1.408 0-2.572.99-2.834 2.288a1 1 0 0 1-.892.799C4.99 13.2 4 14.263 4 15.539 4 16.887 5.109 18 6.5 18h7.389C15.065 18 16 17.06 16 15.923s-.935-2.077-2.111-2.077a1 1 0 0 1-1-1C12.889 11.285 11.606 10 10 10Z" clip-rule="evenodd"/>
</svg>
