<svg width="16" height="16" viewBox="0 0 16 16" fill="none" xmlns="http://www.w3.org/2000/svg">
<path fill-rule="evenodd" clip-rule="evenodd" d="M7.13865 7.13865H3.35403C3.13865 7.13865 2.92326 7.32326 2.92326 7.53865V10.7694H1.66173C1.44634 10.7694 1.23096 10.9848 1.23096 11.2002V14.2771C1.23096 14.4925 1.44634 14.7079 1.66173 14.7079H5.87711C6.0925 14.7079 6.30788 14.4925 6.30788 14.2771V11.2002C6.30788 10.9848 6.0925 10.7694 5.87711 10.7694H4.61557V8.80019H11.354V10.7694H10.0925C9.87711 10.7694 9.66173 10.9848 9.66173 11.2002V14.2771C9.66173 14.4925 9.87711 14.7079 10.0925 14.7079H14.3079C14.5233 14.7079 14.7079 14.4925 14.7079 14.2771V11.2002C14.7079 10.9848 14.5233 10.7694 14.3079 10.7694H13.0156V7.53865C13.0156 7.32326 12.8002 7.13865 12.5848 7.13865H8.83096V5.16942H10.0925C10.3079 5.16942 10.4925 4.95403 10.4925 4.73865V1.66173C10.4925 1.44634 10.3079 1.23096 10.0925 1.23096H5.87711C5.66173 1.23096 5.44634 1.44634 5.44634 1.66173V4.73865C5.44634 4.95403 5.66173 5.16942 5.87711 5.16942H7.16942V7.13865H7.13865Z" fill="#747474"/>
</svg>
