<svg width="30" height="30" viewBox="0 0 30 30" fill="none" xmlns="http://www.w3.org/2000/svg">
<path d="M23.7107 20.2912L25.6058 21.6183C23.5189 24.5933 20.0637 26.5385 16.1538 26.5385C10.5717 26.5385 5.91634 22.5742 4.84715 17.3077H2.3067V12.6923H4.84715C5.91634 7.42578 10.5717 3.46155 16.1538 3.46155C20.0637 3.46155 23.5189 5.40669 25.6058 8.38173L23.7107 9.70882C22.0394 7.32902 19.2761 5.76924 16.1538 5.76924C11.0639 5.76924 6.92307 9.91024 6.92307 15C6.92307 20.0898 11.0639 24.2308 16.1538 24.2308C19.2761 24.2308 22.0394 22.671 23.7107 20.2912Z" fill="#00A3E0"/>
<path fill-rule="evenodd" clip-rule="evenodd" d="M20.6067 13.8483L27.6934 13.8619L27.6889 16.1538L20.6103 16.1402C20.1004 18.1345 18.3069 19.6154 16.1538 19.6154C13.6049 19.6154 11.5385 17.549 11.5385 15C11.5385 12.4509 13.6049 10.3846 16.1538 10.3846C18.3027 10.3846 20.0927 11.8599 20.6067 13.8483ZM13.8461 15C13.8461 16.2724 14.8814 17.3077 16.1538 17.3077C17.4263 17.3077 18.4615 16.2724 18.4615 15C18.4615 13.7275 17.4263 12.6923 16.1538 12.6923C14.8814 12.6923 13.8461 13.7275 13.8461 15Z" fill="#087299"/>
</svg>
