<svg width="30" height="30" viewBox="0 0 30 30" fill="none" xmlns="http://www.w3.org/2000/svg">
<path d="M6.34585 14.8424L0 19.2858V16.4686L4.03818 13.6411V5.6447L0 2.81714V0L6.34585 4.44341V14.8424Z" transform="translate(20.1922 5.35712)" fill="#087299"/>
<path d="M14.4224 20.3017V22.7099C13.5003 22.9474 12.5342 23.0757 11.5379 23.0757C5.16568 23.0757 0 17.9101 0 11.5379C0 5.16568 5.16568 0 11.5379 0C12.5342 0 13.5003 0.128313 14.4224 0.36584V2.77403C13.5142 2.47368 12.5455 2.30766 11.5379 2.30766C6.4483 2.30766 2.30766 6.44832 2.30766 11.5379C2.30766 16.6274 6.4483 20.7681 11.5379 20.7681C12.5455 20.7681 13.5142 20.602 14.4224 20.3017Z" transform="translate(2.30829 3.46216)" fill="#00A3E0"/>
<path fill-rule="evenodd" clip-rule="evenodd" d="M7.88931 2.88461H10.9614V5.19232H7.88931C7.39029 6.85632 5.86502 8.07693 4.03845 8.07693C1.80811 8.07693 0 6.26883 0 4.03845C0 1.80811 1.80811 0 4.03845 0C5.86493 0 7.39035 1.22046 7.88931 2.88461ZM1.73077 4.03845C1.73077 5.31091 2.76596 6.34616 4.03845 6.34616C5.31091 6.34616 6.3461 5.31091 6.3461 4.03845C6.3461 2.76602 5.31091 1.73077 4.03845 1.73077C2.76596 1.73077 1.73077 2.76602 1.73077 4.03845Z" transform="translate(9.80774 10.9615)" fill="#114459"/>
</svg>
