<svg width="30" height="30" xmlns="http://www.w3.org/2000/svg" fill="none" viewBox="0 0 24 24">
  <path fill="#0b5cab" d="M16.334 13.125a4.535 4.535 0 0 0 0-2.25h5.01a.23.23 0 0 1 .23.2 7.424 7.424 0 0 1 0 1.85.23.23 0 0 1-.23.2h-5.01Z"/>
  <path fill="#032d60" fill-rule="evenodd" d="M12 15.375a3.375 3.375 0 1 0 0-6.75 3.375 3.375 0 0 0 0 6.75Zm0-2.25a1.125 1.125 0 1 0 0-2.25 1.125 1.125 0 0 0 0 2.25Z" clip-rule="evenodd"/>
  <path fill="#1b96ff" d="M12 3.375a8.627 8.627 0 0 0-7.939 5.25H3.05a.276.276 0 0 0-.262.185 9.75 9.75 0 0 0 0 6.38.276.276 0 0 0 .262.185H4.06a8.627 8.627 0 0 0 14.196 2.563c.2-.211.14-.55-.112-.695l-.864-.499c-.377-.217-.848-.141-1.18.138a6.375 6.375 0 1 1 0-9.765c.332.28.804.356 1.18.139l.864-.5a.447.447 0 0 0 .112-.694A8.6 8.6 0 0 0 12 3.375Z"/>
</svg>
