<svg width="30" height="30" xmlns="http://www.w3.org/2000/svg" fill="none" viewBox="0 0 24 24">
  <path fill="#1b96ff" d="M11.438 5.625a6.375 6.375 0 1 0 1.768 12.501c.321-.092.661.136.661.47v.98c0 .416-.273.788-.68.872a8.625 8.625 0 1 1 0-16.895c.407.083.68.455.68.871v.98c0 .334-.34.562-.66.47a6.378 6.378 0 0 0-1.77-.249Z"/>
  <path fill="#0b5cab" d="M18.877 14.665V9.241a.375.375 0 0 0-.187-.325l-2.099-1.219a.937.937 0 0 1-.466-.81V5.637c0-.361.392-.587.704-.405l3.831 2.226a.937.937 0 0 1 .467.81v7.368a.937.937 0 0 1-.467.81l-3.83 2.226a.469.469 0 0 1-.705-.405V17.02c0-.334.178-.643.466-.811l2.1-1.22a.375.375 0 0 0 .186-.324Z"/>
  <path fill="#032d60" fill-rule="evenodd" d="M14.62 13.125A3.377 3.377 0 0 1 8.063 12a3.375 3.375 0 0 1 6.557-1.125h1.854c.13 0 .235.105.235.234v1.782c0 .13-.105.234-.235.234H14.62ZM12.563 12a1.125 1.125 0 1 1-2.25 0 1.125 1.125 0 0 1 2.25 0Z" clip-rule="evenodd"/>
</svg>
