<svg width="16" height="16" xmlns="http://www.w3.org/2000/svg" viewBox="0 0 24 24">
    <path fill="#1b96ff" fill-rule="evenodd" d="M10.592 3.4A2.004 2.004 0 0 1 12.5 2h3c.893 0 1.652.59 1.908 1.4H18.5c1.102 0 2 .898 2 2V16c0 1.102-.898 2-2 2h-9c-1.102 0-2-.898-2-2V5.4c0-1.102.898-2 2-2h1.092Zm-.052 2H9.5V16h9V5.4h-1.04A2.004 2.004 0 0 1 15.5 7h-3a2.004 2.004 0 0 1-1.96-1.6ZM12.5 4h3v1h-3V4Zm-8 3a1 1 0 0 1 1 1v12H15a1 1 0 1 1 0 2H5.5c-1.102 0-2-.898-2-2V8a1 1 0 0 1 1-1Z" clip-rule="evenodd"/>
</svg>
