<svg width="16" height="16" xmlns="http://www.w3.org/2000/svg" fill="none" viewBox="0 0 24 24">
  <path fill="#032d60" d="m19.798 16.229-1.246-.72a.469.469 0 0 1 0-.811l1.246-.72v2.251Z"/>
  <path fill="#0b5cab" d="m6.567 17.59 1.39.803c.088.05.195.05.282 0l1.387-.8a.281.281 0 0 0 0-.488l-1.39-.803a.281.281 0 0 0-.281 0l-1.388.8a.281.281 0 0 0 0 .488ZM2.673 15.34l1.39.803c.087.05.194.05.281 0l1.388-.8a.281.281 0 0 0 0-.488l-1.39-.803a.281.281 0 0 0-.282 0l-1.387.8a.281.281 0 0 0 0 .488ZM10.47 19.843l1.39.803c.087.05.195.05.282 0l1.387-.801a.281.281 0 0 0 0-.487l-1.39-.803a.281.281 0 0 0-.282 0l-1.387.8a.281.281 0 0 0 0 .488ZM14.37 17.59l1.39.802c.087.05.194.05.28 0l1.388-.8a.281.281 0 0 0 0-.488l-1.39-.802a.281.281 0 0 0-.281 0l-1.388.8a.281.281 0 0 0 0 .487Z"/>
  <path fill="#032d60" d="M11.998 10.067 13.95 8.94v4.984a.937.937 0 0 1-.467.81l-1.016.59a.937.937 0 0 1-.938 0l-.779-.45a.469.469 0 0 1 0-.81l.781-.453a.938.938 0 0 0 .468-.812v-2.732Z"/>
  <path fill="#1b96ff" d="M21.747 9.483a.937.937 0 0 0-.469-.811l-8.811-5.089a.937.937 0 0 0-.938 0L3.376 8.295a.75.75 0 0 0 0 1.299l4.253 2.456c.29.167.648.167.938 0l5.382-3.109-1.482-.855a.937.937 0 0 0-.937 0L8.282 9.959a.375.375 0 0 1-.374 0l-1.48-.855a.188.188 0 0 1 0-.325l5.383-3.107a.375.375 0 0 1 .375 0l7.61 4.396h.001l.001 6.161 1.48-.856a.937.937 0 0 0 .47-.812l-.001-5.078Z"/>
</svg>
