<svg id="Layer_1" data-name="Layer 1" xmlns="http://www.w3.org/2000/svg" viewBox="0 0 16 16"><defs><style>.cls-1{fill:#067fab;}.cls-2{fill:#939598;}.cls-3{fill:#114459;}.cls-4{fill:#48c1ed;}</style></defs><polygon class="cls-1" points="6.5 14 8 15 9.5 14 8 13 6.5 14"/><polygon class="cls-1" points="9.5 12 11 13 12.5 12 11 11 9.5 12"/><polygon class="cls-2" points="9.5 6 8 5 6.5 6 8 7 9.5 6"/><polygon class="cls-1" points="14 9 12.5 10 14 11 15.5 10 14 9"/><polygon class="cls-2" points="11 7 9.5 8 11 9 12.5 8 11 7"/><polygon class="cls-1" points="5 11 3.5 12 5 13 6.5 12 5 11"/><polygon class="cls-1" points="2 9 0.5 10 2 11 3.5 10 2 9"/><polygon class="cls-3" points="8 7 8 11 9.5 10 9.5 6 8 7"/><polygon class="cls-1" points="11 7 9.5 8 11 9 12.5 8 11 7"/><polygon class="cls-1" points="8 9 6.5 10 8 11 9.5 10 8 9"/><polygon class="cls-4" points="6.5 4 5 3 3.5 4 5 5 6.5 4"/><polygon class="cls-4" points="8 3 6.5 2 5 3 6.5 4 8 3"/><polygon class="cls-4" points="5 5 3.5 4 2 5 3.5 6 5 5"/><polygon class="cls-4" points="6.5 6 8 7 9.5 6 8 5 6.5 6"/><polygon class="cls-4" points="9.5 2 8 1 6.5 2 8 3 9.5 2"/><polygon class="cls-4" points="11 5 12.5 4 11 3 9.5 4 11 5"/><polygon class="cls-4" points="9.5 4 11 3 9.5 2 8 3 9.5 4"/><polygon class="cls-4" points="12.5 4 11 5 12.5 6 14 5 12.5 4"/><polygon class="cls-4" points="14 5 12.5 6 14 7 15.5 6 14 5"/><polygon class="cls-4" points="2 5 0.5 6 2 7 3.5 6 2 5"/><polygon class="cls-4" points="6.5 6 5 7 6.5 8 8 7 6.5 6"/><polygon class="cls-4" points="5 7 3.5 8 5 9 6.5 8 5 7"/><polygon class="cls-4" points="3.5 6 2 7 3.5 8 5 7 3.5 6"/><polygon class="cls-3" points="14 7 14 11 15.5 10 15.5 6 14 7"/></svg>