<svg width="30" height="30" xmlns="http://www.w3.org/2000/svg" fill="none" viewBox="0 0 24 24">
  <g fill="#0b5cab">
    <path d="M2.793 11.062a.375.375 0 0 1 .325-.187h4.1c.156 0 .282.126.282.281v1.688a.281.281 0 0 1-.281.281H3.118a.375.375 0 0 1-.325-.187l-.434-.75a.375.375 0 0 1 0-.376l.434-.75ZM4.917 7.68a.375.375 0 0 1 .32-.18h1.982c.155 0 .281.126.281.281V9.47a.281.281 0 0 1-.28.281H3.984a.187.187 0 0 1-.16-.285l1.092-1.786ZM3.817 14.536a.187.187 0 0 1 .16-.286h3.241c.156 0 .282.126.282.281v1.688a.281.281 0 0 1-.282.281H5.235a.375.375 0 0 1-.32-.178l-1.098-1.786Z"/>
  </g>
  <path fill="#032d60" fill-rule="evenodd" d="M12 15.375a3.375 3.375 0 1 0 0-6.75 3.375 3.375 0 0 0 0 6.75Zm0-2.25a1.125 1.125 0 1 0 0-2.25 1.125 1.125 0 0 0 0 2.25Z" clip-rule="evenodd"/>
  <g fill="#1b96ff">
    <path d="M12 2.25H8.52a.469.469 0 0 0-.4.223l-.81 1.312a.469.469 0 0 0 .4.715H12a7.496 7.496 0 0 1 6.42 3.62c.184.303.503.505.857.505h1.201a.445.445 0 0 0 .418-.623 9.752 9.752 0 0 0-8.895-5.752ZM21.477 10.875c.12 0 .22.09.231.208.028.302.043.608.043.917 0 5.385-4.366 9.75-9.75 9.75H8.79a.937.937 0 0 1-.796-.44l-.682-1.093a.469.469 0 0 1 .398-.717h4.29c3.609 0 6.623-2.55 7.339-5.946a.36.36 0 0 0-.359-.429h-2.623a4.51 4.51 0 0 0 0-2.25h5.12Z"/>
  </g>
</svg>
