<svg width="30" height="30" viewBox="0 0 30 30" fill="none" xmlns="http://www.w3.org/2000/svg">
<path fill-rule="evenodd" clip-rule="evenodd" d="M6.06598 3.46155H15.5769C20.5273 3.46155 24.7419 6.58264 26.3799 10.9615H23.8492C22.3487 7.89471 19.2213 5.76923 15.5769 5.76923H4.85959C5.21771 4.97418 5.62143 4.20428 6.06598 3.46155ZM15.5769 26.5385C21.9495 26.5385 27.1154 21.3725 27.1154 15C27.1154 14.6106 27.0958 14.2256 27.0581 13.8462H18.4615V16.1538H24.728C24.159 20.7061 20.2833 24.2308 15.5769 24.2308H4.85962C5.21774 25.0257 5.6214 25.7958 6.06601 26.5385H15.5769Z" fill="#00A3E0"/>
<path fill-rule="evenodd" clip-rule="evenodd" d="M7.5 8.65387V10.9615H3.24667C3.38882 10.1773 3.57245 9.40756 3.79361 8.65387H7.5ZM2.88461 15C2.88461 15.387 2.89444 15.7717 2.91373 16.1539H7.5V13.8462H2.91373C2.89444 14.2284 2.88461 14.6131 2.88461 15ZM7.5 21.3462H3.79364C3.57245 20.5925 3.38882 19.8228 3.24667 19.0385H7.5V21.3462ZM19.6154 15C19.6154 17.2304 17.8073 19.0385 15.5769 19.0385C13.3465 19.0385 11.5385 17.2304 11.5385 15C11.5385 12.7696 13.3465 10.9615 15.5769 10.9615C17.8073 10.9615 19.6154 12.7696 19.6154 15ZM15.5769 12.6923C16.8514 12.6923 17.8846 13.7255 17.8846 15C17.8846 16.2745 16.8514 17.3077 15.5769 17.3077C14.3024 17.3077 13.2692 16.2745 13.2692 15C13.2692 13.7255 14.3024 12.6923 15.5769 12.6923Z" fill="#087299"/>
</svg>
