<svg width="30" height="30" xmlns="http://www.w3.org/2000/svg" fill="none" viewBox="0 0 24 24">
  <path fill="#032d60" d="M10.063 12.002 7.768 8.024l1.31-2.271.986 1.697.898-1.562a.469.469 0 0 1 .813.001l.627 1.098a.937.937 0 0 1 .002.926l-1.053 1.86-1.287 2.229Z"/>
  <path fill="#0b5cab" d="m12.645 16.471 1.286-2.228.83 1.44a.187.187 0 0 0 .325-.001l2.567-4.466a.375.375 0 0 0 .006-.364L16.17 8.076l1.346-2.355 2.666 4.667a.938.938 0 0 1 0 .93l-4.432 7.753a.937.937 0 0 1-1.629-.002l-1.476-2.598Z"/>
  <path fill="#1b96ff" d="m6.216 10.991 2.536 4.392c.145.25.506.25.65 0L15.824 4.2a.469.469 0 0 1 .813 0l.879 1.522-7.634 13.358a.938.938 0 0 1-1.628 0l-4.436-7.762a.937.937 0 0 1 0-.931l3.545-6.187a.469.469 0 0 1 .812-.002l.903 1.554-2.862 4.957a.281.281 0 0 0 0 .281Z"/>
</svg>
