<svg width="30" height="30" viewBox="0 0 30 30" fill="none" xmlns="http://www.w3.org/2000/svg">
<path d="M8.35668 19.6153H13.848L12.2321 21.9229H7.15538L2.30789 15L7.15538 8.07706H12.2321L13.848 10.3847H8.35668L5.12501 15L8.35668 19.6153Z" fill="#087299"/>
<path d="M17.0797 15L15.4638 17.3077H13.0417L11.4258 15L13.0417 12.6923H15.4638L17.0797 15Z" fill="#114459"/>
<path d="M27.6925 15C27.6925 21.3725 22.5266 26.5383 16.1542 26.5383V26.5385H12.6949L11.079 24.2308H16.1542V24.2306C21.244 24.2306 25.3848 20.0898 25.3848 15C25.3848 9.91024 21.244 5.76939 16.1542 5.76939H11.0789L12.6948 3.4617H16.1542C22.5266 3.4617 27.6925 8.62758 27.6925 15Z" fill="#00A3E0"/>
</svg>
