<svg width="30" height="30" xmlns="http://www.w3.org/2000/svg" fill="none" viewBox="0 0 24 24">
  <path fill="#1b96ff" d="M12 21.75c5.385 0 9.75-4.365 9.75-9.75S17.385 2.25 12 2.25H8.414a.938.938 0 0 0-.81.465l-.63 1.08a.469.469 0 0 0 .405.705H12a7.5 7.5 0 0 1 0 15H7.379a.469.469 0 0 0-.405.705l.63 1.08a.938.938 0 0 0 .81.465H12Z"/>
  <path fill="#0b5cab" d="M5.837 6.75a.938.938 0 0 0-.811.467l-2.503 4.312a.938.938 0 0 0 0 .942l2.503 4.312a.938.938 0 0 0 .81.467h5.015a.937.937 0 0 0 .81-.467l.627-1.079a.469.469 0 0 0-.405-.704H6.825a.375.375 0 0 1-.325-.187l-1.517-2.625a.375.375 0 0 1 0-.376L6.5 9.187A.375.375 0 0 1 6.826 9h5.057a.469.469 0 0 0 .405-.704l-.626-1.08a.937.937 0 0 0-.811-.466H5.837Z"/>
  <path fill="#032d60" d="M10.232 12.187a.375.375 0 0 1 0-.374l.863-1.5a.375.375 0 0 1 .325-.188h1.723c.134 0 .258.072.325.188l.862 1.5a.375.375 0 0 1 0 .374l-.862 1.5a.375.375 0 0 1-.325.188H11.42a.375.375 0 0 1-.325-.188l-.863-1.5Z"/>
</svg>
