<svg width="30" height="30" viewBox="0 0 30 30" fill="none" xmlns="http://www.w3.org/2000/svg">
<path d="M27.6076 13.5349L25.6963 13.0229L25.0742 12.8563C24.8108 11.6006 24.3148 10.4329 23.6403 9.39102L23.9614 8.83461L24.9507 7.12097C24.6499 6.74194 24.3252 6.37573 23.9748 6.02509C23.6244 5.67467 23.258 5.34988 22.879 5.04913L21.1655 6.03836L20.6196 6.35376C19.5743 5.66963 18.3995 5.16861 17.1369 4.90036L16.9771 4.30344L16.4649 2.39227C15.9843 2.33711 15.4955 2.30759 15 2.30759C14.5045 2.30759 14.0158 2.33711 13.535 2.39227L13.023 4.30344L12.8654 4.8912C11.5959 5.15671 10.4153 5.65887 9.364 6.34415L8.83459 6.03836L7.12107 5.04913C6.74204 5.34988 6.3756 5.67467 6.0253 6.02509C5.67488 6.37573 5.3501 6.74194 5.04923 7.12097L6.03857 8.83461L6.34413 9.36401C5.65897 10.415 5.15646 11.5956 4.8913 12.8654L4.30376 13.0229L2.39249 13.5349C2.33721 14.0158 2.3078 14.5042 2.3078 15C2.3078 15.4955 2.33721 15.9842 2.39249 16.4648L4.30399 16.9771L4.90012 17.1368C5.16848 18.3994 5.66962 19.5744 6.35363 20.6195L6.0388 21.1649L5.04923 22.879C5.3501 23.2581 5.67488 23.6243 6.0253 23.9747C6.3756 24.3251 6.74204 24.6499 7.12107 24.9509L8.83471 23.9612L9.39078 23.6403C10.4328 24.315 11.6009 24.8108 12.8563 25.0742L13.023 25.6968L13.535 27.6075C14.0158 27.6627 14.5045 27.6922 15 27.6922C15.4955 27.6922 15.9843 27.6627 16.4649 27.6075L16.977 25.6968L17.1461 25.0653C18.3945 24.7989 19.5566 24.304 20.5927 23.6307L21.1654 23.9612L22.879 24.9509C23.258 24.6499 23.6244 24.3251 23.9748 23.9747C24.3252 23.6243 24.6499 23.2581 24.9507 22.879L23.9613 21.1652L23.6308 20.5925C24.3043 19.5566 24.799 18.3943 25.0654 17.146L25.6962 16.9771L27.6076 16.4648C27.6629 15.9842 27.6922 15.4955 27.6922 15C27.6922 14.5042 27.6629 14.0158 27.6076 13.5349Z" fill="#00A3E0"/>
<path d="M14.9839 23.4215C10.3315 23.4215 6.54645 19.6362 6.54645 14.984C6.54645 10.3317 10.3315 6.54648 14.9839 6.54648C19.6364 6.54648 23.4214 10.3317 23.4214 14.984C23.4214 19.6362 19.6364 23.4215 14.9839 23.4215Z" fill="white"/>
<path d="M19.6875 15C19.6875 17.5889 17.5888 19.6875 15 19.6875C12.4111 19.6875 10.3125 17.5889 10.3125 15C10.3125 12.4111 12.4111 10.3125 15 10.3125C17.5888 10.3125 19.6875 12.4111 19.6875 15Z" fill="#087299"/>
</svg>
