<svg width="30" height="30" viewBox="0 0 30 30" fill="none" xmlns="http://www.w3.org/2000/svg">
<path fill-rule="evenodd" clip-rule="evenodd" d="M4.03839 15C4.03839 12.5977 4.8118 10.3762 6.12234 8.56982L4.88519 7.33276C3.26801 9.46301 2.30762 12.1191 2.30762 15C2.30762 17.8807 3.26801 20.5369 4.88519 22.667L6.12234 21.4299C4.8118 19.6237 4.03839 17.4023 4.03839 15ZM23.8777 8.56982L25.1148 7.33276C26.7321 9.46301 27.6924 12.1191 27.6924 15C27.6924 17.8807 26.7321 20.5369 25.1148 22.667L23.8777 21.4299C25.1882 19.6237 25.9616 17.4023 25.9616 15C25.9616 12.5977 25.1882 10.3762 23.8777 8.56982Z" fill="#114459"/>
<path d="M25.1148 7.33281L7.33286 25.1147C6.40987 24.4142 5.58589 23.5902 4.88516 22.667L22.6672 4.88525C23.5901 5.58584 24.4141 6.40982 25.1148 7.33281Z" fill="#00A3E0"/>
<path fill-rule="evenodd" clip-rule="evenodd" d="M13.3682 10.9204L7.33279 4.88525C6.40994 5.58582 5.58591 6.40979 4.88516 7.33276L10.9206 13.3682L13.3682 10.9204ZM16.6318 19.0792L19.0795 16.6317L25.1148 22.667C24.4142 23.5901 23.5901 24.4141 22.6672 25.1147L16.6318 19.0792Z" fill="#087299"/>
</svg>
