<svg width="30" height="30" xmlns="http://www.w3.org/2000/svg" fill="none" viewBox="0 0 24 24">
  <g fill="#032d60">
    <path d="M5.315 4.902a9.807 9.807 0 0 0-.96 1.045l5.258 5.257 1.59-1.591-4.666-4.666c-.336-.337-.876-.371-1.222-.045ZM18.684 19.098c.345-.325.665-.674.96-1.045L14.38 12.79l-1.591 1.591 4.672 4.672c.336.337.876.371 1.222.045Z"/>
  </g>
  <path fill="#0b5cab" d="M5.96 7.552 4.357 5.947A9.709 9.709 0 0 0 2.25 12c0 2.287.787 4.39 2.106 6.053l1.605-1.605A7.466 7.466 0 0 1 4.5 12c0-1.665.543-3.204 1.46-4.448ZM18.035 7.55l1.607-1.606a9.707 9.707 0 0 1 2.104 6.053 9.714 9.714 0 0 1-2.102 6.056l-1.609-1.607a7.466 7.466 0 0 0 1.461-4.449 7.466 7.466 0 0 0-1.46-4.448Z"/>
  <path fill="#1b96ff" d="M19.643 5.947a9.802 9.802 0 0 0-.959-1.045c-.346-.326-.886-.292-1.222.045L4.355 18.053c.295.371.615.72.96 1.045.346.326.886.292 1.222-.045L19.644 5.947Z"/>
</svg>
