<svg width="32" height="32" viewBox="0 0 32 32" fill="none" xmlns="http://www.w3.org/2000/svg">
<path fill-rule="evenodd" clip-rule="evenodd" d="M29.9691 1.23096H18.2153C17.7229 1.23096 17.2306 1.53865 17.2306 2.03095V3.8771C17.2306 4.3694 17.6614 4.92325 18.2153 4.92325H23.0768C23.6306 4.92325 23.9383 5.53863 23.5075 5.90786L13.046 16.3693C12.6768 16.7386 12.6768 17.2924 13.046 17.6616L14.3383 18.9539C14.7076 19.3232 15.2614 19.3232 15.6306 18.9539L26.0921 8.49246C26.4614 8.12323 27.0768 8.36938 27.0768 8.92323V13.7847C27.0768 14.277 27.5691 14.8309 28.0614 14.8309H29.846C30.3383 14.8309 30.7691 14.277 30.7691 13.7847V2.09249C30.7691 1.53865 30.4614 1.23096 29.9691 1.23096ZM22.3383 15.6925L20.246 17.8463C19.8768 18.2156 19.6922 18.6463 19.6922 19.1386V26.154C19.6922 26.6463 19.2614 27.0771 18.7691 27.0771H5.84608C5.35377 27.0771 4.92301 26.6463 4.92301 26.154V13.231C4.92301 12.7387 5.35377 12.3079 5.84608 12.3079H12.923C13.4153 12.3079 13.9076 12.1233 14.2153 11.7541L16.3076 9.66177C16.6768 9.29254 16.4307 8.61562 15.8768 8.61562H3.69224C2.3384 8.61562 1.23071 9.72331 1.23071 11.0771V28.3078C1.23071 29.6617 2.3384 30.7694 3.69224 30.7694H20.9229C22.2768 30.7694 23.3845 29.6617 23.3845 28.3078V16.1233C23.3845 15.5694 22.7076 15.3233 22.3383 15.6925Z" fill="#747474"/>
</svg>
