<svg width="16" height="16" xmlns="http://www.w3.org/2000/svg"  viewBox="0 0 24 24">
    <path fill="#032d60" fill-rule="evenodd" d="M13.003 3.544a5.27 5.27 0 1 1 7.453 7.453l-3.45 3.45a5.271 5.271 0 0 1-6.885.495 1 1 0 1 1 1.2-1.6c1.28.959 3.106.856 4.27-.309l3.451-3.45a3.27 3.27 0 0 0-4.625-4.625l-.431.431a1 1 0 1 1-1.414-1.414l.431-.431Zm-.324 7.115a3.271 3.271 0 0 0-4.27.307l-3.451 3.451a3.27 3.27 0 1 0 4.625 4.625l.431-.431a1 1 0 0 1 1.414 1.414l-.431.431a5.27 5.27 0 0 1-7.453-7.453l3.45-3.45a5.271 5.271 0 0 1 6.885-.494 1 1 0 1 1-1.2 1.6Z" clip-rule="evenodd"/>
</svg>