<svg width="16" height="16" viewBox="0 0 16 16" fill="none" xmlns="http://www.w3.org/2000/svg">
<path fill-rule="evenodd" clip-rule="evenodd" d="M7.4273 2.7158C8.53601 1.13243 10.7184 0.747539 12.3018 1.8563C13.8853 2.96507 14.2701 5.14744 13.1614 6.73094L11.7274 8.77879L10.9083 8.20518L12.3422 6.15721C13.1329 5.02806 12.8575 3.46617 11.7283 2.67552C10.5991 1.88475 9.03711 2.16014 8.24646 3.28941L6.8125 5.33726L5.99334 4.76365L7.4273 2.7158ZM9.59204 4.85459L10.4112 5.4282L6.40796 11.1454L5.5888 10.5718L9.59204 4.85459ZM7.7536 12.7106C6.96289 13.8398 5.40094 14.1152 4.27172 13.3244C3.14257 12.5338 2.86712 10.9719 3.65783 9.84263L5.09173 7.79478L4.27258 7.22117L2.83868 9.26902C1.72992 10.8525 2.11474 13.0349 3.69818 14.1435C5.28161 15.2524 7.46399 14.8675 8.57275 13.2842L10.0066 11.2363L9.1875 10.6626L7.7536 12.7106Z" fill="#002196"/>
</svg>
