<svg width="16" height="16" viewBox="0 0 16 16" fill="none" xmlns="http://www.w3.org/2000/svg">
<rect width="16" height="16" fill="white"/>
<path fill-rule="evenodd" clip-rule="evenodd" d="M13 12.4648V6.80219L9.5 6.02441L6 6.80219V12.4648L9.5 14.7982L13 12.4648ZM5.78307 5.826C5.32553 5.92768 5 6.33349 5 6.80219V12.4648C5 12.7992 5.1671 13.1114 5.4453 13.2969L8.9453 15.6302C9.2812 15.8542 9.7188 15.8542 10.0547 15.6302L13.5547 13.2969C13.8329 13.1114 14 12.7992 14 12.4648V6.80219C14 6.33349 13.6745 5.92768 13.2169 5.826L9.71693 5.04823C9.57405 5.01648 9.42595 5.01648 9.28307 5.04823L5.78307 5.826Z" fill="#307195"/>
<path d="M7 9.85445L8.53795 11.3367L12 8V9.66327L8.53795 13L7 11.5177V9.85445Z" fill="#45A1DB"/>
<path fill-rule="evenodd" clip-rule="evenodd" d="M2.82105 4.02185L3.44832 3.90359L3.60514 3.28483C3.93811 1.97101 5.12964 1 6.54545 1C7.45837 1 8.27622 1.40209 8.83376 2.04221L9.29333 2.56986L9.94651 2.31889C10.1209 2.2519 10.3111 2.21471 10.5124 2.21471C11.2108 2.21471 11.8057 2.66893 12.0129 3.30077L12.2243 3.9455L12.9015 3.98732C13.9982 4.05506 14.8818 4.91377 14.9891 6H15V6.22265V8.56346C15.6162 7.97368 16 7.14298 16 6.22265C16 4.50154 14.6579 3.09389 12.9631 2.98923C12.6253 1.95884 11.6557 1.21471 10.5124 1.21471C10.1866 1.21471 9.87484 1.27515 9.58783 1.38543C8.84845 0.536527 7.75961 0 6.54545 0C4.66104 0 3.07848 1.29239 2.63578 3.03917C1.13515 3.32208 0 4.6398 0 6.22265C0 8.01187 1.45045 9.46232 3.23967 9.46232H4V8.46232H3.23967C2.00273 8.46232 1 7.45959 1 6.22265C1 5.12948 1.78419 4.21733 2.82105 4.02185Z" fill="#204357"/>
</svg>
