<svg width="16" height="16" xmlns="http://www.w3.org/2000/svg"  viewBox="0 0 24 24">
    <path fill="#1b96ff" d="M12.01 22.121c-.4 0-.79-.08-1.17-.23-5.32-2.25-7.58-4.93-7.84-15.75-.02-1.08.84-1.96 1.95-2.02 2.37-.13 4.36-.99 6.16-1.89.53-.31 1.24-.31 1.84.01 1.76.9 3.74 1.76 6.11 1.88 1.11.06 1.96.94 1.95 2.02-.21 11.75-3.24 13.87-7.83 15.76-.38.15-.77.23-1.17.23v-.01Zm.01-18.12c-1.91.96-4.23 1.96-6.97 2.11 0 0-.06.02-.07.02.27 10.71 2.58 12.2 6.63 13.91.26.11.54.11.8 0 3.96-1.63 6.4-3.18 6.59-13.94-2.8-.13-5.1-1.13-6.98-2.09v-.01Zm-1.4 10.76c-.48 0-.96-.18-1.35-.53l-.94-.86c-.41-.37-.44-1-.06-1.41.37-.41 1-.44 1.41-.06l.94.86 3.71-3.38c.41-.37 1.04-.34 1.41.06.37.41.34 1.04-.06 1.41l-3.71 3.38c-.38.35-.87.53-1.35.53Z"/>
</svg>