<svg width="30" height="30" xmlns="http://www.w3.org/2000/svg" fill="none" viewBox="0 0 24 24">
  <g fill="#0b5cab">
    <path d="m10.764 7.5-.112 2.25h9.656l.886-1.548a.469.469 0 0 0-.407-.702H10.764ZM2.585 14.25h7.844l-.112 2.25h9.99l.887 1.548a.469.469 0 0 1-.407.702H10.452a.234.234 0 0 1-.234-.246l.1-2.004H2.495a.234.234 0 0 1-.234-.246l.089-1.781a.234.234 0 0 1 .234-.223Z"/>
  </g>
  <path fill="#032d60" d="m10.54 12-.111 2.25h8.59l-.564-.985a.281.281 0 0 1 0-.28l.564-.985H10.54Z"/>
  <g fill="#1b96ff">
    <path d="M2.992 7.5h7.772l.097-1.955a.281.281 0 0 0-.281-.295H3.076a.281.281 0 0 0-.281.267L2.71 7.205c-.008.16.12.295.28.295ZM10.652 9.75h-7.8a.281.281 0 0 0-.28.267l-.084 1.688c-.008.16.12.295.28.295h7.773l.111-2.25Z"/>
  </g>
</svg>
