<svg width="30" height="30" viewBox="0 0 30 30" fill="none" xmlns="http://www.w3.org/2000/svg">
<path d="M9.375 14.981H7.5V10.3125C7.5 7.79526 8.60939 5.53345 10.3634 3.98621L11.4468 5.53345C10.1729 6.73142 9.375 8.43018 9.375 10.3125V14.981Z" fill="#00A3E0"/>
<path d="M15.9375 26.25C12.319 26.25 9.375 23.3061 9.375 19.6875V18.75H7.5V19.6875C7.5 24.34 11.285 28.125 15.9375 28.125C16.7196 28.125 17.4763 28.0156 18.1955 27.8156L17.0338 26.1566C16.6771 26.217 16.3111 26.25 15.9375 26.25Z" fill="#00A3E0"/>
<path d="M15.9375 3.75C19.2376 3.75 21.9755 6.19904 22.432 9.375H24.3217C23.8537 5.1622 20.2731 1.875 15.9375 1.875C14.4746 1.875 13.0977 2.24968 11.897 2.90749L12.9815 4.45633C13.8706 4.00566 14.8744 3.75 15.9375 3.75Z" fill="#00A3E0"/>
<path d="M15.9375 22.5C14.3866 22.5 13.125 21.2384 13.125 19.6875V13.125H11.25V19.6875C11.25 22.272 13.3529 24.375 15.9375 24.375C18.2013 24.375 20.0951 22.7618 20.5307 20.625H18.586C18.1986 21.7156 17.1594 22.5 15.9375 22.5Z" fill="#087299"/>
<path d="M16.875 19.6875V10.2745C16.875 9.75677 16.4553 9.33701 15.9375 9.33701C15.4197 9.33701 15 9.75677 15 10.2745V19.6875C15 20.2052 15.4197 20.625 15.9375 20.625C16.4553 20.625 16.875 20.2052 16.875 19.6875Z" fill="#114459"/>
<path d="M22.5 11.25V19.6875C22.5 20.8658 22.1863 21.9717 21.6402 22.9285L22.8009 24.586C23.7903 23.2038 24.375 21.5131 24.375 19.6875V11.25H22.5Z" fill="#00A3E0"/>
<path d="M15.9375 5.625C13.3529 5.625 11.25 7.72774 11.25 10.3125V11.25H13.125V10.3125C13.125 8.7616 14.3866 7.5 15.9375 7.5C17.4884 7.5 18.75 8.7616 18.75 10.3125V16.875H20.625V10.3125C20.625 7.72774 18.5223 5.625 15.9375 5.625Z" fill="#087299"/>
</svg>
