<svg width="28" height="28" viewBox="0 0 28 28" fill="none" xmlns="http://www.w3.org/2000/svg">
<path fill-rule="evenodd" clip-rule="evenodd" d="M0.875 14.0001C0.875 6.75146 6.75125 0.875122 14 0.875122C21.2487 0.875122 27.125 6.75146 27.125 14.0001C27.125 21.2488 21.2487 27.1251 14 27.1251C6.75125 27.1251 0.875 21.2488 0.875 14.0001ZM25.25 14.0001C25.25 7.797 20.2033 2.75012 14 2.75012C7.79673 2.75012 2.75 7.797 2.75 14.0001C2.75 20.2032 7.79673 25.2501 14 25.2501C20.2033 25.2501 25.25 20.2032 25.25 14.0001ZM14 18.7849C12.9645 18.7849 12.125 19.6244 12.125 20.6599C12.125 21.6954 12.9645 22.5349 14 22.5349C15.0355 22.5349 15.875 21.6954 15.875 20.6599C15.875 19.6244 15.0355 18.7849 14 18.7849ZM13.0625 16.7178V6.44409H14.9375V16.7178H13.0625Z" fill="#c1930b"/>
</svg>
