<svg width="16" height="16" viewBox="0 0 16 16" fill="none" xmlns="http://www.w3.org/2000/svg">
<path d="M5 7.5H12" stroke="#5C5C5C"/>
<path d="M4 1.5H13" stroke="#5C5C5C"/>
<path d="M5.078 1.5L6.511 3.368C6.71466 3.67813 6.83418 4.03588 6.85785 4.40614C6.88152 4.77641 6.80851 5.14646 6.646 5.48L2.147 12C1.729 12.962 2.175 14.5 3.5 14.5H13.5C14.828 14.5 15.277 12.962 14.859 12L10.4 5.479C10.2362 5.14577 10.1625 4.77543 10.1864 4.40486C10.2102 4.0343 10.3308 3.67647 10.536 3.367L11.922 1.5" stroke="#5C5C5C"/>
<path d="M10.5 10C10.7761 10 11 9.77614 11 9.5C11 9.22386 10.7761 9 10.5 9C10.2239 9 10 9.22386 10 9.5C10 9.77614 10.2239 10 10.5 10Z" fill="#5C5C5C"/>
<path d="M11.5 12C11.7761 12 12 11.7761 12 11.5C12 11.2239 11.7761 11 11.5 11C11.2239 11 11 11.2239 11 11.5C11 11.7761 11.2239 12 11.5 12Z" fill="#5C5C5C"/>
<path d="M8.5 12C8.77614 12 9 11.7761 9 11.5C9 11.2239 8.77614 11 8.5 11C8.22386 11 8 11.2239 8 11.5C8 11.7761 8.22386 12 8.5 12Z" fill="#5C5C5C"/>
</svg>
