<svg width="15" height="19" viewBox="0 0 15 19" fill="none" xmlns="http://www.w3.org/2000/svg">
<path d="M4.50446 12H10.5045L11.0045 12.5C11.0045 12.5 12.5045 14.5 13.5045 16C14.5045 17.5 13.0045 18 13.0045 18H2.00446L1.50446 17.5V16L4.50446 12Z" fill="#A2C7FF" fill-opacity="0.4"/>
<path d="M4.00446 11.5H11.0045" stroke="#5C5C5C"/>
<path d="M3.00446 5.5H12.0045" stroke="#5C5C5C"/>
<path d="M4.08246 5.5L5.51546 7.368C5.71911 7.67813 5.83864 8.03588 5.86231 8.40614C5.88597 8.77641 5.81297 9.14646 5.65046 9.48L1.15146 16C0.733458 16.962 1.17946 18.5 2.50446 18.5H12.5045C13.8325 18.5 14.2815 16.962 13.8635 16L9.40446 9.479C9.24062 9.14577 9.16697 8.77543 9.19083 8.40486C9.21469 8.0343 9.33524 7.67647 9.54046 7.367L10.9265 5.5" stroke="#5C5C5C"/>
<path d="M7.50446 3.5C7.7806 3.5 8.00446 3.27614 8.00446 3C8.00446 2.72386 7.7806 2.5 7.50446 2.5C7.22831 2.5 7.00446 2.72386 7.00446 3C7.00446 3.27614 7.22831 3.5 7.50446 3.5Z" fill="#014486"/>
<path d="M8.50446 1C8.7806 1 9.00446 0.776142 9.00446 0.5C9.00446 0.223858 8.7806 0 8.50446 0C8.22831 0 8.00446 0.223858 8.00446 0.5C8.00446 0.776142 8.22831 1 8.50446 1Z" fill="#57A3FD"/>
<path d="M9.50446 4.5C9.7806 4.5 10.0045 4.27614 10.0045 4C10.0045 3.72386 9.7806 3.5 9.50446 3.5C9.22831 3.5 9.00446 3.72386 9.00446 4C9.00446 4.27614 9.22831 4.5 9.50446 4.5Z" fill="#0176D3"/>
</svg>
