<svg width="30" height="30" xmlns="http://www.w3.org/2000/svg" fill="none" viewBox="0 0 24 24">
  <path fill="#1b96ff" d="M4.1 7.366c0-.335.18-.644.47-.812l1.078-.622a.469.469 0 0 1 .703.406v11.324c0 .36-.39.586-.703.406l-1.078-.623a.938.938 0 0 1-.47-.811V7.366Z"/>
  <path fill="#032d60" d="M17.6 13.06c0-.364.398-.59.71-.402l1.085.65c.283.169.456.474.456.804v2.579a.938.938 0 0 1-.469.811l-1.078.623a.469.469 0 0 1-.703-.406V13.06Z"/>
  <path fill="#0b5cab" d="M13.1 8.756c0-.36.392-.586.704-.406l1.078.623c.29.167.469.477.469.812v9.503a.938.938 0 0 1-.469.812l-1.078.623a.469.469 0 0 1-.703-.406V8.757Z"/>
  <path fill="#032d60" d="M8.6 11.95c0-.334.18-.644.47-.811l1.078-.623a.469.469 0 0 1 .703.406v9.338c0 .36-.39.586-.703.406l-1.078-.623a.937.937 0 0 1-.47-.812v-7.28Z"/>
</svg>
