<svg width="30" height="30" viewBox="0 0 30 30" fill="none" xmlns="http://www.w3.org/2000/svg">
<path d="M20.9375 18.4615H18.1204L15.0853 14.127L12.0502 18.4615H10.0411L7.00599 14.127L3.97094 18.4615H1.15384L6.00142 11.5385H8.01055L11.0457 15.8729L14.0808 11.5385H16.0899L20.9375 18.4615Z" fill="#00A3E0"/>
<path d="M24.7466 23.9023L26.5911 26.5384H23.774L22.9666 25.3846H6.48446C5.80634 24.6778 5.19646 23.9054 4.66602 23.0769H22.4841C24.3622 20.8081 25.3846 17.9826 25.3846 15C25.3846 12.0172 24.3622 9.19187 22.4841 6.92305H4.66602C5.19646 6.09457 5.80634 5.322 6.48446 4.61536H23.5157C24.1939 5.322 24.8037 6.09457 25.3342 6.92305C26.8268 9.25454 27.6923 12.0261 27.6923 15C27.6923 17.9737 26.8268 20.7454 25.3342 23.0769C25.1516 23.362 24.9475 23.6309 24.7466 23.9023Z" fill="#087299"/>
</svg>
