<svg width="30" height="30" xmlns="http://www.w3.org/2000/svg" fill="none" viewBox="0 0 24 24">
  <path fill="#1b96ff" d="m17.53 17.54 3.46-5.978a.938.938 0 0 0 0-.94l-3.766-6.506a.937.937 0 0 0-.812-.468H5.752a.937.937 0 0 0-.811.468l-.624 1.079a.469.469 0 0 0 .405.703h8.627a4 4 0 0 1 3.462 1.997l1.741 3.01a.375.375 0 0 1 0 .375l-2.972 5.136a.375.375 0 0 1-.324.188H4.563a.469.469 0 0 0-.406.703l.624 1.079c.168.29.477.468.812.468h9.663c.133 0 .257.07.324.187l.426.735c.167.29.477.468.811.468h1.246a.469.469 0 0 0 .406-.704l-.94-1.624a.375.375 0 0 1 0-.375Z"/>
  <path fill="#0b5cab" fill-rule="evenodd" d="m12.014 10.987-1.325 1.526a.938.938 0 0 1-.71.322l-.844-.001a.937.937 0 0 1-.708-.325L7.109 10.98l-1.13 1.483a.938.938 0 0 1-.745.37l-1.419.001a.469.469 0 0 1-.374-.751L5.63 9.19a.937.937 0 0 1 .747-.372h1.391c.27 0 .527.117.705.32l1.088 1.242 1.1-1.245a.938.938 0 0 1 .703-.317h1.388c.297 0 .576.14.753.38l2.142 2.89c.23.31.009.748-.376.748h-1.405a.937.937 0 0 1-.75-.376l-1.102-1.473Z" clip-rule="evenodd"/>
</svg>
