<svg width="30" height="30" viewBox="0 0 30 30" fill="none" xmlns="http://www.w3.org/2000/svg">
<path d="M25.3844 17.2599L27.1982 18.5299C27.1086 18.8582 27.0046 19.1853 26.8862 19.5107C26.7677 19.8361 26.6371 20.1534 26.4948 20.4625L24.289 20.2697C23.937 20.9045 23.52 21.4984 23.0465 22.0418L23.9828 24.05C23.7411 24.2893 23.4875 24.5207 23.2222 24.7433C22.957 24.9659 22.6851 25.1755 22.4073 25.372L20.5935 24.102C19.9784 24.473 19.3214 24.7812 18.6311 25.0182L18.4383 27.2227C18.1092 27.3092 17.7739 27.3829 17.4329 27.4429C17.0918 27.5032 16.7516 27.5486 16.4128 27.58L15.4761 25.5713C15.4142 25.5725 15.3522 25.5737 15.2899 25.5737C14.6161 25.5737 13.9578 25.5082 13.3201 25.3844L12.05 27.1983C11.7218 27.1085 11.3947 27.0047 11.0692 26.8863C10.7439 26.7678 10.4264 26.637 10.1174 26.4949L10.3103 24.289C9.67544 23.937 9.08161 23.52 8.53811 23.0465L6.53001 23.983C6.29062 23.7412 6.05919 23.4876 5.83662 23.2222C5.61399 22.9571 5.40447 22.6852 5.20795 22.4074L6.47791 20.5935C6.10696 19.9784 5.79871 19.3214 5.56164 18.6312L3.35714 18.4383C3.27071 18.1092 3.19709 17.7739 3.13696 17.4329C3.07683 17.0919 3.03132 16.7516 3 16.4128L5.0086 15.4762C5.00747 15.4142 5.00622 15.3523 5.00622 15.29C5.00622 14.6161 5.07175 13.9578 5.19546 13.3201L3.38169 12.0501C3.47138 11.7218 3.57526 11.3947 3.6937 11.0693C3.81214 10.7439 3.94288 10.4264 4.08511 10.1174L6.29093 10.3103C6.64299 9.67538 7.05989 9.08161 7.5334 8.53804L6.59704 6.53001C6.83882 6.29061 7.0924 6.05926 7.35765 5.83656C7.6229 5.61411 7.89481 5.40447 8.17255 5.20789L9.98639 6.47804C10.6014 6.10696 11.2585 5.79865 11.9487 5.56164L12.1416 3.35727C12.4707 3.27065 12.806 3.19709 13.1471 3.13708C13.4881 3.07683 13.8283 3.03138 14.1671 3L15.0767 4.95042L15.1038 5.00854L15.5846 6.0398C15.4867 6.03666 15.3886 6.03465 15.2899 6.03465C10.1866 6.03465 6.03459 10.1866 6.03459 15.29C6.03459 20.3934 10.1866 24.5453 15.2899 24.5453C20.3933 24.5453 24.5453 20.3934 24.5453 15.29C24.5453 14.0746 24.3094 12.9135 23.8817 11.8494L27.2227 12.1416C27.3092 12.4708 27.3828 12.8061 27.4429 13.1471C27.503 13.4881 27.5486 13.8283 27.5799 14.1672L25.5713 15.1038C25.5724 15.1657 25.5737 15.2277 25.5737 15.29C25.5737 15.9639 25.5081 16.6222 25.3844 17.2599Z" fill="#00A2DF"/>
<path d="M23.459 6.07984C22.7354 5.43912 21.9394 4.88727 21.0872 4.43108L19.916 6.1037C20.784 6.54168 21.5812 7.09918 22.2865 7.75421L23.459 6.07984Z" fill="#114459"/>
<path d="M13.2318 15.6499L19.3195 6.95582C20.196 7.38037 20.9953 7.939 21.6908 8.60521L15.5979 17.3068L13.2318 18.1672V15.6499H13.2318Z" fill="#087299"/>
</svg>
