<svg width="30" height="30" xmlns="http://www.w3.org/2000/svg"  viewBox="0 0 24 24">
    <path fill="#1b96ff" fill-rule="evenodd" d="M13.775 3.521a1 1 0 0 1 .774 1.184l-3.14 15a1 1 0 1 1-1.958-.41l3.14-15a1 1 0 0 1 1.184-.774Zm3.62 2.683a1 1 0 0 1 1.4.19L21.77 10.3a2.005 2.005 0 0 1 0 2.41l-.005.007-2.97 3.89a1 1 0 0 1-1.59-1.214l2.966-3.884a.011.011 0 0 0 .001-.003v-.002l-.001-.003-.001-.001-2.966-3.894a1 1 0 0 1 .19-1.402ZM6.612 6.26a1 1 0 0 1 .177 1.403L3.84 11.472a.01.01 0 0 0-.001.002v.002l.002.004 2.958 3.917a1 1 0 0 1-1.596 1.206l-2.96-3.92-.002-.003a2.005 2.005 0 0 1 0-2.41l.01-.012 2.96-3.82a1 1 0 0 1 1.403-.178Z" clip-rule="evenodd"/>
</svg>