<svg width="30" height="30" xmlns="http://www.w3.org/2000/svg"  viewBox="0 0 24 24">
    <path fill="#0b5cab" d="M17 5.5a.5.5 0 0 1-.5.5H15v2a.5.5 0 0 1-.5.5h-1A.5.5 0 0 1 13 8V6h-1V4h4.5a.5.5 0 0 1 .5.5v1ZM12 20v-2h4.446a.5.5 0 0 0 .437-.744l-.495-.884a.25.25 0 0 1 .218-.372h1.592a.5.5 0 0 1 .438.26l.834 1.518A1.5 1.5 0 0 1 18.155 20H12Z"/>
    <path fill="#1b96ff" d="M12 6h-1v2a.5.5 0 0 1-.5.5h-1A.5.5 0 0 1 9 8V6H7.5a.5.5 0 0 1-.5-.5v-1a.5.5 0 0 1 .5-.5H12v2ZM12 20v-2H7.554a.5.5 0 0 1-.437-.744l.495-.884A.25.25 0 0 0 7.394 16H5.802a.5.5 0 0 0-.438.26l-.834 1.518A1.5 1.5 0 0 0 5.845 20H12Z"/>
    <path fill="#032d60" d="m14.17 12.3 1.438 2.628a.5.5 0 0 0 .439.26h1.583a.25.25 0 0 0 .22-.37l-2.76-5.077a1 1 0 0 0-1.751-.011l-1.33 2.37-1.343-2.38a1 1 0 0 0-1.75.012L6.143 14.82a.25.25 0 0 0 .22.37h1.582a.5.5 0 0 0 .439-.259L9.83 12.3l1.294 2.297a1 1 0 0 0 1.74.003l1.307-2.3Z"/>
</svg>