<svg width="30" height="30" xmlns="http://www.w3.org/2000/svg"  viewBox="0 0 24 24">
    <path fill="#1b96ff" fill-rule="evenodd" d="M2 4a2 2 0 0 1 2-2h5a2 2 0 0 1 2 2v5a2 2 0 0 1-2 2H4a2 2 0 0 1-2-2V4Zm7 0H4v5h5V4Zm4 0a2 2 0 0 1 2-2h5a2 2 0 0 1 2 2v5a2 2 0 0 1-2 2h-5a2 2 0 0 1-2-2V4Zm7 0h-5v5h5V4ZM2 15a2 2 0 0 1 2-2h5a2 2 0 0 1 2 2v5a2 2 0 0 1-2 2H4a2 2 0 0 1-2-2v-5Zm7 0H4v5h5v-5Zm4 0a2 2 0 0 1 2-2h5a2 2 0 0 1 2 2v5a2 2 0 0 1-2 2h-5a2 2 0 0 1-2-2v-5Zm7 0h-5v5h5v-5Z" clip-rule="evenodd"/>
</svg>
