<svg width="32" height="32" viewBox="0 0 32 32" fill="none" xmlns="http://www.w3.org/2000/svg">
<path fill-rule="evenodd" clip-rule="evenodd" d="M25.477 24.431L24.9232 24.9848C24.3078 25.6002 23.5078 25.9079 22.6463 25.9079H21.0463C19.5694 25.9079 17.9694 24.7387 17.9694 22.7079V21.1695C17.9694 19.9387 18.5232 19.2002 18.8309 18.7695L25.477 12.0002C25.6617 11.8156 25.8463 11.3848 25.8463 11.1387V6.03099C25.8463 4.43099 24.4924 3.07715 22.8924 3.07715H7.13863C5.53864 3.07715 4.1848 4.55407 4.1848 6.03099H3.20018C2.09249 6.03099 1.23096 6.95407 1.23096 8.06176C1.23096 9.16946 2.09249 10.031 3.20018 10.031H4.1848V14.031H3.20018C2.09249 14.031 1.23096 14.8925 1.23096 16.0002C1.23096 17.1079 2.09249 17.9695 3.20018 17.9695H4.1848V21.9695H3.20018C2.09249 21.9695 1.23096 22.8925 1.23096 23.9387C1.23096 25.0464 2.09249 25.9079 3.20018 25.9079H4.1848C4.1848 27.8771 5.53864 28.8618 7.13863 28.8618H22.8924C24.4924 28.8618 25.8463 27.5079 25.8463 25.9079V24.6156C25.8463 24.3079 25.7232 24.2464 25.477 24.431ZM20.431 10.523C20.431 11.0769 20.0002 11.5076 19.4464 11.5076H9.60026C9.04641 11.5076 8.61564 11.0769 8.61564 10.523V9.5384C8.61564 8.98456 9.04641 8.55379 9.60026 8.55379H19.4464C20.0002 8.55379 20.431 8.98456 20.431 9.5384V10.523ZM16.0002 22.4624C16.0002 23.0162 15.5695 23.447 15.0156 23.447H9.60026C9.04641 23.447 8.61564 23.0162 8.61564 22.4624V21.4777C8.61564 20.9239 9.04641 20.4931 9.60026 20.4931H15.0156C15.5695 20.4931 16.0002 20.9239 16.0002 21.4777V22.4624ZM17.4772 16.4936C17.4772 17.0474 17.0464 17.4782 16.4925 17.4782H9.60026C9.04641 17.4782 8.61564 17.0474 8.61564 16.4936V15.509C8.61564 14.9551 9.04641 14.5244 9.60026 14.5244H16.4925C17.0464 14.5244 17.4772 14.9551 17.4772 15.509V16.4936ZM30.4618 13.7839L29.8464 13.1685C29.4771 12.7993 28.8618 12.7993 28.4925 13.1685L20.9849 20.9224C20.9233 20.9224 20.9233 21.0455 20.9233 21.0455V22.707C20.9233 22.8301 20.9233 22.9532 21.0464 22.9532H22.6464C22.7079 22.9532 22.7695 22.8916 22.831 22.8916L30.4002 15.2608C30.8925 14.8301 30.8925 14.2147 30.4618 13.7839Z" fill="#747474"/>
</svg>
