<svg width="30" height="30" viewBox="0 0 30 30" fill="none" xmlns="http://www.w3.org/2000/svg">
<path fill-rule="evenodd" clip-rule="evenodd" d="M26.05 14.875C26.05 12.5506 25.3632 10.3869 24.1816 8.575C23.8159 8.01437 23.4028 7.48757 22.9482 7H7.10193C6.64716 7.48757 6.23407 8.01437 5.86847 8.575C4.68683 10.3869 4 12.5506 4 14.875C4 17.1994 4.68695 19.3631 5.86847 21.175C6.23407 21.7356 6.64716 22.2624 7.10193 22.75H22.9482C23.4028 22.2624 23.8159 21.7356 24.1815 21.175C25.3632 19.3631 26.05 17.1994 26.05 14.875ZM7.81982 21.175C6.38654 19.4139 5.57507 17.1933 5.57507 14.875C5.57507 12.5567 6.38641 10.3359 7.81964 8.575H11.2055C12.6387 10.3359 13.4501 12.5567 13.4501 14.875C13.4501 17.1933 12.6386 19.4139 11.2054 21.175H7.81982ZM13.1564 21.175H22.2303C23.6636 19.4139 24.475 17.1933 24.475 14.875C24.475 12.5567 23.6637 10.3359 22.2305 8.575H13.1566C14.3381 10.3869 15.025 12.5506 15.025 14.875C15.025 17.1994 14.3381 19.3631 13.1564 21.175Z" fill="#00A3E0"/>
</svg>
