<svg width="30" height="30" xmlns="http://www.w3.org/2000/svg" fill="none" viewBox="0 0 24 24">
  <path fill="#1b96ff" d="M13.22 10.713c.29.167.468.477.468.812v6.283a.938.938 0 0 1-.469.812l-.75.433a.938.938 0 0 1-.937 0L7.716 16.85a.938.938 0 0 1-.469-.812v-1.251c0-.36.391-.586.703-.406l3.488 2.014v-3.907a.375.375 0 0 0-.188-.325L6.375 9.358a.375.375 0 0 0-.562.325V19.91c0 .335-.179.645-.47.813l-1.084.624a.469.469 0 0 1-.702-.407V7.667c0-.335.178-.645.468-.812l.787-.455a.937.937 0 0 1 .938 0l7.47 4.313Z"/>
  <path fill="#032d60" d="M10.426 3.957a.469.469 0 0 1 0-.812l1.081-.624a.938.938 0 0 1 .938 0l7.5 4.334c.29.167.469.476.469.81l.005 6.389a.937.937 0 0 1-.468.813l-1.084.625a.469.469 0 0 1-.704-.406V8.641a.375.375 0 0 0-.187-.325l-7.55-4.36Z"/>
  <path fill="#0b5cab" d="M14.812 10.559a.375.375 0 0 0-.188-.325L7.1 5.89a.469.469 0 0 1 0-.812l1.078-.622a.937.937 0 0 1 .938 0l7.477 4.317c.29.167.469.477.469.812v6.405a.938.938 0 0 1-.469.812l-1.078.623a.469.469 0 0 1-.703-.406v-6.46Z"/>
</svg>
