<svg width="30" height="30" xmlns="http://www.w3.org/2000/svg" fill="none" viewBox="0 0 24 24">
  <path fill="#1b96ff" d="M11.813 4.895a.271.271 0 0 0-.295-.274A5.971 5.971 0 0 0 6.52 8.417a.406.406 0 0 1-.27.245 5.477 5.477 0 0 0-3.999 5.27 5.479 5.479 0 0 0 5.484 5.474h3.797a.281.281 0 0 0 .281-.281v-1.688a.281.281 0 0 0-.28-.28H7.733A3.229 3.229 0 0 1 4.5 13.932a3.228 3.228 0 0 1 2.943-3.211l.14-.012a.937.937 0 0 0 .836-.75l.028-.138a3.717 3.717 0 0 1 3.106-2.94.298.298 0 0 0 .26-.289V4.895Z"/>
  <g fill="#032d60">
    <path d="M12.914 8.857a1.125 1.125 0 1 0 2.25 0 1.125 1.125 0 0 0-2.25 0ZM16.29 8.857a1.125 1.125 0 1 0 2.249 0 1.125 1.125 0 0 0-2.25 0Z"/>
  </g>
  <path fill="#0b5cab" d="M14.352 6.844a.281.281 0 0 1-.281-.282V4.875c0-.155.126-.281.281-.281h6.438c.517 0 .937.42.937.937V18.47c0 .517-.42.937-.938.937h-6.437a.281.281 0 0 1-.281-.281v-1.688c0-.155.126-.28.281-.28h4.75a.375.375 0 0 0 .375-.376V13.5a.375.375 0 0 0-.375-.375h-4.75a.281.281 0 0 1-.281-.281v-1.688c0-.155.126-.281.281-.281h4.75a.375.375 0 0 0 .375-.375V7.219a.375.375 0 0 0-.375-.375h-4.75Z"/>
  <g fill="#032d60">
    <path d="M12.914 15.138a1.125 1.125 0 1 0 2.25 0 1.125 1.125 0 0 0-2.25 0ZM16.29 15.138a1.125 1.125 0 1 0 2.249 0 1.125 1.125 0 0 0-2.25 0Z"/>
  </g>
</svg>
