<svg width="30" height="30" viewBox="0 0 30 30" fill="none" xmlns="http://www.w3.org/2000/svg">
<path fill-rule="evenodd" clip-rule="evenodd" d="M22.9371 9.42138C22.1605 9.42138 21.5309 10.051 21.5309 10.8276C21.5309 11.6042 22.1605 12.2337 22.9371 12.2337C23.7137 12.2337 24.3433 11.6042 24.3433 10.8276C24.3433 10.051 23.7137 9.42138 22.9371 9.42138ZM16.2395 19.2185C16.2395 18.4419 16.8691 17.8124 17.6457 17.8124C18.4223 17.8124 19.0519 18.4419 19.0519 19.2185C19.0519 19.9952 18.4223 20.6247 17.6457 20.6247C16.8691 20.6247 16.2395 19.9952 16.2395 19.2185ZM22.9371 20.6247C23.7137 20.6247 24.3433 19.9952 24.3433 19.2185C24.3433 18.4419 23.7137 17.8124 22.9371 17.8124C22.1605 17.8124 21.5309 18.4419 21.5309 19.2185C21.5309 19.9952 22.1605 20.6247 22.9371 20.6247ZM16.2396 10.8276C16.2396 10.051 16.8691 9.42138 17.6458 9.42138C18.4224 9.42138 19.0519 10.051 19.0519 10.8276C19.0519 11.6042 18.4224 12.2337 17.6458 12.2337C16.8691 12.2337 16.2396 11.6042 16.2396 10.8276Z" fill="#087299"/>
<path fill-rule="evenodd" clip-rule="evenodd" d="M8.43781 22.4996C5.85327 22.4996 3.75055 20.3969 3.75055 17.8124C3.75055 16.0098 4.80457 14.3459 6.43567 13.5736L7.45404 13.0913L7.50616 11.9658C7.62219 9.46182 9.67853 7.50038 12.1876 7.50038H13.1197V5.62548H12.1876C8.66693 5.62548 5.79456 8.39819 5.6333 11.879C3.41229 12.9307 1.87567 15.1917 1.87567 17.8124C1.87567 21.4365 4.8136 24.3745 8.43781 24.3745H13.1197V22.4996H8.43781ZM16.8749 7.52675V5.65185L28.1243 5.62548V24.3745H16.8749V22.4996H26.2495V15.9374H16.875V14.0626H26.2495V7.50038L16.8749 7.52675Z" fill="#00A1DF"/>
</svg>
