<svg width="30" height="30" viewBox="0 0 30 30" fill="none" xmlns="http://www.w3.org/2000/svg">
<path d="M11.0625 18.2812C11.0625 19.2133 10.307 19.9686 9.37499 19.9686C8.4431 19.9686 7.68756 19.2133 7.68756 18.2812C7.68756 17.3492 8.4431 16.5937 9.37499 16.5937C10.307 16.5937 11.0625 17.3492 11.0625 18.2812Z" fill="#087299"/>
<path d="M15.0001 16.5937C14.0681 16.5937 13.3126 17.3492 13.3126 18.2812C13.3126 19.2133 14.0681 19.9686 15.0001 19.9686C15.9321 19.9686 16.6875 19.2133 16.6875 18.2812C16.6875 17.3492 15.9321 16.5937 15.0001 16.5937Z" fill="#087299"/>
<path d="M20.6252 16.5937C19.6932 16.5937 18.9377 17.3492 18.9377 18.2812C18.9377 19.2133 19.6932 19.9686 20.6252 19.9686C21.5571 19.9686 22.3127 19.2133 22.3127 18.2812C22.3127 17.3492 21.5571 16.5937 20.6252 16.5937Z" fill="#087299"/>
<path fill-rule="evenodd" clip-rule="evenodd" d="M22.5001 24.375C25.6066 24.375 28.125 21.8566 28.125 18.75C28.125 16.2973 26.555 14.2126 24.3655 13.4431C24.3715 13.3379 24.375 13.2317 24.375 13.125C24.375 10.0184 21.8566 7.5 18.75 7.5C18.1526 7.5 17.5773 7.59384 17.037 7.76642C15.8369 6.45081 14.1088 5.625 12.1875 5.625C8.66663 5.625 5.79413 8.39767 5.63281 11.879C3.41174 12.9305 1.875 15.1918 1.875 17.8125C1.875 21.4368 4.81317 24.375 8.4375 24.375H22.5001ZM23.7438 15.2119C25.2428 15.7388 26.25 17.1606 26.25 18.75C26.25 20.8177 24.5678 22.5 22.5001 22.5H8.4375C5.85284 22.5 3.75 20.397 3.75 17.8125C3.75 16.0098 4.80402 14.3459 6.43524 13.5736L7.45367 13.0911L7.50586 11.9655C7.62189 9.46152 9.67828 7.5 12.1875 7.5C13.5022 7.5 14.7648 8.05756 15.6517 9.03008L16.4621 9.91837L17.6075 9.55261C17.9765 9.43474 18.3609 9.375 18.75 9.375C20.8178 9.375 22.5 11.0573 22.5 13.125C22.5 13.169 22.499 13.2155 22.4969 13.266C22.496 13.2893 22.4948 13.3134 22.4935 13.3385L22.415 14.745L23.7438 15.2119Z" fill="#00A3E0"/>
</svg>
