<?xml version="1.0" encoding="utf-8"?>
<!-- Generator: Adobe Illustrator 19.2.0, SVG Export Plug-In . SVG Version: 6.00 Build 0)  -->
<svg version="1.1" xmlns="http://www.w3.org/2000/svg" xmlns:xlink="http://www.w3.org/1999/xlink" x="0px" y="0px"
	 viewBox="0 0 26 26" enable-background="new 0 0 26 26" xml:space="preserve">
<g id="content">
	<path fill="#989A9B" d="M17.0999775,17.9711609v2.4376793c-1.4507236,1.0019722-3.2073526,1.5911026-5.099968,1.5911026
		c-4.9625907,0-8.9999428-4.0373516-8.9999428-8.9999418s4.0373526-8.9999428,8.9999428-8.9999428
		c1.8926153,0,3.6492443,0.5891318,5.099968,1.5911031V8.028841l-1.0862598-0.7611527
		c-1.1365538-0.797688-2.5196991-1.2676435-4.0137081-1.2676435c-3.8659668,0-6.9999557,3.1339893-6.9999557,6.9999561
		s3.1339889,6.9999552,6.9999557,6.9999552c1.494009,0,2.8771544-0.4699554,4.0137081-1.267643L17.0999775,17.9711609z"/>
	<path fill="#58595A" d="M20,7.6191406V12h-5.1843262C14.4014893,10.838623,13.3018799,10,12,10
		c-1.6541748,0-2.999939,1.3458252-2.999939,3S10.3458252,16,12,16c1.3018799,0,2.4015503-0.838623,2.8156738-2H20v4.3808594
		l1.999939-1.4003906V9.0195312L20,7.6191406z M12,14.5c-0.8284302,0-1.5-0.6716309-1.5-1.5s0.6715698-1.5,1.5-1.5
		s1.5,0.6716309,1.5,1.5S12.8284302,14.5,12,14.5z"/>
</g>
</svg>
