<svg width="30" height="30" xmlns="http://www.w3.org/2000/svg"  viewBox="0 0 24 24">
    <path fill="#1b96ff" fill-rule="evenodd" d="M11 3a4 4 0 0 0-4 4 1 1 0 0 1-1 1 2.998 2.998 0 0 0-2.6 4.5c.521.899 1.49 1.5 2.6 1.5h1a1 1 0 1 1 0 2H6a4.998 4.998 0 0 1-4.33-7.5 5.006 5.006 0 0 1 3.4-2.413 6.001 6.001 0 0 1 11.633-.955 5.505 5.505 0 0 1 3.37 2.312 1 1 0 0 1-1.662 1.112 3.498 3.498 0 0 0-2.596-1.542 1 1 0 0 1-.892-.8A4.002 4.002 0 0 0 11 3Zm2.981 7.81a1.635 1.635 0 0 1 1.586-1.238h1.866c.75 0 1.404.51 1.586 1.239l.188.75.031.019.744-.213a1.635 1.635 0 0 1 1.866.754l.933 1.616c.375.65.26 1.47-.28 1.992l-.557.54v.034l.558.54c.539.52.654 1.342.279 1.992l-.933 1.616c-.375.65-1.144.96-1.865.754l-.744-.213-.032.019-.188.75A1.635 1.635 0 0 1 17.433 23h-1.866c-.75 0-1.404-.51-1.586-1.238l-.188-.751-.032-.019-.744.213a1.635 1.635 0 0 1-1.865-.754l-.933-1.616a1.635 1.635 0 0 1 .28-1.993l.557-.539v-.035l-.557-.539a1.635 1.635 0 0 1-.28-1.992l.933-1.616a1.635 1.635 0 0 1 1.866-.754l.744.213c.01-.007.021-.012.031-.018l.188-.752Zm1.871.762-.154.616a1.69 1.69 0 0 1-.84 1.07c-.053.028-.106.059-.157.09a1.69 1.69 0 0 1-1.348.195l-.611-.175-.648 1.122.457.442c.366.353.518.826.506 1.262a3.512 3.512 0 0 0 0 .184c.011.435-.14.908-.506 1.261l-.457.443.647 1.122.611-.175a1.69 1.69 0 0 1 1.348.194c.052.032.105.063.158.092.383.208.717.575.84 1.069l.154.616h1.296l.154-.616a1.69 1.69 0 0 1 .84-1.07c.053-.028.106-.059.158-.09a1.69 1.69 0 0 1 1.348-.195l.61.175.648-1.122-.457-.443a1.689 1.689 0 0 1-.506-1.261 3.486 3.486 0 0 0 0-.184 1.69 1.69 0 0 1 .506-1.262l.457-.442-.648-1.122-.61.175a1.69 1.69 0 0 1-1.349-.194 3.378 3.378 0 0 0-.157-.092 1.69 1.69 0 0 1-.84-1.069l-.154-.616h-1.296Zm1.432 4.26a.904.904 0 1 0-1.567.905.904.904 0 0 0 1.567-.904Zm-2.235-2.063a2.904 2.904 0 1 1 2.904 5.03 2.904 2.904 0 0 1-2.904-5.03Z" clip-rule="evenodd"/>
</svg>