<svg width="30" height="30" viewBox="0 0 30 30" fill="none" xmlns="http://www.w3.org/2000/svg">
<path d="M6.78809 16.5508H17.4219V18.2169H6.78809V16.5508Z" fill="#087299"/>
<path d="M17.4321 18.9957C18.3548 18.9901 19.0983 18.2396 19.0927 17.3194C19.087 16.3993 18.3345 15.6579 17.4118 15.6635C16.489 15.6691 15.7456 16.4196 15.7512 17.3398C15.7568 18.26 16.5093 19.0014 17.4321 18.9957Z" fill="#114459"/>
<path d="M21.5723 12.6392L25.1296 12.6369L25.1342 20.7185L20.6538 20.715L20.745 20.7173L4.87039 20.7288L4.86577 14.0642L12.3508 14.0596L12.3404 12.3935L3.19385 12.4004L3.20077 22.3962L20.7462 22.3846L21.5227 22.3835L26.8062 22.3927L26.8004 10.9627L23.2142 10.9638C22.9047 7.9831 20.3899 5.72001 17.3931 5.72539C15.7486 5.72412 14.1797 6.41617 13.0719 7.63154C10.4935 6.81252 7.72964 8.18346 6.82154 10.7319L8.65731 10.7308C9.44324 9.37217 11.0686 8.74335 12.5642 9.21923L13.5854 9.54346L14.3077 8.75423C15.1006 7.88839 16.2202 7.39454 17.3942 7.39269C19.6226 7.38398 21.4626 9.13149 21.5688 11.3573L21.5665 11.5165" fill="#00A3E0"/>
</svg>
