<svg width="30" height="30" viewBox="0 0 30 30" fill="none" xmlns="http://www.w3.org/2000/svg">
<path d="M26.5385 15C26.5385 8.62749 21.3725 3.46155 15 3.46155C8.62748 3.46155 3.46154 8.62749 3.46154 15C3.46154 20.3765 7.13879 24.8941 12.1154 26.175V24.3758C8.1067 23.144 5.19231 19.4126 5.19231 15C5.19231 9.58337 9.58337 5.19232 15 5.19232C20.4166 5.19232 24.8077 9.58337 24.8077 15C24.8077 17.6982 23.7177 20.1415 21.9545 21.9147L22.961 23.3522C25.1651 21.2507 26.5385 18.2858 26.5385 15Z" fill="#087299"/>
<path fill-rule="evenodd" clip-rule="evenodd" d="M23.0792 26.5385L17.974 19.2472C19.3124 18.308 20.1924 16.7594 20.1924 15.0001C20.1924 12.1326 17.8677 9.80786 15.0001 9.80786C12.1324 9.80786 9.80776 12.1326 9.80776 15.0001C9.80776 17.8678 12.1324 20.1925 15.0001 20.1925C15.2492 20.1925 15.4888 20.1567 15.728 20.121L15.7647 20.1155L20.2621 26.5385H23.0792ZM12.1155 15.0002C12.1155 13.4071 13.407 12.1156 15.0001 12.1156C16.5932 12.1156 17.8847 13.4071 17.8847 15.0002C17.8847 16.5934 16.5932 17.8849 15.0001 17.8849C13.407 17.8849 12.1155 16.5934 12.1155 15.0002ZM12.6923 22.3851L10.3846 20.7693V26.5386H12.6923V22.3851Z" fill="#00A3E0"/>
</svg>
