<svg width="30" height="30" xmlns="http://www.w3.org/2000/svg" fill="none" viewBox="0 0 24 24">
  <path fill="#1b96ff" d="M12.022 2.25c5.38.006 9.738 4.357 9.738 9.723 0 2.56-.992 4.89-2.615 6.627a.448.448 0 0 1-.715-.093l-.926-1.604A7.304 7.304 0 0 0 19.384 12c0-4.054-3.296-7.342-7.362-7.342-4.066 0-7.362 3.288-7.362 7.342 0 1.884.711 3.602 1.88 4.902l-.926 1.604a.448.448 0 0 1-.715.093 9.675 9.675 0 0 1-2.615-6.627c0-5.366 4.359-9.717 9.738-9.723Z"/>
  <path fill="#032d60" d="M9.814 19.005a7.315 7.315 0 0 1-2.25-1.161v3.625c0 .156.126.282.282.282h1.687a.281.281 0 0 0 .281-.282v-2.464Z"/>
  <path fill="#0b5cab" fill-rule="evenodd" d="M13.646 16.986a5.252 5.252 0 0 1-4.27-9.533 5.25 5.25 0 0 1 6.206 8.387l3 5.197a.469.469 0 0 1-.406.703h-1.245a.937.937 0 0 1-.812-.469l-2.473-4.285ZM15 12a3 3 0 1 1-6 0 3 3 0 0 1 6 0Z" clip-rule="evenodd"/>
</svg>
