<svg width="16" height="16" viewBox="0 0 16 16" fill="none" xmlns="http://www.w3.org/2000/svg">
<path fill-rule="evenodd" clip-rule="evenodd" d="M10.8062 10.4302L12.8436 13.3398C12.3467 13.7837 11.798 14.1704 11.2066 14.4888L9.17261 11.584C8.5625 11.8491 7.89142 12 7.18378 12C4.42236 12 2.18378 9.76148 2.18378 7C2.18378 4.23853 4.42236 2 7.18378 2C9.94519 2 12.1838 4.23853 12.1838 7C12.1838 8.33154 11.6548 9.53418 10.8062 10.4302ZM7.18378 3C4.97815 3 3.18378 4.79443 3.18378 7C3.18378 9.20557 4.97815 11 7.18378 11C9.38934 11 11.1838 9.20557 11.1838 7C11.1838 4.79443 9.38934 3 7.18378 3Z" fill="#989A9B"></path>
</svg>
