<svg width="30" height="30" xmlns="http://www.w3.org/2000/svg" fill="none" viewBox="0 0 24 24">
  <g fill="#1b96ff">
    <path d="M5.55 10.321a2.25 2.25 0 1 1 1.57-1.61l4.085 4.084-1.591 1.591-4.065-4.065ZM14.387 15.977l-1.59 1.591 3.3 3.3c.238.239.585.331.91.242l1.195-.326A.469.469 0 0 0 18.41 20l-4.023-4.023Z"/>
  </g>
  <g fill="#1b96ff">
    <path d="m9.613 8.022 1.59-1.591-3.29-3.291a.938.938 0 0 0-.91-.242l-1.196.326a.469.469 0 0 0-.208.784l4.014 4.014ZM20.651 17.363a2.25 2.25 0 0 1-3.785-2.089l-4.07-4.07 1.59-1.59 4.01 4.008a2.25 2.25 0 0 1 2.255 3.741Z"/>
  </g>
  <g fill="#032d60">
    <path d="M15.378 7.031a2.25 2.25 0 1 0-1.643-1.539L9.618 9.61l1.591 1.591 4.169-4.169ZM8.022 14.386l-1.59-1.59-3.79 3.788a.234.234 0 0 0 0 .332l1.26 1.26c.091.09.24.09.331 0l3.79-3.79Z"/>
  </g>
  <g fill="#0b5cab">
    <path d="m15.978 9.613 1.591 1.591 3.778-3.777a.234.234 0 0 0 0-.332l-1.26-1.26a.234.234 0 0 0-.331 0l-3.778 3.778ZM9.613 20.66a2.25 2.25 0 1 1-.938-3.744L12.79 12.8l1.591 1.591-4.167 4.168c.17.731-.03 1.531-.6 2.101Z"/>
  </g>
</svg>
