<svg xmlns="http://www.w3.org/2000/svg"  viewBox="0 0 24 24">
  <path fill="#1b96ff" fill-rule="evenodd" d="M2 6a2 2 0 0 1 2-2h16a2 2 0 0 1 2 2v4a1 1 0 1 1-2 0V6H4v6h4.5a1 1 0 1 1 0 2H4a2 2 0 0 1-2-2V6Zm5 2.001a1 1 0 0 1 1 1v.014a1 1 0 0 1-2 0V9a1 1 0 0 1 1-1Zm4 0a1 1 0 0 1 1 1v.014a1 1 0 1 1-2 0V9a1 1 0 0 1 1-1Zm7.895 5.09c-.798-1.59-2.399-2.265-3.895-2.053-1.51.214-2.884 1.327-3.232 3.116-1.257.547-1.822 1.821-1.764 2.968.07 1.362 1.036 2.797 2.866 2.864h5.316c1.187.092 2.173-.29 2.854-.998.668-.695.967-1.624.96-2.505-.008-.88-.322-1.803-1.002-2.476-.54-.536-1.26-.863-2.103-.915Zm-3.614-.073c-.795.113-1.555.737-1.596 1.935a1 1 0 0 1-.831.952c-.584.1-.88.558-.852 1.115.027.544.35.939.925.966h5.3c.029 0 .058.002.087.004.663.058 1.052-.147 1.284-.388.254-.264.406-.664.402-1.103-.004-.439-.162-.827-.41-1.072-.223-.221-.596-.406-1.232-.322a1 1 0 0 1-1.09-.706c-.328-1.106-1.194-1.493-1.987-1.38Z" clip-rule="evenodd"/>
</svg>
