<svg width="30" height="30" viewBox="0 0 30 30" fill="none" xmlns="http://www.w3.org/2000/svg">
<circle cx="6.27" cy="10.22" r="1.78" fill="#087299"/>
<circle cx="6.27" cy="19.11" r="1.78" fill="#087299"/>
<circle cx="24.07" cy="19.11" r="1.78" fill="#087299"/>
<circle cx="24.07" cy="10.22" r="1.78" fill="#087299"/>
<circle cx="15.17" cy="2.78" r="1.78" fill="#087299"/>
<circle cx="15.17" cy="10.22" r="1.78" fill="#087299"/>
<rect x="14.34" y="12.8" width="1.67" height="3.72" fill="#00a2df"/>
<polygon points="21.49 7.52 17.77 4.89 17.77 6.94 21.49 9.56 21.49 7.52" fill="#00a2df"/>
<polygon points="21.49 14.96 17.77 12.33 17.77 14.37 21.49 17 21.49 14.96" fill="#48c1ed"/>
<polygon points="12.6 14.96 8.88 12.33 8.88 14.37 12.6 17 12.6 14.96" fill="#48c1ed"/>
<polygon points="12.6 22.39 8.88 19.77 8.88 21.81 12.6 24.44 12.6 22.39" fill="#00a2df"/>
<circle cx="15.17" cy="19.11" r="1.78" fill="#087299"/>
<circle cx="15.17" cy="26.55" r="1.78" fill="#087299"/>
</svg>
