<svg width="30" height="30" xmlns="http://www.w3.org/2000/svg" fill="none" viewBox="0 0 24 24">
  <path fill="#032d60" d="M10.875 9.321c0-.383.434-.604.744-.379l1.12.812a.938.938 0 0 1 .386.76v4.185c0 .379-.427.601-.737.384l-1.113-.777a.938.938 0 0 1-.4-.769V9.321Z"/>
  <path fill="#0b5cab" d="m18.821 13.334-4.571-2.64v2.598l2.719 1.57a.187.187 0 0 1 0 .325l-4.781 2.76a.375.375 0 0 1-.375 0l-4.782-2.76a.187.187 0 0 1 0-.325l1.595-.921-2.25-1.299-3.001 1.733a.75.75 0 0 0 0 1.299l8.156 4.709c.29.167.648.167.938 0l8.156-4.709a.75.75 0 0 0 0-1.3l-1.804-1.04Z"/>
  <path fill="#1b96ff" d="M9.75 10.693v2.598L3.375 9.61a.75.75 0 0 1 0-1.3l8.156-4.708a.937.937 0 0 1 .937 0l8.157 4.709a.75.75 0 0 1 0 1.299l-3.002 1.733-2.25-1.3 1.595-.92a.188.188 0 0 0 0-.325L12 5.93 7.03 8.8a.187.187 0 0 0 0 .325l2.719 1.57Z"/>
</svg>
