<svg width="28" height="28" viewBox="0 0 28 28" fill="none" xmlns="http://www.w3.org/2000/svg">
    <path fill-rule="evenodd" clip-rule="evenodd" d="M14 2C20.628 2 26 7.37267 26 14C26 20.6273 20.6273 26 14 26C7.37333 26 2 20.6273 2 14C2 7.37267 7.37333 2 14 2ZM14 24.8C19.9647 24.8 24.8 19.9647 24.8 14C24.8 8.03533 19.9647 3.2 14 3.2C8.03533 3.2 3.2 8.03533 3.2 14C3.2 19.9647 8.03533 24.8 14 24.8ZM17.3242 10.3502L11.7714 15.9029L9.63929 13.7708C9.2499 13.3814 8.62298 13.377 8.22437 13.7756L7.94706 14.0529C7.55501 14.445 7.55719 15.0828 7.94223 15.4679L10.9817 18.5073C11.2012 18.7269 11.4963 18.824 11.7833 18.7956C12.0649 18.8156 12.3527 18.7157 12.5691 18.4994L19.0212 12.0473C19.4157 11.6528 19.4164 11.0164 19.0244 10.6244L18.7471 10.3471C18.3485 9.94845 17.718 9.95642 17.3242 10.3502Z" fill="url(#paint0_linear_0_2640)"/>
    <defs>
    <linearGradient id="paint0_linear_0_2640" x1="-10.098" y1="14.1085" x2="13.6987" y2="38.7111" gradientUnits="userSpaceOnUse">
    <stop stop-color="#86CF95"/>
    <stop offset="1" stop-color="#008700"/>
    </linearGradient>
    </defs>
</svg>
    