<svg width="37" height="30" viewBox="0 0 37 30" fill="none" xmlns="http://www.w3.org/2000/svg">
<path d="M35.3234 18.75C35.2656 18.5192 35.2656 18.2308 35.4391 18.0577C36.4219 16.2692 37 14.25 37 12.1154C37 5.42308 31.2766 0 24.2812 0C21.275 0 18.5 1.03846 16.3031 2.71154C23.5297 4.26923 28.9062 10.5 28.9062 17.8846C28.9062 19.9615 28.5016 21.9808 27.6922 23.7692C28.8484 23.4808 29.9469 23.0192 30.9875 22.3846C31.2187 22.2692 31.45 22.2115 31.6813 22.3269L35.3812 23.6538C36.0172 23.8846 36.6531 23.25 36.4797 22.5577L35.3234 18.75Z" fill="black"/>
<path d="M12.7188 5.76923C5.72344 5.76923 0 11.1923 0 17.8846C0 20.0192 0.578125 22.0385 1.61875 23.8269C1.73437 24.0577 1.79219 24.2885 1.73438 24.5192L0.520312 28.3846C0.289062 29.0769 0.925 29.7115 1.61875 29.4808L5.31875 28.1538C5.55 28.0962 5.83906 28.0962 6.0125 28.2115C7.97812 29.3654 10.2328 30 12.7188 30C19.7141 30 25.4375 24.5769 25.4375 17.8846C25.4375 11.1923 19.7141 5.76923 12.7188 5.76923ZM5.78125 20.1923C4.50937 20.1923 3.46875 19.1538 3.46875 17.8846C3.46875 16.6154 4.50937 15.5769 5.78125 15.5769C7.05312 15.5769 8.09375 16.6154 8.09375 17.8846C8.09375 19.1538 7.05312 20.1923 5.78125 20.1923ZM12.7188 20.1923C11.4469 20.1923 10.4062 19.1538 10.4062 17.8846C10.4062 16.6154 11.4469 15.5769 12.7188 15.5769C13.9906 15.5769 15.0312 16.6154 15.0312 17.8846C15.0312 19.1538 13.9906 20.1923 12.7188 20.1923ZM19.6562 20.1923C18.3844 20.1923 17.3438 19.1538 17.3438 17.8846C17.3438 16.6154 18.3844 15.5769 19.6562 15.5769C20.9281 15.5769 21.9688 16.6154 21.9688 17.8846C21.9688 19.1538 20.9281 20.1923 19.6562 20.1923Z" fill="black"/>
</svg>
