<svg width="30" height="30" viewBox="0 0 30 30" fill="none" xmlns="http://www.w3.org/2000/svg">
<path fill-rule="evenodd" clip-rule="evenodd" d="M2.5 22.4286V8H27.75V22.4286H2.5ZM4.30359 20.6251H25.9464V9.80358H4.30359V20.6251Z" fill="#00A2DF"/>
<path d="M6 15.2143C6 14.2183 6.80745 13.4107 7.80358 13.4107C8.7996 13.4107 9.60716 14.2183 9.60716 15.2143C9.60716 16.2103 8.7996 17.0179 7.80358 17.0179C6.80745 17.0179 6 16.2103 6 15.2143Z" fill="#114459"/>
<path d="M13.2144 15.2143C13.2144 14.2183 14.0218 13.4107 15.0179 13.4107C16.014 13.4107 16.8215 14.2183 16.8215 15.2143C16.8215 16.2103 16.014 17.0179 15.0179 17.0179C14.0218 17.0179 13.2144 16.2103 13.2144 15.2143Z" fill="#114459"/>
<path d="M20.4286 15.2143C20.4286 14.2183 21.2361 13.4107 22.2322 13.4107C23.2282 13.4107 24.0358 14.2183 24.0358 15.2143C24.0358 16.2103 23.2282 17.0179 22.2322 17.0179C21.2361 17.0179 20.4286 16.2103 20.4286 15.2143Z" fill="#114459"/>
</svg>
