<svg width="30" height="30" viewBox="0 0 30 30" fill="none" xmlns="http://www.w3.org/2000/svg">
<path fill-rule="evenodd" clip-rule="evenodd" d="M27.1259 20.0228C25.0944 24.9272 20.3086 28.125 15 28.125C7.75127 28.125 1.875 22.2488 1.875 15C1.875 9.69147 5.0728 4.90558 9.97728 2.87408C14.8818 0.84259 20.5271 1.96552 24.2808 5.71924C28.0345 9.47296 29.1574 15.1183 27.1259 20.0228ZM3.75 15C3.75 21.2132 8.7868 26.25 15 26.25C21.2103 26.2429 26.2429 21.2103 26.25 15C26.25 8.7868 21.2132 3.75 15 3.75C8.7868 3.75 3.75 8.7868 3.75 15ZM15 10.2151C16.0355 10.2151 16.875 9.37567 16.875 8.34015C16.875 7.30463 16.0355 6.46515 15 6.46515C13.9645 6.46515 13.125 7.30463 13.125 8.34015C13.125 9.37567 13.9645 10.2151 15 10.2151ZM15.9375 12.2824V22.5561H14.0625V12.2824H15.9375Z" fill="#6b6c6d"/>
</svg>
