<svg width="30" height="30" viewBox="0 0 30 30" fill="none" xmlns="http://www.w3.org/2000/svg">
<path d="M19.8923 4.3269V11.25L22.3385 13.6961V6.77306L19.8923 4.3269Z" fill="#087299"/>
<path d="M10.1077 8.37695L7.66153 9.39234V12.8539L10.1077 15.3V11.8385L19.8923 21.6116L22.3385 20.6077L10.1077 8.37695Z" fill="#087299"/>
<path d="M7.66153 23.2269L10.1077 25.6731V22.2115L7.66153 19.7654V23.2269Z" fill="#087299"/>
<path d="M10.1077 15.3L7.66153 12.8539L5.22692 10.4077L2.78076 11.4231V25.2462L5.22692 27.6923V13.8693L15 23.6423V20.1808L10.1077 15.3Z" fill="#00A3E0"/>
<path d="M24.7731 2.30768V16.1308L15 6.35768V9.81922L24.7731 19.5923L27.2192 18.5769V4.75383L24.7731 2.30768Z" fill="#00A3E0"/>
</svg>
